<?xml version="1.0" encoding="UTF-8" standalone="no"?>
<svg
   xmlns:dc="http://purl.org/dc/elements/1.1/"
   xmlns:cc="http://creativecommons.org/ns#"
   xmlns:rdf="http://www.w3.org/1999/02/22-rdf-syntax-ns#"
   xmlns:svg="http://www.w3.org/2000/svg"
   xmlns="http://www.w3.org/2000/svg"
   xmlns:sodipodi="http://sodipodi.sourceforge.net/DTD/sodipodi-0.dtd"
   xmlns:inkscape="http://www.inkscape.org/namespaces/inkscape"
   width="800"
   height="800"
   viewBox="0 0 211.66666 211.66667"
   version="1.1"
   id="svg8"
   inkscape:version="1.0.2 (e86c870879, 2021-01-15)"
   sodipodi:docname="drawing-3.svg"
   inkscape:export-filename="/home/vijay/Documents/vijaypanchalr3.github.io/static/blogs/ideologies/thumbnail.png"
   inkscape:export-xdpi="96"
   inkscape:export-ydpi="96">
  <defs
     id="defs2" />
  <sodipodi:namedview
     id="base"
     pagecolor="#ffffff"
     bordercolor="#666666"
     borderopacity="1.0"
     inkscape:pageopacity="0.0"
     inkscape:pageshadow="2"
     inkscape:zoom="0.24748737"
     inkscape:cx="671.45371"
     inkscape:cy="490.80037"
     inkscape:document-units="px"
     inkscape:current-layer="layer1"
     inkscape:document-rotation="0"
     showgrid="false"
     units="px"
     inkscape:window-width="1366"
     inkscape:window-height="740"
     inkscape:window-x="0"
     inkscape:window-y="28"
     inkscape:window-maximized="0" />
  <metadata
     id="metadata5">
    <rdf:RDF>
      <cc:Work
         rdf:about="">
        <dc:format>image/svg+xml</dc:format>
        <dc:type
           rdf:resource="http://purl.org/dc/dcmitype/StillImage" />
        <dc:title></dc:title>
      </cc:Work>
    </rdf:RDF>
  </metadata>
  <g
     inkscape:label="Layer 1"
     inkscape:groupmode="layer"
     id="layer1">
    <rect
       style="opacity:1;fill:#f8bc5c;fill-opacity:1;stroke:none;stroke-width:0.264583;stroke-linecap:round;stroke-linejoin:round;stroke-opacity:0.445676"
       id="rect872"
       width="253.12869"
       height="233.54401"
       x="-3.5748115"
       y="-2.6316195"
       ry="3.4447427" />
    <path
       sodipodi:type="star"
       style="opacity:1;fill:#74a466;fill-opacity:1;stroke:none;stroke-width:0.264583;stroke-linecap:round;stroke-linejoin:round;stroke-opacity:0.445676"
       id="path852"
       sodipodi:sides="3"
       sodipodi:cx="88.54364"
       sodipodi:cy="19.361462"
       sodipodi:r1="42.466557"
       sodipodi:r2="25.055269"
       sodipodi:arg1="1.3847219"
       sodipodi:arg2="2.4319195"
       inkscape:flatsided="false"
       inkscape:rounded="0.11"
       inkscape:randomized="0"
       d="M 96.40006,61.094962 C 92.402999,61.847417 72.187518,38.77245 69.537342,35.687121 66.887167,32.601793 47.126273,9.1363541 48.473158,5.2985705 49.820044,1.4607867 79.911292,-4.5088497 83.908353,-5.2613049 c 3.997061,-0.7524552 34.199177,-6.1331721 36.849347,-3.0478432 2.65018,3.0853289 -7.22559,32.1299331 -8.57248,35.9677171 -1.34688,3.837783 -11.7881,32.683939 -15.78516,33.436393 z"
       inkscape:transform-center-x="-29.096806"
       inkscape:transform-center-y="28.879046"
       transform="rotate(-99.34837,128.46064,140.65105)" />
    <path
       sodipodi:type="spiral"
       style="fill:#24448c;fill-rule:evenodd;stroke:none;stroke-width:0.264584;fill-opacity:1"
       id="path854"
       sodipodi:cx="189.0735"
       sodipodi:cy="28.642933"
       sodipodi:expansion="1"
       sodipodi:revolution="3"
       sodipodi:radius="46.471611"
       sodipodi:argument="-18.418875"
       sodipodi:t0="0"
       d="m 189.0735,28.642933 c 2.11724,0.972757 -0.26668,3.33392 -1.61678,3.518991 -3.65869,0.501531 -5.806,-3.6274 -5.4212,-6.752562 0.68831,-5.590182 6.78457,-8.473157 11.88834,-7.323403 7.48999,1.687309 11.19767,9.976729 9.22561,17.024116 -2.62845,9.393059 -13.18028,13.94532 -22.1599,11.127815 C 169.68965,42.692347 164.2849,29.84888 167.95955,18.942219 172.41005,5.7327921 187.56016,-0.52853178 200.391,4.0099932 c 15.1207,5.3484946 22.24105,22.8139828 16.83443,37.5672248 -6.24215,17.033201 -26.02854,25.014154 -42.703,18.736637 -18.94657,-7.132913 -27.78923,-29.243947 -20.63884,-47.838778 8.02165,-20.8605903 32.45996,-30.565742 52.97455,-22.541049 22.77509,8.9089295 33.34333,35.676435 24.44326,58.110332"
       transform="rotate(-113.97096,198.09562,24.64402)" />
    <rect
       style="opacity:1;fill:#ffff00;fill-opacity:1;stroke:none;stroke-width:0.264583;stroke-linecap:round;stroke-linejoin:round;stroke-opacity:0.445676"
       id="rect850"
       width="101.99612"
       height="19.187992"
       x="-10.756164"
       y="19.422575"
       ry="3.4447427" />
    <path
       style="fill:#ecb418;stroke:none;stroke-width:0.264583px;stroke-linecap:butt;stroke-linejoin:miter;stroke-opacity:1;fill-opacity:1;opacity:0.8907892"
       d="m 54.041494,229.42647 c 0.417645,-2.67098 15.987488,-36.50855 15.609512,-43.33463 -0.377976,-6.82609 -22.857917,-5.14032 -24.354446,-71.24156 -1.496528,-66.101238 92.17202,-60.009786 106.06119,-24.526603 13.88918,35.483183 -4.95096,91.437933 -20.99991,94.984363 -16.04896,3.54643 51.91287,96.01786 51.91287,96.01786 z"
       id="path833" />
    <path
       id="rect835"
       style="opacity:0.94959259;fill:#49443b;fill-opacity:1;stroke:none;stroke-width:0.999999;stroke-linecap:round;stroke-linejoin:round;stroke-opacity:0.445676"
       d="M 277.22656 295.98438 C 270.01378 295.98437 264.20703 301.79112 264.20703 309.00391 L 264.20703 477.66797 C 264.20703 484.88075 270.01378 490.6875 277.22656 490.6875 L 480.74219 490.6875 C 487.95497 490.6875 493.76172 484.88075 493.76172 477.66797 L 493.76172 427.93945 L 585.41992 438.10938 L 741.13672 526.88281 L 741.13672 342.24805 L 590.88477 419.80859 L 493.76172 358.70898 L 493.76172 309.00391 C 493.76172 301.79112 487.95497 295.98438 480.74219 295.98438 L 277.22656 295.98438 z "
       transform="scale(0.26458333)" />
    <path
       style="fill:#cca4a0;stroke:none;stroke-width:0.264583px;stroke-linecap:butt;stroke-linejoin:miter;stroke-opacity:1;fill-opacity:1"
       d="m 196.09242,90.553129 -8.93546,7.979604 v 31.492797 l 8.93546,9.37888 z"
       id="path842"
       sodipodi:nodetypes="ccccc" />
    <circle
       style="opacity:1;fill:#dc4424;fill-opacity:1;stroke:none;stroke-width:0.264583;stroke-linecap:round;stroke-linejoin:round;stroke-opacity:0.445676"
       id="path848"
       cx="30.093613"
       cy="51.161572"
       r="25.4461" />
    <rect
       style="opacity:1;fill:#dc4424;fill-opacity:1;stroke:none;stroke-width:0.264583;stroke-linecap:round;stroke-linejoin:round;stroke-opacity:0.445676"
       id="rect858"
       width="57.080692"
       height="126.58485"
       x="196.09242"
       y="139.4044"
       ry="3.4447427" />
    <rect
       style="opacity:1;fill:#00ff8c;fill-opacity:1;stroke:none;stroke-width:0.264583;stroke-linecap:round;stroke-linejoin:round;stroke-opacity:0.445676"
       id="rect856"
       width="150.88728"
       height="15.354491"
       x="152.12354"
       y="190.54543"
       ry="3.4447427" />
    <rect
       style="opacity:1;fill:#24448c;fill-opacity:1;stroke:none;stroke-width:0.264583;stroke-linecap:round;stroke-linejoin:round;stroke-opacity:0.445676"
       id="rect862"
       width="36.044071"
       height="6.7807808"
       x="-122.9779"
       y="78.034454"
       ry="1.2173262"
       transform="rotate(-90)" />
    <circle
       style="opacity:1;fill:#808000;fill-opacity:1;stroke:none;stroke-width:0.264583;stroke-linecap:round;stroke-linejoin:round;stroke-opacity:0.445676"
       id="circle860"
       cx="85.019257"
       cy="99.748459"
       r="6.1707077" />
    <rect
       style="opacity:1;fill:#cca4a0;fill-opacity:1;stroke:none;stroke-width:0.264584;stroke-linecap:round;stroke-linejoin:round;stroke-opacity:0.445676"
       id="rect864"
       width="35.396366"
       height="13.050207"
       x="90.306564"
       y="81.858208"
       ry="2.9277823" />
    <circle
       style="opacity:1;fill:#74a466;fill-opacity:1;stroke:none;stroke-width:0.264583;stroke-linecap:round;stroke-linejoin:round;stroke-opacity:0.445676"
       id="path866"
       cx="104.59587"
       cy="115.83046"
       r="6.6767797" />
    <path
       style="fill:#333333;stroke:none;stroke-width:0.264583px;stroke-linecap:butt;stroke-linejoin:miter;stroke-opacity:1"
       d="m 156.33826,111.07435 30.8187,-12.541618 8.93546,-7.979603 z"
       id="path868" />
    <path
       style="fill:#333333;stroke:none;stroke-width:0.264583px;stroke-linecap:butt;stroke-linejoin:miter;stroke-opacity:1"
       d="m 154.89235,115.91644 41.20007,23.48797 -8.93546,-9.37888 z"
       id="path870" />
  </g>
</svg>
