<?xml version="1.0" encoding="UTF-8" standalone="no"?>
<svg
   xmlns:dc="http://purl.org/dc/elements/1.1/"
   xmlns:cc="http://creativecommons.org/ns#"
   xmlns:rdf="http://www.w3.org/1999/02/22-rdf-syntax-ns#"
   xmlns:svg="http://www.w3.org/2000/svg"
   xmlns="http://www.w3.org/2000/svg"
   xmlns:sodipodi="http://sodipodi.sourceforge.net/DTD/sodipodi-0.dtd"
   xmlns:inkscape="http://www.inkscape.org/namespaces/inkscape"
   width="216.15839mm"
   height="1.2015485mm"
   viewBox="0 0 216.15839 1.2015484"
   version="1.1"
   id="svg8"
   inkscape:version="1.0.2 (e86c870879, 2021-01-15)"
   sodipodi:docname="pg-braker.svg">
  <defs
     id="defs2">
    <inkscape:path-effect
       effect="bspline"
       id="path-effect901"
       is_visible="true"
       lpeversion="1"
       weight="33.333333"
       steps="2"
       helper_size="0"
       apply_no_weight="true"
       apply_with_weight="true"
       only_selected="false" />
    <inkscape:path-effect
       effect="skeletal"
       id="path-effect855"
       is_visible="true"
       lpeversion="1"
       pattern="M 0,5 C 0,2.24 2.24,0 5,0 7.76,0 10,2.24 10,5 10,7.76 7.76,10 5,10 2.24,10 0,7.76 0,5 Z"
       copytype="single_stretched"
       prop_scale="-0.689144"
       scale_y_rel="false"
       spacing="0"
       normal_offset="0"
       tang_offset="0"
       prop_units="false"
       vertical_pattern="false"
       hide_knot="false"
       fuse_tolerance="0" />
    <inkscape:path-effect
       effect="bspline"
       id="path-effect853"
       is_visible="true"
       lpeversion="1"
       weight="33.333333"
       steps="2"
       helper_size="0"
       apply_no_weight="true"
       apply_with_weight="true"
       only_selected="false" />
  </defs>
  <sodipodi:namedview
     id="base"
     pagecolor="#ffffff"
     bordercolor="#666666"
     borderopacity="1.0"
     inkscape:pageopacity="0.0"
     inkscape:pageshadow="2"
     inkscape:zoom="2.0123706"
     inkscape:cx="132.50763"
     inkscape:cy="-38.462945"
     inkscape:document-units="mm"
     inkscape:current-layer="layer1"
     inkscape:document-rotation="0"
     showgrid="false"
     showguides="true"
     inkscape:guide-bbox="true"
     inkscape:window-width="1366"
     inkscape:window-height="768"
     inkscape:window-x="0"
     inkscape:window-y="0"
     inkscape:window-maximized="0">
    <sodipodi:guide
       position="71.30897,21.995941"
       orientation="0,-1"
       id="guide833" />
    <sodipodi:guide
       position="75.077669,14.067821"
       orientation="0,-1"
       id="guide835" />
  </sodipodi:namedview>
  <metadata
     id="metadata5">
    <rdf:RDF>
      <cc:Work
         rdf:about="">
        <dc:format>image/svg+xml</dc:format>
        <dc:type
           rdf:resource="http://purl.org/dc/dcmitype/StillImage" />
        <dc:title />
      </cc:Work>
    </rdf:RDF>
  </metadata>
  <g
     inkscape:label="Layer 1"
     inkscape:groupmode="layer"
     id="layer1"
     transform="translate(4.0292115,-82.782483)">
    <rect
       style="fill:#000000;fill-opacity:0.610156;stroke:none;stroke-width:7.9375;stroke-linecap:round;stroke-linejoin:round;stroke-opacity:0.433951"
       id="rect837"
       width="7.928"
       height="7.928"
       x="-4.0722375"
       y="61.988091"
       rx="0.68899351"
       ry="3.9162005e-06" />
    <rect
       style="fill:#000000;fill-opacity:0.610156;stroke:none;stroke-width:7.9375;stroke-linecap:round;stroke-linejoin:round;stroke-opacity:0.433951"
       id="rect839"
       width="7.928"
       height="7.928"
       x="3.8557639"
       y="61.988091"
       rx="0.68899351"
       ry="3.9162005e-06" />
    <rect
       style="fill:#000000;fill-opacity:0.610156;stroke:none;stroke-width:7.9375;stroke-linecap:round;stroke-linejoin:round;stroke-opacity:0.433951"
       id="rect841"
       width="7.928"
       height="7.928"
       x="11.783765"
       y="61.988091"
       rx="0.68899351"
       ry="3.9162005e-06" />
    <rect
       style="fill:#000000;fill-opacity:0.610156;stroke:none;stroke-width:7.9375;stroke-linecap:round;stroke-linejoin:round;stroke-opacity:0.433951"
       id="rect843"
       width="7.928"
       height="7.928"
       x="19.711767"
       y="61.988091"
       rx="0.68899351"
       ry="3.9162005e-06" />
    <rect
       style="fill:#000000;fill-opacity:0.610156;stroke:none;stroke-width:7.9375;stroke-linecap:round;stroke-linejoin:round;stroke-opacity:0.433951"
       id="rect845"
       width="7.928"
       height="7.928"
       x="27.639761"
       y="61.988091"
       rx="0.68899351"
       ry="3.9162005e-06" />
    <rect
       style="fill:#000000;fill-opacity:0.610156;stroke:none;stroke-width:7.9375;stroke-linecap:round;stroke-linejoin:round;stroke-opacity:0.433951"
       id="rect847"
       width="7.928"
       height="7.928"
       x="35.56776"
       y="61.988091"
       rx="0.68899351"
       ry="3.9162005e-06" />
    <rect
       style="fill:#000000;fill-opacity:0.610156;stroke:none;stroke-width:7.9375;stroke-linecap:round;stroke-linejoin:round;stroke-opacity:0.433951"
       id="rect849"
       width="7.928"
       height="7.928"
       x="43.495762"
       y="61.988091"
       rx="0.68899351"
       ry="3.9162005e-06" />
    <rect
       style="fill:#000000;fill-opacity:0.610156;stroke:none;stroke-width:7.9375;stroke-linecap:round;stroke-linejoin:round;stroke-opacity:0.433951"
       id="rect857"
       width="7.928"
       height="7.928"
       x="51.423756"
       y="61.988091"
       rx="0.68899351"
       ry="3.9162005e-06" />
    <rect
       style="fill:#000000;fill-opacity:0.610156;stroke:none;stroke-width:7.9375;stroke-linecap:round;stroke-linejoin:round;stroke-opacity:0.433951"
       id="rect859"
       width="7.928"
       height="7.928"
       x="59.351749"
       y="61.988091"
       rx="0.68899351"
       ry="3.9162005e-06" />
    <rect
       style="fill:#000000;fill-opacity:0.610156;stroke:none;stroke-width:7.9375;stroke-linecap:round;stroke-linejoin:round;stroke-opacity:0.433951"
       id="rect861"
       width="7.928"
       height="7.928"
       x="67.279762"
       y="61.988091"
       rx="0.68899351"
       ry="3.9162005e-06" />
    <rect
       style="fill:#000000;fill-opacity:0.610156;stroke:none;stroke-width:7.9375;stroke-linecap:round;stroke-linejoin:round;stroke-opacity:0.433951"
       id="rect863"
       width="7.928"
       height="7.928"
       x="75.207771"
       y="61.988091"
       rx="0.68899351"
       ry="3.9162005e-06" />
    <rect
       style="fill:#000000;fill-opacity:0.610156;stroke:none;stroke-width:7.9375;stroke-linecap:round;stroke-linejoin:round;stroke-opacity:0.433951"
       id="rect865"
       width="7.928"
       height="7.928"
       x="83.13575"
       y="61.988091"
       rx="0.68899351"
       ry="3.9162005e-06" />
    <rect
       style="fill:#000000;fill-opacity:0.610156;stroke:none;stroke-width:7.9375;stroke-linecap:round;stroke-linejoin:round;stroke-opacity:0.433951"
       id="rect867"
       width="7.928"
       height="7.928"
       x="91.063759"
       y="61.988091"
       rx="0.68899351"
       ry="3.9162005e-06" />
    <rect
       style="fill:#000000;fill-opacity:0.610156;stroke:none;stroke-width:7.9375;stroke-linecap:round;stroke-linejoin:round;stroke-opacity:0.433951"
       id="rect869"
       width="7.928"
       height="7.928"
       x="98.991768"
       y="61.988091"
       rx="0.68899351"
       ry="3.9162005e-06" />
    <rect
       style="fill:#000000;fill-opacity:0.610156;stroke:none;stroke-width:7.9375;stroke-linecap:round;stroke-linejoin:round;stroke-opacity:0.433951"
       id="rect871"
       width="7.928"
       height="7.928"
       x="106.91976"
       y="61.988091"
       rx="0.68899351"
       ry="3.9162005e-06" />
    <rect
       style="fill:#000000;fill-opacity:0.610156;stroke:none;stroke-width:7.9375;stroke-linecap:round;stroke-linejoin:round;stroke-opacity:0.433951"
       id="rect873"
       width="7.928"
       height="7.928"
       x="114.84776"
       y="61.988091"
       rx="0.68899351"
       ry="3.9162005e-06" />
    <rect
       style="fill:#000000;fill-opacity:0.610156;stroke:none;stroke-width:7.9375;stroke-linecap:round;stroke-linejoin:round;stroke-opacity:0.433951"
       id="rect875"
       width="7.928"
       height="7.928"
       x="122.77576"
       y="61.988091"
       rx="0.68899351"
       ry="3.9162005e-06" />
    <rect
       style="fill:#000000;fill-opacity:0.610156;stroke:none;stroke-width:7.9375;stroke-linecap:round;stroke-linejoin:round;stroke-opacity:0.433951"
       id="rect877"
       width="7.928"
       height="7.928"
       x="130.70377"
       y="61.988091"
       rx="0.68899351"
       ry="3.9162005e-06" />
    <rect
       style="fill:#000000;fill-opacity:0.610156;stroke:none;stroke-width:7.9375;stroke-linecap:round;stroke-linejoin:round;stroke-opacity:0.433951"
       id="rect879"
       width="7.928"
       height="7.928"
       x="138.63174"
       y="61.988091"
       rx="0.68899351"
       ry="3.9162005e-06" />
    <rect
       style="fill:#000000;fill-opacity:0.610156;stroke:none;stroke-width:7.9375;stroke-linecap:round;stroke-linejoin:round;stroke-opacity:0.433951"
       id="rect881"
       width="7.928"
       height="7.928"
       x="146.55975"
       y="61.988091"
       rx="0.68899351"
       ry="3.9162005e-06" />
    <rect
       style="fill:#000000;fill-opacity:0.610156;stroke:none;stroke-width:7.9375;stroke-linecap:round;stroke-linejoin:round;stroke-opacity:0.433951"
       id="rect883"
       width="7.928"
       height="7.928"
       x="154.48776"
       y="61.988091"
       rx="0.68899351"
       ry="3.9162005e-06" />
    <rect
       style="fill:#000000;fill-opacity:0.610156;stroke:none;stroke-width:7.9375;stroke-linecap:round;stroke-linejoin:round;stroke-opacity:0.433951"
       id="rect885"
       width="7.928"
       height="7.928"
       x="162.41574"
       y="61.988091"
       rx="0.68899351"
       ry="3.9162005e-06" />
    <rect
       style="fill:#000000;fill-opacity:0.610156;stroke:none;stroke-width:7.9375;stroke-linecap:round;stroke-linejoin:round;stroke-opacity:0.433951"
       id="rect887"
       width="7.928"
       height="7.928"
       x="170.34375"
       y="61.988091"
       rx="0.68899351"
       ry="3.9162005e-06" />
    <rect
       style="fill:#000000;fill-opacity:0.610156;stroke:none;stroke-width:7.9375;stroke-linecap:round;stroke-linejoin:round;stroke-opacity:0.433951"
       id="rect889"
       width="7.928"
       height="7.928"
       x="178.27176"
       y="61.988091"
       rx="0.68899351"
       ry="3.9162005e-06" />
    <rect
       style="fill:#000000;fill-opacity:0.610156;stroke:none;stroke-width:7.9375;stroke-linecap:round;stroke-linejoin:round;stroke-opacity:0.433951"
       id="rect891"
       width="7.928"
       height="7.928"
       x="186.19977"
       y="61.988091"
       rx="0.68899351"
       ry="3.9162005e-06" />
    <rect
       style="fill:#000000;fill-opacity:0.610156;stroke:none;stroke-width:7.9375;stroke-linecap:round;stroke-linejoin:round;stroke-opacity:0.433951"
       id="rect893"
       width="7.928"
       height="7.928"
       x="194.12775"
       y="61.988091"
       rx="0.68899351"
       ry="3.9162005e-06" />
    <rect
       style="fill:#000000;fill-opacity:0.610156;stroke:none;stroke-width:7.9375;stroke-linecap:round;stroke-linejoin:round;stroke-opacity:0.433951"
       id="rect895"
       width="7.928"
       height="7.928"
       x="202.05576"
       y="61.988091"
       rx="0.68899351"
       ry="3.9162005e-06" />
    <rect
       style="fill:#000000;fill-opacity:0.610156;stroke:none;stroke-width:7.9375;stroke-linecap:round;stroke-linejoin:round;stroke-opacity:0.433951"
       id="rect897"
       width="7.928"
       height="7.928"
       x="209.98376"
       y="61.988091"
       rx="0.68899351"
       ry="3.9162005e-06" />
    <path
       id="path899"
       style="color:#000000;font-style:normal;font-variant:normal;font-weight:normal;font-stretch:normal;font-size:medium;line-height:normal;font-family:sans-serif;font-variant-ligatures:normal;font-variant-position:normal;font-variant-caps:normal;font-variant-numeric:normal;font-variant-alternates:normal;font-variant-east-asian:normal;font-feature-settings:normal;font-variation-settings:normal;text-indent:0;text-align:start;text-decoration:none;text-decoration-line:none;text-decoration-style:solid;text-decoration-color:#000000;letter-spacing:normal;word-spacing:normal;text-transform:none;writing-mode:lr-tb;direction:ltr;text-orientation:mixed;dominant-baseline:auto;baseline-shift:baseline;text-anchor:start;white-space:normal;shape-padding:0;shape-margin:0;inline-size:0;clip-rule:nonzero;display:inline;overflow:visible;visibility:visible;opacity:1;isolation:auto;mix-blend-mode:normal;color-interpolation:sRGB;color-interpolation-filters:linearRGB;solid-color:#000000;solid-opacity:1;vector-effect:none;fill:#444444;fill-opacity:1;fill-rule:nonzero;stroke:none;stroke-width:1;stroke-linecap:round;stroke-linejoin:round;stroke-miterlimit:4;stroke-dasharray:none;stroke-dashoffset:0;stroke-opacity:1;color-rendering:auto;image-rendering:auto;shape-rendering:auto;text-rendering:auto;enable-background:accumulate;stop-color:#000000;stop-opacity:1"
       d="m 212.12917,82.925475 c -0.4876,0.08563 -0.975,0.171251 -1.44074,0.238986 -1.20843,0.175746 -2.28951,0.269338 -3.16983,0.269348 -0.88028,1e-5 -2.0516,-0.101063 -3.37292,-0.229166 -1.32132,-0.128104 -2.79245,-0.283256 -4.55476,-0.283277 -1.76238,-2e-5 -3.23548,0.155169 -4.55683,0.283277 -1.32135,0.128107 -2.49259,0.229156 -3.37292,0.229166 -0.88027,1e-5 -2.05006,-0.101063 -3.37137,-0.229166 -1.32132,-0.128104 -2.79399,-0.283256 -4.55631,-0.283277 -1.76238,-2e-5 -3.23341,0.155169 -4.55476,0.283277 -1.32135,0.128107 -2.4926,0.229156 -3.37293,0.229166 -0.88026,1e-5 -2.05005,-0.101063 -3.37137,-0.229166 -1.32132,-0.128104 -2.79399,-0.283256 -4.55631,-0.283277 -1.76238,-2e-5 -3.23341,0.155169 -4.55476,0.283277 -1.32135,0.128107 -2.49312,0.229156 -3.37343,0.229166 -0.88029,1e-5 -2.05162,-0.101063 -3.37293,-0.229166 -1.32132,-0.128104 -2.79244,-0.283256 -4.55476,-0.283277 -1.8234,-2.1e-5 -3.35307,0.175727 -4.73821,0.316645 -1.38514,0.140918 -2.62004,0.241209 -3.27525,0.231771 -0.79488,-0.01145 -1.97019,-0.124113 -3.28507,-0.258325 -1.31488,-0.134213 -2.7945,-0.29007 -4.55683,-0.290091 -1.76237,-2e-5 -3.23548,0.155169 -4.55683,0.283277 -1.32135,0.128107 -2.49259,0.229156 -3.37292,0.229166 -0.8413,1e-5 -2.0904,-0.110789 -3.4587,-0.247704 -1.3683,-0.136914 -2.86014,-0.303076 -4.64674,-0.287085 -1.70167,0.01523 -3.11172,0.174232 -4.40801,0.30412 -1.29628,0.129888 -2.46159,0.230659 -3.34191,0.230669 -0.88028,1e-5 -2.04953,-0.101063 -3.37085,-0.229166 -1.32131,-0.128104 -2.79451,-0.283256 -4.55683,-0.283277 -1.76237,-2e-5 -3.23548,0.155169 -4.556831,0.283277 -1.32135,0.128107 -2.490525,0.229156 -3.370852,0.229166 -0.880274,1e-5 -2.051606,-0.101063 -3.372922,-0.229166 -1.321315,-0.128104 -2.792436,-0.283256 -4.554759,-0.283277 -1.762377,-2e-5 -3.235476,0.155169 -4.556829,0.283277 -1.32135,0.128107 -2.490528,0.229156 -3.370852,0.229166 -0.880274,1e-5 -2.052122,-0.101063 -3.373438,-0.229166 -1.321318,-0.128104 -2.793987,-0.283256 -4.556313,-0.283277 -1.762373,-2e-5 -3.233406,0.155169 -4.554759,0.283277 -1.321353,0.128107 -2.492595,0.229156 -3.372922,0.229166 -0.880274,1e-5 -2.050052,-0.101063 -3.371368,-0.229166 -1.321316,-0.128104 -2.79399,-0.283256 -4.556313,-0.283277 -1.733566,-2e-5 -3.177244,0.145254 -4.468977,0.267344 -1.291732,0.122091 -2.435727,0.222352 -3.414262,0.228365 -0.924536,0.0057 -2.093489,-0.09056 -3.41788,-0.215839 -1.324388,-0.125282 -2.792436,-0.279849 -4.554759,-0.27987 -1.762377,-2e-5 -3.234958,0.155169 -4.556311,0.283277 -1.321355,0.128107 -2.491044,0.229156 -3.371371,0.229166 -0.911309,1.1e-5 -2.021239,-0.09367 -3.304709,-0.214737 -1.283467,-0.121062 -2.736297,-0.268018 -4.48603,-0.279569 -1.807593,-0.01193 -3.328712,0.139303 -4.669999,0.265941 -1.341287,0.126639 -2.516367,0.228355 -3.396692,0.228365 -0.913296,1.1e-5 -2.017474,-0.09302 -3.298506,-0.213635 -1.281033,-0.12061 -2.733287,-0.26721 -4.4824144,-0.279469 -1.810408,-0.01269 -3.3336378,0.138497 -4.6762002,0.26504 -1.3425625,0.126543 -2.5179157,0.228054 -3.3982422,0.228064 -0.88026468,1e-5 -1.96137277,-0.0932 -3.1698323,-0.268948 -0.7218446,-0.104976 -1.4789264,-0.239207 -2.2489584,-0.382378 v 0.683291 c 0.2222601,0.03539 0.4346977,0.07632 0.6609416,0.109223 1.4342469,0.208581 2.99555202,0.371576 4.7578491,0.371556 1.7622353,-2.1e-5 3.2299349,-0.154598 4.5547608,-0.279469 1.3248258,-0.124871 2.4942749,-0.220162 3.4256305,-0.213635 0.9926335,0.007 2.1325295,0.106853 3.4199465,0.228064 1.287418,0.121212 2.727826,0.26506 4.457092,0.26504 1.762235,-2.1e-5 3.228082,-0.154806 4.552694,-0.27987 1.324612,-0.125064 2.493797,-0.220464 3.422013,-0.214336 0.986075,0.0065 2.130501,0.106338 3.419945,0.227964 1.289445,0.121625 2.729458,0.266262 4.460711,0.266242 1.762236,-2.1e-5 3.23346,-0.155174 4.55476,-0.283277 1.3213,-0.128102 2.492473,-0.229177 3.372922,-0.229166 0.880501,10e-6 2.05478,0.101721 3.394625,0.228465 1.339842,0.126743 2.857905,0.278431 4.662246,0.267344 1.750346,-0.01076 3.203986,-0.158304 4.490165,-0.27987 1.286182,-0.121566 2.399588,-0.21595 3.308842,-0.215939 0.880501,10e-6 2.051584,0.10106 3.372921,0.229166 1.32134,0.128106 2.792471,0.283297 4.55476,0.283277 1.762236,-2e-5 3.23501,-0.155174 4.556313,-0.283277 1.3213,-0.128102 2.49092,-0.229177 3.371368,-0.229166 0.880505,10e-6 2.051585,0.10106 3.372922,0.229166 1.32134,0.128106 2.79454,0.283297 4.556829,0.283277 1.762233,-2.1e-5 3.232946,-0.155174 4.554243,-0.283277 1.321298,-0.128102 2.492989,-0.229177 3.373438,-0.229166 0.880501,10e-6 2.049515,0.10106 3.370852,0.229166 1.32134,0.128106 2.79454,0.283297 4.556829,0.283277 1.762231,-2.1e-5 3.233462,-0.155175 4.554763,-0.283277 1.32129,-0.128102 2.49247,-0.229177 3.37292,-0.229166 0.8805,10e-6 2.05158,0.10106 3.37292,0.229166 1.32134,0.128106 2.79247,0.283297 4.55476,0.283277 1.76223,-2e-5 3.23965,-0.155403 4.55683,-0.287385 1.31718,-0.131982 2.49166,-0.240325 3.31607,-0.247704 0.73945,-0.0066 1.94899,0.09429 3.31091,0.230569 1.36192,0.136275 2.8703,0.304541 4.67155,0.30452 1.76224,-2e-5 3.23553,-0.155174 4.55683,-0.283277 1.32129,-0.128102 2.4904,-0.229176 3.37085,-0.229166 0.8805,10e-6 2.04436,0.100609 3.32642,0.231471 1.28206,0.130863 2.65739,0.291863 4.32221,0.315843 1.80448,0.02599 3.30427,-0.147503 4.69894,-0.289389 1.39466,-0.141887 2.69044,-0.257935 3.50986,-0.257925 0.8805,10e-6 2.0521,0.10106 3.37344,0.229166 1.32133,0.128106 2.79195,0.283297 4.55425,0.283277 1.76222,-2e-5 3.23346,-0.155174 4.55476,-0.283277 1.3213,-0.128102 2.49298,-0.229177 3.37343,-0.229166 0.8805,10e-6 2.05158,0.10106 3.37292,0.229166 1.32134,0.128106 2.79248,0.283298 4.55476,0.283277 1.76225,-2.1e-5 3.23501,-0.155175 4.55631,-0.283277 1.32131,-0.128102 2.49093,-0.229176 3.37138,-0.229166 0.8805,10e-6 2.05158,0.10106 3.37292,0.229166 1.32133,0.128106 2.79453,0.283298 4.55682,0.283277 1.76223,-2.1e-5 3.23295,-0.155175 4.55425,-0.283277 1.32129,-0.128102 2.49299,-0.229177 3.37344,-0.229166 0.88049,10e-6 2.04951,0.10106 3.37085,0.229166 1.32134,0.128106 2.79454,0.283297 4.55683,0.283277 1.70327,-1.9e-5 3.21605,-0.153493 4.61057,-0.352017 z" />
  </g>
</svg>
