<?xml version="1.0" encoding="UTF-8" standalone="no"?>
<!-- Generator: Adobe Illustrator 27.5.0, SVG Export Plug-In . SVG Version: 6.00 Build 0)  -->

<svg
   version="1.1"
   x="0px"
   y="0px"
   viewBox="0 0 185.345 77.699059"
   xml:space="preserve"
   id="svg6580"
   sodipodi:docname="inkstains1.svg"
   inkscape:version="1.2.2 (b0a8486541, 2022-12-01)"
   width="185.345"
   height="77.699059"
   xmlns:inkscape="http://www.inkscape.org/namespaces/inkscape"
   xmlns:sodipodi="http://sodipodi.sourceforge.net/DTD/sodipodi-0.dtd"
   xmlns="http://www.w3.org/2000/svg"
   xmlns:svg="http://www.w3.org/2000/svg"><defs
   id="defs6584">
	
	
	
	
	
	
	
	
	
	
	
	
	
	
	
</defs><sodipodi:namedview
   id="namedview6582"
   pagecolor="#ffffff"
   bordercolor="#000000"
   borderopacity="0.25"
   inkscape:showpageshadow="2"
   inkscape:pageopacity="0.0"
   inkscape:pagecheckerboard="0"
   inkscape:deskcolor="#d1d1d1"
   showgrid="false"
   inkscape:zoom="3.5644082"
   inkscape:cx="-6.8735112"
   inkscape:cy="51.060369"
   inkscape:window-width="1366"
   inkscape:window-height="699"
   inkscape:window-x="0"
   inkscape:window-y="0"
   inkscape:window-maximized="1"
   inkscape:current-layer="svg6580" />

<g
   id="g219"
   transform="translate(-183.275,-240.49403)"
   style="fill:#ff6600;fill-opacity:0.25881264">
		<path
   style="fill:#ff6600;fill-opacity:0.25881264"
   d="m 195.024,260.112 c 0.023,0 0.047,0 0.07,10e-4 -0.002,0.019 -0.009,0.035 -0.01,0.055 z"
   id="path5" />
		<path
   style="fill:#ff6600;fill-opacity:0.25881264"
   d="m 190.583,270.351 c -0.02,0.014 -0.021,0.01 0,0 z"
   id="path7" />
		<path
   style="fill:#ff6600;fill-opacity:0.25881264"
   d="m 187.039,308.439 c 0.953,0.075 1.299,-0.409 1.576,-1.062 0.157,-0.37 0.347,-0.739 0.597,-1.064 0.253,-0.328 -0.1,-0.406 -0.23,-0.565 -0.317,-0.388 -0.822,-0.299 -1.27,-0.365 -0.127,-0.019 -0.229,-0.168 -0.342,-0.258 0.069,-0.054 0.129,-0.129 0.21,-0.159 0.499,-0.187 1.014,-0.345 1.503,-0.549 0.831,-0.348 0.937,-1.179 1.429,-1.757 0.211,-0.247 -0.101,-0.601 -0.343,-0.865 -0.191,-0.208 -0.183,-0.538 0.067,-0.626 0.558,-0.198 0.771,-0.574 1.058,-0.997 0.479,-0.705 1.236,-1.217 2.167,-1.431 1.747,-0.402 3.352,-1.259 5.236,-1.239 0.338,0.004 0.674,-0.218 1.021,-0.306 0.869,-0.221 1.746,-0.599 2.616,-0.59 0.979,0.01 1.736,-0.599 2.663,-0.523 0.972,0.08 1.664,-0.691 2.63,-0.599 0.178,0.017 0.357,-0.455 0.272,-0.608 -0.118,-0.212 -0.253,-0.24 -0.433,-0.076 -0.361,0.329 -0.686,-0.117 -0.903,-0.07 -0.419,0.091 -0.76,0.381 -1.27,0.367 -1.305,-0.036 -2.613,-0.012 -3.919,-0.025 -0.172,-0.002 -0.348,-0.066 -0.511,-0.126 -0.072,-0.026 -0.161,-0.114 -0.161,-0.173 0.002,-0.155 -0.009,-0.403 0.087,-0.449 0.556,-0.265 1.125,-0.624 1.721,-0.678 0.701,-0.064 1.162,-0.488 1.787,-0.643 0.399,-0.099 0.326,-0.529 0.261,-0.855 -0.054,-0.269 -0.253,-0.46 -0.541,-0.469 -0.837,-0.026 -1.679,-0.049 -2.513,0.002 -0.905,0.055 -1.684,0.582 -2.659,0.537 -0.352,-0.016 -0.73,0.451 -1.102,0.692 -0.063,0.041 -0.216,0.079 -0.221,0.07 -0.081,-0.139 -0.195,-0.284 -0.202,-0.431 -0.02,-0.411 -0.021,-0.863 0.636,-0.884 0.843,-0.026 1.467,-0.661 2.379,-0.563 0.821,0.088 1.489,-0.563 2.386,-0.486 0.617,0.053 0.868,-0.331 0.597,-0.775 -0.223,-0.365 -0.352,-0.728 -0.465,-1.126 -0.201,-0.711 -0.805,-1.036 -1.634,-1.029 0.005,0.011 0.01,0.023 0.016,0.033 -0.013,0 -0.027,0 -0.04,0.001 0.002,0.152 0.024,0.309 -0.018,0.451 -0.042,0.144 -0.165,0.27 -0.253,0.404 -0.081,-0.135 -0.197,-0.263 -0.235,-0.407 -0.037,-0.14 -0.017,-0.292 -0.013,-0.441 -0.018,0 -0.037,0.001 -0.055,0.001 0.003,-0.017 0.008,-0.033 0.012,-0.049 -0.45,-0.01 -0.907,-0.013 -1.193,0.366 -0.197,0.261 -0.327,0.559 -0.514,0.828 -0.206,0.296 -0.677,0.364 -0.921,0.13 -0.243,-0.233 -0.471,-0.483 -0.673,-0.745 -0.453,-0.588 -0.84,-0.736 -1.807,-0.537 -0.559,0.115 -0.482,0.549 -0.505,0.92 -0.567,-0.109 -0.945,-0.414 -1.084,-0.91 -0.116,-0.413 0.01,-0.791 0.314,-1.143 0.274,-0.318 0.463,-0.691 0.725,-1.019 0.086,-0.108 0.375,-0.238 0.416,-0.206 0.698,0.548 1.254,-0.071 1.691,-0.283 0.71,-0.344 1.283,-0.855 2.166,-0.967 0.404,-0.051 0.241,-0.538 0.308,-0.843 0.775,-0.349 1.316,-1.002 2.182,-1.256 0.269,-0.079 0.618,-0.325 0.577,-0.708 -0.362,-0.15 -0.725,-0.299 -1.087,-0.449 -0.013,0.07 -0.023,0.144 -0.065,0.163 -0.95,0.434 -2.048,0.565 -2.943,1.118 -0.166,0.103 -0.418,-0.202 -0.348,-0.467 0.248,-0.942 0.542,-1.795 1.653,-2.347 2.097,-1.042 4.399,-1.462 6.69,-1.928 0.879,-0.179 1.774,-0.068 2.686,-0.431 0.781,-0.311 1.83,-0.099 2.76,-0.129 0.178,-0.006 0.406,-0.011 0.522,-0.103 0.628,-0.503 1.478,-0.164 2.107,-0.432 0.608,-0.259 1.212,-0.533 1.832,-0.377 0.744,0.187 1.274,-0.495 2.042,-0.225 0.297,0.104 0.807,-0.18 1.184,-0.35 0.387,-0.175 0.294,-0.555 0.332,-0.864 0.048,-0.397 0.319,-0.554 0.737,-0.56 1.303,-0.018 2.607,-0.023 3.91,-0.053 0.456,-0.01 0.99,0.04 1.348,-0.146 0.622,-0.323 1.253,-0.254 1.888,-0.265 1.769,-0.031 3.548,-0.146 5.304,-0.021 1.877,0.133 3.604,-0.642 5.458,-0.509 0.092,0.007 0.203,-0.18 0.305,-0.277 -0.075,-0.049 -0.147,-0.135 -0.225,-0.14 -0.46,-0.027 -0.922,-0.046 -1.383,-0.046 -3.724,-0.004 -7.449,-0.03 -11.172,0.009 -1.27,0.013 -2.576,-0.24 -3.815,0.364 -0.269,0.131 -0.829,-0.292 -1.259,-0.301 -0.531,-0.011 -0.949,0.395 -1.557,0.383 -2.14,-0.04 -4.283,-0.005 -6.424,0.014 -0.536,0.005 -0.736,-0.222 -0.998,-0.629 -0.23,-0.355 -0.866,-0.507 -1.323,-0.749 -0.573,0.641 -1.184,-0.34 -1.689,0.002 -0.835,0.566 -1.779,0.345 -2.682,0.407 -0.816,0.056 -1.651,-0.13 -2.414,0.365 -0.232,0.15 -0.735,0.088 -1.061,-0.011 -0.513,-0.156 -1.089,-0.336 -1.445,-0.666 -0.683,-0.633 -1.279,-0.822 -2.139,-0.253 -0.2,0.132 -0.763,0.016 -1.031,-0.147 -0.405,-0.246 -0.815,-0.304 -1.264,-0.311 -0.045,-0.246 -0.221,-0.456 -0.471,-0.444 -1.527,0.072 -3.095,-0.264 -4.572,0.397 -0.369,0.165 -0.652,-0.215 -0.881,-0.455 -0.117,-0.123 -0.204,-0.108 -0.24,-0.091 0.016,-0.011 0.042,-0.031 0.089,-0.086 0.378,-0.438 0.827,-0.851 1.33,-1.174 0.313,-0.201 0.652,0.136 0.982,0.237 0.78,0.238 1.6,0.224 2.396,0.031 0.105,-0.026 0.162,-0.205 0.233,-0.338 0.268,-0.009 0.537,-0.016 0.805,-0.027 0.709,-0.029 0.834,-0.14 0.884,-0.66 0.052,-0.549 -0.071,-0.709 -0.682,-0.814 -0.18,-0.031 -0.379,0.014 -0.552,-0.03 -0.262,-0.066 -0.498,-0.174 -0.413,-0.495 0.072,-0.271 0.254,-0.405 0.557,-0.427 0.64,-0.047 1.376,0.068 1.899,-0.174 0.8,-0.369 1.598,-0.405 2.411,-0.344 0.955,0.071 1.664,-0.627 2.649,-0.5 0.812,0.104 1.744,0.179 2.471,-0.072 0.867,-0.299 1.732,-0.406 2.616,-0.546 0.086,-0.014 0.136,-0.207 0.197,-0.342 -1.744,-0.01 -3.489,-0.023 -5.233,-0.029 -0.549,-0.002 -1.047,0.105 -1.587,0.274 -1.121,0.351 -2.356,0.352 -3.516,0.095 -0.409,-0.09 -0.759,-0.397 -1.261,-0.363 -1.542,0.104 -3.132,-0.254 -4.615,0.451 -0.292,0.139 -0.733,0.061 -1.101,0.037 -0.158,-0.011 -0.307,-0.142 -0.459,-0.218 0.128,-0.091 0.241,-0.211 0.386,-0.27 1.329,-0.535 2.764,-0.739 4.183,-0.966 0.631,-0.101 1.3,-0.013 1.946,-0.061 0.253,-0.019 0.509,-0.155 0.73,-0.284 0.144,-0.084 0.268,-0.239 0.314,-0.384 0.016,-0.052 -0.213,-0.226 -0.346,-0.241 -0.456,-0.051 -0.919,-0.05 -1.377,-0.085 -0.077,-0.006 -0.156,-0.089 -0.209,-0.153 -0.014,-0.017 0.056,-0.111 0.109,-0.142 0.466,-0.266 1.052,-0.115 1.55,-0.427 0.912,-0.572 2.002,-0.83 3.118,-0.683 1.697,0.224 3.218,-0.521 4.855,-0.585 0.074,-0.003 0.144,-0.098 0.215,-0.149 -0.053,-0.053 -0.095,-0.131 -0.161,-0.152 -0.165,-0.054 -0.345,-0.126 -0.513,-0.115 -2,0.131 -4.066,-0.396 -5.992,0.465 -0.918,0.002 -1.837,0.005 -2.755,0.007 -0.094,-0.294 -0.272,-0.497 -0.677,-0.488 -0.323,0.008 -0.646,-0.005 -0.969,-0.01 0.025,-0.225 0.173,-0.395 0.415,-0.415 0.592,-0.05 1.19,-0.048 1.787,-0.067 0.171,-0.27 0.507,-0.661 0.424,-0.748 -0.396,-0.422 -0.345,-0.906 -0.475,-1.368 -0.036,-0.13 -0.523,-0.309 -0.672,-0.242 -0.501,0.228 -0.979,0.446 -1.566,0.39 -1.505,-0.144 -2.841,0.543 -4.288,0.685 -0.222,0.022 -0.405,0.374 -0.671,0.026 -0.122,-0.16 0.148,-0.526 0.516,-0.709 0.654,-0.323 1.31,-0.542 2.098,-0.499 0.728,0.04 1.473,-0.03 2.197,-0.128 0.225,-0.031 0.504,-0.285 0.574,-0.487 0.05,-0.144 -0.158,-0.425 -0.337,-0.549 -0.341,-0.236 -0.76,-0.386 -1.108,-0.616 -0.069,-0.046 -0.016,-0.399 0.067,-0.429 0.494,-0.181 1.071,-0.229 1.513,-0.471 1.139,-0.622 2.356,-0.814 3.664,-0.743 0.37,0.02 0.746,-0.044 1.116,-0.024 1.082,0.061 2.051,-0.267 2.716,-0.948 0.782,-0.802 1.873,-0.97 2.854,-1.359 0.616,-0.244 1.44,-0.093 1.674,-0.938 0.06,-0.216 0.609,0.535 0.824,0.047 0.764,-1.737 2.609,-2.111 4.288,-2.631 0.581,-0.18 1.198,-0.281 1.8,-0.478 0.657,-0.216 1.47,-0.063 2.215,-0.075 0.554,-0.009 1.061,-0.608 1.656,-0.1 0.35,-0.267 0.699,-0.534 1.049,-0.801 0.406,0.367 0.759,0.246 1.169,-0.034 0.279,-0.191 0.791,-0.465 0.964,-0.371 0.672,0.368 1.166,-0.172 1.745,-0.141 1.612,0.086 3.005,-0.563 4.449,-1.034 0.238,-0.078 0.281,-0.215 0.155,-0.321 -0.066,-0.055 -0.143,-0.141 -0.216,-0.141 -1.117,-10e-4 -2.281,-0.159 -3.337,0.068 -0.96,0.206 -1.945,0.367 -2.893,0.631 -1.293,0.359 -2.705,0.426 -3.824,1.233 -0.174,0.126 -0.545,0.079 -0.816,0.049 -0.138,-0.015 -0.256,-0.17 -0.384,-0.262 0.732,-0.713 1.345,-1.499 2.545,-1.761 0.975,-0.213 1.978,-0.33 2.921,-0.558 0.993,-0.241 1.948,-0.397 2.963,-0.404 0.456,-0.003 0.991,0.035 1.35,-0.152 0.616,-0.322 1.242,-0.27 1.88,-0.291 1.364,-0.046 2.753,0.146 4.049,-0.466 0.293,-0.138 0.735,-0.057 1.104,-0.03 0.12,0.009 0.225,0.168 0.337,0.259 -0.072,0.051 -0.155,0.155 -0.216,0.146 -0.799,-0.122 -1.355,0.408 -2.041,0.585 -0.101,0.026 -0.156,0.19 -0.233,0.29 0.164,0.055 0.324,0.141 0.493,0.157 0.276,0.025 0.613,0.093 0.827,-0.012 1.197,-0.583 2.498,-0.474 3.778,-0.489 0.535,-0.006 0.873,-0.117 0.911,-0.655 0.015,-0.215 0.23,-0.264 0.381,-0.132 0.355,0.312 0.785,0.347 1.243,0.297 0.012,-0.235 -0.037,-0.506 0.089,-0.677 0.116,-0.158 0.446,-0.227 0.696,-0.27 0.269,-0.046 0.555,-0.015 0.834,-0.017 2.23,-0.018 4.462,-0.086 6.688,-0.021 0.647,0.019 1.251,-0.576 1.77,-0.202 0.661,0.476 1.157,-0.385 1.739,-0.008 0.573,0.372 1.256,0.179 1.89,0.201 1.206,0.041 2.415,0.029 3.622,0.059 0.357,0.009 0.792,-0.008 1.049,0.157 0.396,0.255 0.598,0.068 0.927,-0.049 0.257,-0.092 0.553,0.412 0.919,0.083 0.38,-0.342 0.736,0.387 1.191,-0.009 0.427,-0.372 1.063,-0.154 1.606,-0.19 0.463,-0.03 0.929,-0.026 1.393,-0.03 1.207,-0.01 2.415,-0.012 3.622,-0.026 0.46,-0.005 1.037,0.113 1.357,-0.082 0.951,-0.581 1.972,-0.339 2.963,-0.352 1.105,-0.014 2.211,0.07 3.317,0.111 0.44,0.564 1.233,-0.379 1.647,0.298 0.647,0.027 1.306,0.133 1.937,0.059 0.718,-0.085 1.175,0.42 1.823,0.459 0.992,0.059 1.969,-0.093 2.963,0.391 0.828,0.403 2.029,-0.104 2.872,0.587 1.105,-0.025 2.21,-0.042 3.313,-0.093 0.08,-0.004 0.148,-0.199 0.22,-0.337 0.183,-0.013 0.366,-0.026 0.549,-0.039 0.093,-0.383 0.451,-0.552 0.779,-0.413 0.421,0.178 0.669,0.277 1.18,0.075 0.408,-0.161 0.821,-0.659 1.409,-0.371 0.585,0.286 0.949,-0.247 1.46,-0.317 1.144,-0.155 2.22,-0.777 3.395,-0.011 0.246,0.161 0.723,0.052 1.094,0.06 0.838,0.018 1.677,0.017 2.514,0.054 0.273,0.012 0.463,0.173 0.513,0.426 0.265,0.006 0.532,0.029 0.794,0.009 0.932,-0.071 1.753,0.251 2.625,0.446 0.678,0.152 1.133,0.43 1.637,0.773 0.561,0.382 1.16,0.371 1.767,-0.012 0.603,-0.38 1.064,-0.089 0.994,0.531 -0.027,0.24 0.007,0.486 0.02,0.729 0.015,0.286 0.238,0.433 0.517,0.455 0.458,0.037 0.922,0.021 1.383,0.027 1.016,0.012 2.064,-0.112 3.037,0.074 0.948,0.181 1.838,0.646 2.714,1.052 0.417,0.193 0.848,0.263 1.275,0.387 1.106,0.322 2.22,0.668 3.242,1.149 0.613,0.289 1.214,0.257 1.828,0.329 0.053,0.238 0.221,0.394 0.486,0.441 0.269,0.047 0.552,0.033 0.825,0.068 0.078,0.01 0.143,0.099 0.213,0.152 -0.098,0.095 -0.178,0.237 -0.299,0.274 -0.168,0.052 -0.371,0.007 -0.551,0.039 -0.172,0.03 -0.333,0.106 -0.499,0.162 0.071,0.101 0.115,0.254 0.217,0.293 0.83,0.321 1.66,0.653 2.608,0.565 0.066,-0.006 0.145,0.093 0.218,0.144 -0.095,0.095 -0.173,0.25 -0.288,0.275 -0.87,0.193 -2.096,-0.518 -2.536,0.791 -0.03,0.089 -0.31,0.142 -0.48,0.16 -0.275,0.028 -0.558,0.03 -0.835,0.013 -1.452,-0.089 -2.948,0.312 -4.365,-0.309 -0.108,-0.047 -0.419,0.244 -0.624,0.391 -0.211,0.15 -0.207,0.313 0.013,0.343 0.808,0.109 1.721,0.017 2.407,0.324 0.826,0.369 1.636,0.163 2.431,0.317 0.265,0.051 0.452,0.178 0.465,0.428 -2.269,-0.075 -4.548,0.289 -6.807,-0.386 -1.335,-0.399 -2.696,0.211 -4.023,0.471 -0.466,0.092 -0.103,0.356 0.027,0.509 0.165,0.195 0.425,0.337 0.556,0.544 0.245,0.389 -0.156,0.33 -0.388,0.36 -0.159,0.021 -0.321,0.021 -0.483,0.027 0.068,0.135 0.127,0.327 0.214,0.338 0.64,0.078 1.311,0.223 1.926,0.124 0.663,-0.107 1.115,0.58 1.754,0.246 0.353,-0.185 0.492,-0.042 0.487,0.24 -0.002,0.134 -0.121,0.349 -0.24,0.383 -0.341,0.097 -0.711,0.112 -1.065,0.178 -0.079,0.015 -0.158,0.094 -0.202,0.161 -0.015,0.023 0.069,0.139 0.12,0.146 0.449,0.063 0.902,0.101 1.35,0.169 0.171,0.026 0.479,0.14 0.473,0.166 -0.065,0.263 -0.317,0.279 -0.577,0.282 -1.117,0.01 -2.233,0.025 -3.35,0.048 -0.074,0.001 -0.146,0.096 -0.219,0.147 0.096,0.093 0.191,0.267 0.287,0.267 1.107,-0.003 2.032,0.631 3.215,0.544 1.85,-0.136 3.725,-0.02 5.589,0.012 0.253,0.004 0.72,0.141 0.72,0.216 -10e-4,0.824 0.884,0.729 1.355,1.033 0.559,0.361 1.26,0.156 1.898,0.201 0.464,0.032 0.932,0.01 1.398,0.015 0.373,0.004 0.748,-0.009 1.117,0.029 0.13,0.013 0.244,0.154 0.365,0.236 -0.116,0.127 -0.231,0.255 -0.347,0.382 -0.341,0.374 -0.822,0.32 -1.282,0.321 -4.474,0.003 -8.948,0.031 -13.422,-0.008 -1.699,-0.015 -3.186,0.527 -4.691,1.08 -0.077,0.028 -0.128,0.11 -0.191,0.167 0.07,0.054 0.134,0.118 0.213,0.159 0.074,0.039 0.162,0.066 0.248,0.075 0.271,0.031 0.545,0.041 0.814,0.082 0.08,0.012 0.145,0.099 0.216,0.151 -0.053,0.052 -0.101,0.144 -0.161,0.151 -0.451,0.051 -0.904,0.123 -1.356,0.117 -0.692,-0.008 -0.501,0.6 -0.827,0.826 -0.065,0.045 -0.291,-0.092 -0.444,-0.143 -0.165,-0.056 -0.403,-0.201 -0.484,-0.151 -0.9,0.554 -1.926,0.446 -2.928,0.488 -0.093,0.004 -0.176,0.176 -0.264,0.271 0.075,0.049 0.147,0.137 0.224,0.141 0.65,0.03 1.425,-0.146 1.925,0.106 0.88,0.442 1.772,0.48 2.676,0.418 1.332,-0.091 2.523,0.348 3.75,0.636 0.427,0.1 0.875,0.237 1.283,0.388 1.411,0.522 2.786,0.757 4.227,0.111 0.231,-0.104 0.534,-0.11 0.805,-0.116 0.932,-0.02 1.874,-0.098 2.793,-0.008 0.975,0.095 1.756,-0.451 2.665,-0.469 1.304,-0.026 2.61,-0.01 3.914,0.016 0.219,0.004 0.435,0.147 0.652,0.225 -0.165,0.059 -0.329,0.165 -0.497,0.169 -1.118,0.031 -2.237,0.033 -3.354,0.069 -0.14,0.005 -0.274,0.157 -0.41,0.241 0.069,0.055 0.128,0.143 0.207,0.161 0.785,0.18 1.457,0.651 2.355,0.57 0.723,-0.065 1.424,0.162 2.14,0.326 0.955,0.22 1.936,0.591 2.914,0.579 1.773,-0.022 3.396,0.802 5.177,0.595 0.816,0.474 1.75,0.461 2.669,0.475 0.418,0.006 0.675,0.223 0.965,0.425 0.268,0.187 0.553,0.357 0.832,0.533 0.085,0.616 0.881,0.45 1.21,0.835 0.241,0.281 0.346,0.419 0.12,0.785 -0.317,0.513 -0.112,0.793 0.431,0.846 0.455,0.045 0.917,0.056 1.364,0.134 0.091,0.016 0.144,0.201 0.208,0.335 -0.998,-0.008 -2.064,0.161 -2.961,-0.108 -1.002,-0.3 -2.046,-0.567 -3.014,-1.004 -0.791,-0.357 -1.692,-0.741 -2.54,-0.734 -1.327,0.012 -2.47,-0.543 -3.762,-0.638 -1.325,-0.097 -2.677,-0.388 -3.919,-0.905 -0.947,0.164 -1.842,-0.589 -2.838,-0.088 -0.278,0.14 -0.745,0.071 -1.098,-0.003 -0.489,-0.103 -0.94,-0.444 -1.458,-0.081 -0.611,-0.532 -1.158,-0.243 -1.732,0.075 -0.112,0.062 -0.375,0.002 -0.515,-0.075 -1.036,-0.568 -2.157,-0.243 -3.243,-0.252 -0.281,-0.002 -0.289,0.142 -0.093,0.331 0.169,0.163 0.347,0.409 -0.062,0.507 -0.473,0.113 -1.13,-0.138 -1.301,0.514 -0.462,0.051 -0.893,0.007 -1.252,-0.299 -0.153,-0.13 -0.329,-0.084 -0.383,0.136 -0.035,0.143 -0.012,0.374 0.093,0.45 0.201,0.145 0.523,0.164 0.718,0.313 1.177,0.902 1.17,0.915 1.633,0.91 1.213,-0.013 2.425,-0.033 3.637,-0.049 0.483,-0.007 0.629,-0.278 0.603,-0.636 -0.035,-0.482 0.134,-0.79 0.741,-0.792 0.932,-0.003 1.865,-0.007 2.797,10e-4 0.072,0.001 0.213,0.125 0.202,0.147 -0.052,0.107 -0.14,0.28 -0.225,0.284 -0.838,0.04 -1.678,0.042 -2.516,0.083 -0.103,0.005 -0.214,0.17 -0.28,0.28 -0.021,0.035 0.081,0.14 0.144,0.198 0.254,0.231 0.471,0.5 0.901,0.518 0.109,0.005 0.21,0.16 0.315,0.246 -0.075,0.049 -0.147,0.135 -0.226,0.14 -0.464,0.029 -0.937,0.095 -1.392,0.044 -0.795,-0.089 -1.273,0.629 -2.094,0.531 -0.73,-0.088 -1.5,-0.058 -2.229,0.043 -0.52,0.072 -1.003,0.347 -1.499,0.541 -0.063,0.025 -0.15,0.134 -0.137,0.151 0.049,0.065 0.132,0.147 0.21,0.153 1.178,0.091 2.221,0.688 3.478,0.576 1.292,-0.115 2.608,-0.018 3.913,-0.01 0.466,0.003 1.045,-0.138 1.378,0.05 1.122,0.636 2.345,0.325 3.517,0.445 0.366,0.038 0.868,-0.072 1.078,0.101 0.829,0.684 1.977,0.177 2.885,0.731 0.721,0.44 1.78,0.013 2.672,0.441 0.909,0.436 2.011,0.136 3.02,0.24 0.262,0.027 0.537,0.118 0.758,0.245 0.515,0.295 1.088,0.135 1.628,0.21 0.547,0.076 0.867,0.594 1.518,0.514 1.142,-0.14 2.126,0.295 3.094,0.768 0.796,0.39 1.589,0.948 2.44,1.045 1.011,0.116 1.926,0.589 2.901,0.581 0.965,-0.008 1.754,0.43 2.648,0.512 0.738,0.068 1.51,0.111 2.232,-0.003 0.916,-0.143 1.541,0.566 2.39,0.491 1.149,-0.102 2.12,0.477 3.202,0.634 0.1,0.015 0.186,0.24 0.23,0.38 0.077,0.248 -0.189,0.477 -0.501,0.422 -0.332,-0.059 -0.755,-0.306 -0.962,-0.202 -0.427,0.215 -0.636,0.03 -0.946,-0.126 -0.229,-0.115 -0.515,-0.161 -0.755,0.065 -0.267,0.253 -0.634,0.448 -0.975,0.213 -0.572,-0.393 -1.207,-0.375 -1.853,-0.355 -0.164,0.005 -0.467,0.129 -0.461,0.174 0.037,0.277 0.328,0.269 0.568,0.322 0.078,0.017 0.201,0.143 0.192,0.155 -0.081,0.109 -0.179,0.28 -0.288,0.289 -0.462,0.04 -0.929,0.024 -1.394,0.046 -0.074,0.004 -0.212,0.125 -0.201,0.148 0.054,0.113 0.186,0.31 0.223,0.3 0.835,-0.243 1.328,0.544 2.088,0.517 1.138,-0.04 2.275,-0.086 2.655,1.213 0.045,0.153 0.464,0.213 0.697,0.335 0.937,0.491 1.877,0.977 2.798,1.49 0.423,0.236 -10e-4,0.435 -0.143,0.535 -0.271,0.192 -0.62,0.298 -0.935,0.444 -0.203,0.094 -0.178,0.204 0.008,0.37 0.336,0.297 0.675,0.537 1.2,0.516 0.943,-0.038 0.931,-0.017 1.345,0.689 0.125,0.213 0.34,0.386 0.519,0.573 0.119,0.125 0.255,0.238 0.368,0.366 0.041,0.046 0.059,0.175 0.051,0.177 -0.166,0.053 -0.387,0.174 -0.5,0.121 -0.499,-0.234 -0.893,-0.189 -1.457,-0.014 -1.348,0.418 0.172,0.823 -0.057,1.278 -0.173,0.343 -0.175,0.63 -0.811,0.76 -0.09,0.018 -0.191,-0.001 -0.278,0.023 -0.17,0.048 -0.334,0.114 -0.5,0.172 0.097,0.091 0.185,0.25 0.293,0.262 0.457,0.05 0.884,0.076 1.316,0.307 0.65,0.348 1.392,0.358 2.089,0.031 0.229,-0.107 0.532,-0.303 0.578,0.043 0.086,0.656 0.855,0.866 1.054,1.398 0.106,0.284 0.11,0.673 -0.031,0.936 -0.195,0.364 -0.583,0.235 -0.946,0.079 -0.322,-0.138 -0.687,-0.26 -1.037,-0.272 -0.637,-0.021 -0.653,-0.44 -0.826,-0.797 -0.05,-0.104 -0.255,-0.151 -0.407,-0.217 -0.206,-0.666 -0.816,-0.461 -1.318,-0.426 -0.264,0.018 -0.268,0.156 -0.143,0.326 0.139,0.19 0.265,0.418 0.284,0.636 0.023,0.275 -0.257,0.371 -0.521,0.474 -0.147,0.058 -0.7,0.077 -0.239,0.406 0.273,0.195 0.645,0.28 0.954,0.441 0.31,0.161 0.542,0.714 0.365,0.822 -0.205,0.125 -0.462,0.205 -0.709,0.254 -0.909,0.181 -0.964,0.217 -0.96,0.868 0.002,0.243 -0.006,0.494 0.054,0.728 0.036,0.14 0.225,0.377 0.297,0.364 1.224,-0.221 1.395,0.824 2.037,1.291 0.164,0.119 0.29,0.142 0.438,-0.039 0.393,-0.481 0.651,0.45 1.097,0.057 0.55,-0.485 0.686,0.217 1.021,0.357 0.235,0.098 0.455,0.225 0.681,0.34 0.091,0.377 0.491,0.395 0.785,0.557 0.179,0.099 0.25,0.407 0.276,0.629 0.01,0.084 -0.247,0.272 -0.384,0.274 -0.838,0.01 -1.803,0.205 -2.486,-0.09 -1.001,-0.431 -1.987,-0.335 -2.986,-0.406 -0.556,-0.039 -1.114,0.009 -1.593,-0.317 -0.031,-0.021 -0.187,0.031 -0.2,0.071 -0.048,0.147 -0.133,0.333 -0.07,0.448 0.118,0.216 0.296,0.429 0.509,0.577 0.466,0.324 0.362,0.583 0.074,0.982 -0.189,0.262 -0.012,0.621 0.461,0.723 0.169,0.036 0.316,0.155 0.473,0.236 -0.152,0.078 -0.296,0.209 -0.456,0.225 -0.548,0.054 -1.071,-0.01 -1.165,0.729 -0.041,0.322 -0.619,0.579 -0.92,0.891 -0.328,0.34 -0.567,0.121 -0.92,0.011 -0.846,-0.264 -1.729,-0.464 -2.616,-0.584 -0.348,-0.047 -1.339,-0.286 -0.702,0.652 0.02,0.029 -0.185,0.25 -0.303,0.263 -0.368,0.041 -0.747,0.008 -1.117,0.04 -0.165,0.014 -0.452,0.107 -0.456,0.175 -0.019,0.296 0.296,0.26 0.519,0.341 0.339,0.124 0.292,0.378 -0.024,0.417 -0.41,0.052 -0.817,0.196 -0.896,0.481 -0.26,0.94 -1.249,1.077 -1.966,1.512 -0.223,0.135 -0.474,0.234 -0.702,0.363 -0.34,0.193 -0.249,0.357 0.305,0.712 0.484,0.309 -0.047,0.314 -0.193,0.4 -0.187,0.111 -0.652,0.044 -0.317,0.435 0.177,0.207 0.254,0.392 0.011,0.607 -0.515,0.456 -1.116,0.571 -1.777,0.32 -0.332,-0.126 -0.589,-0.388 -0.786,0.153 -0.104,0.286 -0.398,0.542 -0.667,0.753 -0.987,0.773 -0.997,0.764 -0.315,1.541 0.114,0.13 0.252,0.243 0.358,0.377 0.212,0.265 -0.03,0.723 -0.396,0.737 -0.549,0.02 -1.184,0.202 -1.617,-0.136 -0.602,-0.47 -1.096,0.385 -1.475,0.072 -0.835,-0.691 -1.984,-0.202 -2.885,-0.741 -0.467,-0.28 -1.262,-0.117 -1.901,-0.199 -0.625,-0.08 -1.098,-0.558 -1.819,-0.474 -0.64,0.074 -1.332,-0.11 -1.949,0.017 -0.731,0.151 -1.3,-0.507 -1.995,-0.19 -0.193,0.088 -0.291,0.059 -0.398,-0.149 -0.109,-0.214 -0.207,-0.54 -0.394,-0.594 -0.424,-0.123 -0.918,-0.012 -1.315,-0.299 -0.476,-0.344 -1.078,-0.158 -1.607,-0.27 -0.433,-0.092 -0.824,-0.33 -1.256,-0.435 -0.359,-0.087 -0.705,0.012 -1.043,0.204 -0.665,0.377 -1.499,0.459 -2.085,0.071 -0.644,-0.426 -1.495,-0.083 -2.052,-0.636 -0.297,-0.295 -0.691,-0.114 -0.981,0.104 -0.202,0.152 -0.38,0.179 -0.414,-0.016 -0.212,-1.234 -1.283,-1.277 -2.314,-1.228 -0.711,0.033 -1.188,-0.44 -1.83,-0.467 -0.745,-0.032 -1.493,-0.02 -2.239,-0.033 -0.34,-0.006 -0.493,-0.563 -0.923,-0.274 -0.605,0.407 -1.193,0.373 -1.788,0.013 -0.337,-0.203 -0.678,-0.277 -1.005,-0.019 -0.392,0.309 -0.867,0.28 -1.32,0.252 -0.354,-0.022 -0.772,-0.067 -1.032,-0.246 -0.432,-0.298 -0.74,0.452 -1.182,0.006 -0.351,-0.354 -0.583,0.239 -0.929,0.231 -0.093,-0.002 -0.229,0.044 -0.273,0.005 -0.665,-0.59 -1.661,-0.225 -2.326,-0.573 -0.889,-0.465 -1.795,-0.326 -2.702,-0.416 -0.083,-0.008 -0.166,-0.073 -0.235,-0.125 -0.729,-0.556 -1.597,-0.286 -2.414,-0.316 -0.825,0.596 -1.901,0.49 -2.846,0.748 -3.081,0.839 -4.975,1.399 -7.193,1.205 -0.553,-0.048 -1.119,0.025 -1.678,0.011 -0.48,-0.012 -0.888,0.23 -1.306,0.291 -1.523,0.224 -2.962,0.866 -4.573,0.695 -0.736,-0.078 -1.492,-0.019 -2.238,-0.001 -0.822,0.02 -1.604,-0.008 -2.418,0.377 -0.591,0.279 -1.461,0.087 -2.204,0.141 -0.261,0.019 -0.543,0.106 -0.763,0.232 -0.687,0.391 -1.484,0.068 -2.17,0.276 -0.771,0.234 -1.48,0.622 -2.238,0.895 -0.241,0.087 -0.554,0.016 -0.834,0.027 -0.371,0.014 -0.805,-0.063 -1.101,0.079 -0.702,0.335 -1.276,0.717 -1.652,-0.324 -0.117,-0.324 -0.707,-0.25 -1.022,-0.157 -0.604,0.178 -1.144,0.476 -1.835,0.42 -1.071,-0.086 -1.973,0.342 -2.756,0.918 -0.535,0.394 -0.989,0.784 -1.652,0.217 -1.104,0.503 -2.302,0.324 -3.464,0.336 -0.674,0.007 -1.287,0.06 -1.805,0.469 -0.797,-0.196 -1.458,0.651 -2.044,0.414 -0.547,-0.221 -1.057,0.083 -1.392,-0.116 -0.644,-0.382 -0.937,0.307 -1.486,0.221 -0.632,-0.099 -1.305,0.027 -1.954,-0.019 -0.611,-0.044 -1.042,0.221 -1.536,0.454 -0.61,0.287 -1.308,-0.467 -1.719,-0.204 -0.541,0.345 -0.968,-0.465 -1.409,0.07 -0.079,0.096 -0.589,-0.145 -0.872,-0.099 -0.346,0.056 -0.7,0.206 -0.984,0.393 -0.504,0.332 -0.771,0.323 -0.866,-0.284 -0.017,-0.111 -0.257,-0.276 -0.394,-0.277 -0.92,-0.006 -1.931,-0.289 -2.73,0.138 -0.574,0.306 -1.239,-0.418 -1.63,0.265 -0.65,0.012 -1.301,0.026 -1.951,0.034 -0.747,0.008 -1.493,0.011 -2.24,0.013 -3.454,0.008 -6.908,0.02 -10.361,0.016 -0.552,-10e-4 -1.134,0.008 -1.65,-0.135 -0.694,-0.193 -1.32,-0.567 -2.005,-0.792 -0.779,-0.256 -1.326,0.582 -2.118,0.417 -0.176,-0.037 -0.372,0.007 -0.558,0.006 -2.054,-0.01 -4.107,-0.018 -6.161,-0.039 -0.172,-0.002 -0.343,-0.096 -0.514,-0.148 0.156,-0.183 0.281,-0.399 0.474,-0.544 0.567,-0.427 1.529,-0.004 2.004,-0.698 0.035,-0.051 0.369,-0.005 0.513,0.07 1.398,0.737 2.907,0.256 4.362,0.289 0.404,0.009 0.821,-0.329 1.228,-0.513 0.222,-0.101 0.213,-0.265 -0.058,-0.319 -0.703,-0.14 -1.312,-0.878 -2.064,-0.48 -0.878,0.464 -1.785,0.356 -2.699,0.401 -0.833,0.041 -1.754,-0.092 -2.475,0.18 -0.825,0.312 -1.621,0.282 -2.441,0.339 -0.462,0.033 -0.93,0.02 -1.39,0.065 -0.274,0.027 -0.193,0.152 -0.153,0.334 0.119,0.536 -0.114,0.737 -0.531,0.491 -0.487,-0.288 -0.951,-0.447 -1.547,-0.422 -0.838,0.036 -1.679,-0.003 -2.519,-0.012 -0.279,-0.003 -0.559,0 -0.836,-0.022 -0.079,-0.006 -0.15,-0.092 -0.224,-0.142 0.1,-0.086 0.189,-0.188 0.306,-0.251 0.069,-0.037 0.187,0.008 0.275,-0.013 0.26,-0.062 0.515,-0.139 0.771,-0.21 -0.206,-0.242 -0.36,-0.557 -0.631,-0.709 -0.457,-0.255 -0.971,-0.489 -1.494,-0.58 -0.723,-0.126 -0.39,-1.151 -1.315,-1.071 -0.243,0.021 -0.272,-0.203 -0.045,-0.301 0.082,-0.035 0.163,-0.08 0.251,-0.094 0.641,-0.1 0.592,-0.526 0.583,-0.935 -0.009,-0.434 -0.348,-0.536 -0.742,-0.536 -0.657,0 -1.268,-0.025 -1.837,-0.424 -0.216,-0.152 -0.717,-0.079 -1.05,0.006 -0.432,0.112 -0.915,0.262 -1.217,0.533 -0.599,0.538 -0.982,-0.297 -1.483,-0.099 -0.401,0.159 -0.793,0.604 -1.232,0.287 -0.326,-0.236 -0.543,-0.657 -0.66,-1.031 -0.167,-0.534 -0.559,-0.761 -1.086,-0.971 -0.32,-0.134 -0.158,-0.757 0.199,-0.729 z m 10.303,-48.772 v 0 c 0.524,0.001 1.049,0.002 1.574,0.003 v 0 c -0.525,-0.001 -1.05,-0.002 -1.574,-0.003 z m 4.527,-0.749 c 0,0 0,0 0,0 0.132,-0.077 0.258,-0.202 0.399,-0.216 -0.141,0.014 -0.267,0.139 -0.399,0.216 z m 4.41,4.182 c 1.029,-0.046 2.115,0.248 3.051,-0.395 0.078,0.04 0.172,0.069 0.232,0.124 -0.06,-0.056 -0.154,-0.084 -0.232,-0.125 -0.936,0.644 -2.021,0.351 -3.051,0.396 z m 23.014,-18.714 c 0,0 0,0 0,0 -0.152,-0.052 -0.304,-0.103 -0.456,-0.155 0.152,0.052 0.304,0.103 0.456,0.155 z m 103.849,33.552 c -0.06,0.003 -0.115,0.09 -0.173,0.14 0.032,0.045 0.063,0.09 0.094,0.134 -0.031,-0.044 -0.062,-0.089 -0.093,-0.134 0.057,-0.051 0.112,-0.138 0.172,-0.14 z m -1.016,0.045 c 0.025,0.042 0.083,0.097 0.069,0.126 0.014,-0.028 -0.043,-0.083 -0.069,-0.126 -0.056,0 -0.128,-0.02 -0.164,0.004 0.036,-0.023 0.109,-0.003 0.164,-0.004 z m 4.493,1.874 c -0.094,-0.002 -0.189,0.002 -0.282,-0.002 -0.024,0.007 -0.055,0.015 -0.084,0.022 0.029,-0.007 0.06,-0.015 0.084,-0.022 0.093,0.004 0.189,10e-4 0.282,0.002 z m -31.744,-8.958 c 0,0 0,0 0,0 -0.163,-0.058 -0.326,-0.116 -0.489,-0.175 0.163,0.059 0.326,0.117 0.489,0.175 z m -65.383,1.685 c -0.029,0.029 -0.057,0.064 -0.087,0.089 0.032,0.046 0.064,0.091 0.095,0.137 -0.032,-0.046 -0.063,-0.091 -0.095,-0.137 0.03,-0.025 0.058,-0.06 0.087,-0.089 z m 15.195,33.462 c -0.038,0.028 -0.075,0.061 -0.113,0.085 0.059,0.044 0.116,0.104 0.173,0.154 -0.058,-0.05 -0.115,-0.11 -0.173,-0.154 0.038,-0.024 0.075,-0.057 0.113,-0.085 z m -47.222,-7.726 c 0.067,-0.038 0.132,-0.084 0.198,-0.125 -0.066,0.042 -0.131,0.088 -0.198,0.125 0,0 0,0 0,0 z"
   id="path9" />
		<path
   style="fill:#ff6600;fill-opacity:0.25881264"
   d="m 360.115,278.735 c -0.076,0.043 -0.158,0.108 -0.239,0.109 -0.465,0.009 -1.072,0.165 -1.369,-0.032 -0.836,-0.557 -1.756,-0.433 -2.665,-0.49 -0.275,-0.017 -0.642,0.06 -0.808,-0.067 -0.878,-0.67 -2.045,-0.113 -2.919,-0.552 -0.969,-0.486 -1.992,-0.265 -2.985,-0.341 -0.584,-0.045 -1.032,-0.243 -1.532,-0.455 -0.733,-0.309 -1.487,-0.64 -2.362,-0.53 -0.852,0.107 -1.609,-0.161 -2.358,-0.488 -1.399,-0.612 -2.848,-1.068 -4.452,-0.995 -0.267,0.012 -0.546,-0.032 -0.806,-0.094 -0.211,-0.05 -0.202,-0.198 -0.019,-0.364 0.467,-0.425 -0.385,-0.623 -0.238,-0.995 0.643,0 1.294,-0.054 1.925,0.022 0.621,0.075 1.21,0.34 1.831,0.424 0.64,0.087 1.307,0.015 1.95,0.093 0.344,0.042 0.776,0.445 0.972,0.355 0.861,-0.396 1.531,-10e-4 2.203,0.305 0.44,0.2 0.889,0.31 1.334,0.242 1.254,-0.193 2.291,0.549 3.487,0.561 0.523,0.43 1.172,0.437 1.828,0.416 1.5,-0.049 2.855,0.42 4.25,0.82 0.897,0.257 1.726,0.507 2.334,1.168 0.174,0.19 0.382,0.358 0.586,0.525 0.186,0.157 0.213,0.272 0.052,0.363 z"
   id="path11" />
		<path
   style="fill:#ff6600;fill-opacity:0.25881264"
   d="m 331.844,272.966 c 0.086,-0.016 0.217,0.162 0.327,0.249 -0.075,0.047 -0.15,0.136 -0.225,0.136 -1.473,0.008 -2.945,0.006 -4.418,0.006 0,0.005 -0.001,0.009 -0.001,0.014 -1.469,0 -2.938,0.002 -4.407,-0.007 -0.069,0 -0.162,-0.091 -0.197,-0.159 -0.017,-0.034 0.063,-0.151 0.116,-0.161 0.697,-0.132 1.222,-0.644 2.023,-0.596 1.102,0.066 2.215,-0.023 3.32,0.018 1.171,0.044 2.229,0.727 3.462,0.5 z"
   id="path13" />
		<path
   style="fill:#ff6600;fill-opacity:0.25881264"
   d="m 199.501,283.243 c 0.02,0.004 0.038,0.002 0.058,0.007 -0.001,0.005 -0.001,0.013 -0.002,0.018 -0.018,0.008 -0.032,0.02 -0.05,0.027 0.002,-0.018 -0.005,-0.034 -0.006,-0.052 z"
   id="path15" />
		<path
   style="fill:#ff6600;fill-opacity:0.25881264"
   d="m 196.941,283.742 c -0.752,0.029 -1.044,0.605 -1.576,0.887 -0.137,0.073 -0.342,0.06 -0.516,0.066 -0.281,0.01 -0.15,-0.2 0.051,-0.544 0.554,-0.949 1.786,-0.701 2.571,-1.214 0.499,-0.326 1.067,-0.159 1.601,-0.147 0.257,0.006 0.418,0.203 0.429,0.453 -0.937,-0.169 -1.681,0.464 -2.56,0.499 z"
   id="path17" />
		<path
   style="fill:#ff6600;fill-opacity:0.25881264"
   d="m 342.335,264.052 c 0.03,0 0.061,-0.005 0.09,-0.004 0.003,0.027 0.005,0.054 0.008,0.082 -0.024,-0.009 -0.048,-0.02 -0.072,-0.029 -0.007,-0.019 -0.018,-0.032 -0.026,-0.049 z"
   id="path19" />
		<path
   style="fill:#ff6600;fill-opacity:0.25881264"
   d="m 340.853,263.856 c -0.694,-0.632 -1.512,-0.827 -2.469,-0.797 -0.261,0.008 -0.442,-0.177 -0.442,-0.438 0.624,-0.017 1.273,-0.127 1.861,-0.007 1.013,0.207 2.079,0.441 2.532,1.438 -0.513,0.007 -1.083,0.167 -1.482,-0.196 z"
   id="path21" />
		<path
   style="fill:#ff6600;fill-opacity:0.25881264"
   d="m 193.035,315.34 c 0.552,0.375 1.156,0.427 1.814,0.42 0.539,-0.006 1.08,0.062 1.619,0.11 0.057,0.005 0.105,0.095 0.157,0.145 -0.074,0.048 -0.147,0.137 -0.222,0.139 -1.007,0.025 -2.014,0.059 -3.02,0.038 -0.24,-0.005 -0.491,-0.186 -0.706,-0.324 -0.14,-0.091 -0.251,-0.239 -0.323,-0.382 -0.071,-0.145 0.436,-0.312 0.681,-0.146 z"
   id="path23" />
		<path
   style="fill:#ff6600;fill-opacity:0.25881264"
   d="m 183.456,305.145 c 0.065,-0.155 0.618,-0.224 0.707,-0.091 0.225,0.336 0.429,0.682 0.63,1.029 0.023,0.04 -0.007,0.154 -0.032,0.159 -0.258,0.053 -0.518,0.113 -0.781,0.128 -0.425,0.023 -0.667,-0.166 -0.705,-0.654 0.039,-0.127 0.09,-0.356 0.181,-0.571 z"
   id="path25" />
		<path
   style="fill:#ff6600;fill-opacity:0.25881264"
   d="m 342.322,317.551 c 0.196,-0.121 0.429,-0.318 0.586,0.04 0.031,0.071 0.024,0.169 -0.006,0.242 -0.102,0.251 -0.317,0.373 -0.619,0.359 -0.455,-0.021 -0.914,-0.031 -1.362,-0.095 -0.082,-0.012 -0.126,-0.226 -0.184,-0.365 0.524,-0.085 1.089,0.125 1.585,-0.181 z"
   id="path27" />
		<path
   style="fill:#ff6600;fill-opacity:0.25881264"
   d="m 340.737,317.732 c -0.013,0.002 -0.026,0 -0.038,0.003 0,-0.007 0,-0.014 -0.001,-0.021 0.01,-0.002 0.02,-0.004 0.029,-0.006 0.004,0.007 0.007,0.016 0.01,0.024 z"
   id="path29" />
		<path
   style="fill:#ff6600;fill-opacity:0.25881264"
   d="m 345.227,272.468 c -0.02,0 -0.039,0 -0.059,0 -0.008,-0.014 -0.015,-0.031 -0.022,-0.047 0.025,0 0.051,-0.002 0.076,-10e-4 -0.002,0.017 0.004,0.031 0.005,0.048 z"
   id="path31" />
		<path
   style="fill:#ff6600;fill-opacity:0.25881264"
   d="m 347.532,272.486 c 0.248,0.01 0.407,0.187 0.425,0.423 -0.772,0.001 -1.544,0.018 -2.314,-0.012 -0.252,-0.01 -0.409,-0.189 -0.417,-0.429 0.769,10e-4 1.539,-0.014 2.306,0.018 z"
   id="path33" />
		<path
   style="fill:#ff6600;fill-opacity:0.25881264"
   d="m 235.463,242.881 c -0.538,0.023 -0.802,-0.332 -1.048,-0.677 -0.006,-0.008 0.258,-0.234 0.339,-0.21 0.397,0.119 0.777,0.281 1.161,0.431 -0.01,0.257 -0.152,0.443 -0.452,0.456 z"
   id="path35" />
		<path
   style="fill:#ff6600;fill-opacity:0.25881264"
   d="m 235.916,242.426 c 0.001,-0.009 0.004,-0.017 0.004,-0.026 0.024,-0.008 0.052,-0.014 0.078,-0.021 -0.008,0.023 -0.015,0.048 -0.024,0.07 -0.02,-0.008 -0.039,-0.016 -0.058,-0.023 z"
   id="path37" />
		<path
   style="fill:#ff6600;fill-opacity:0.25881264"
   d="m 339.372,317.27 c 0.434,-0.036 0.875,-0.015 1.313,-0.015 0.004,0.153 0.009,0.306 0.013,0.459 -0.081,0.014 -0.166,0.02 -0.238,0.051 -0.226,0.097 -0.474,0.319 -0.66,0.282 -0.229,-0.045 -0.41,-0.296 -0.599,-0.469 -0.141,-0.128 -0.079,-0.288 0.171,-0.308 z"
   id="path39" />
		<path
   style="fill:#ff6600;fill-opacity:0.25881264"
   d="m 363.647,297.308 c -0.06,0.057 -0.215,0.13 -0.228,0.118 -0.107,-0.104 -0.231,-0.217 -0.272,-0.347 -0.048,-0.152 -0.024,-0.322 -0.019,-0.484 0.014,-0.451 0.101,-0.474 0.651,-0.203 0.137,0.068 0.287,0.115 0.433,0.169 0.017,0.365 -0.332,0.525 -0.565,0.747 z"
   id="path41" />
		<path
   style="fill:#ff6600;fill-opacity:0.25881264"
   d="m 364.212,296.562 c 0,-0.01 0.005,-0.016 0.004,-0.025 0.018,0 0.036,0 0.054,0 -10e-4,0.015 -0.004,0.031 -0.005,0.046 -0.017,-0.007 -0.035,-0.015 -0.053,-0.021 z"
   id="path43" />
		<path
   style="fill:#ff6600;fill-opacity:0.25881264"
   d="m 216.669,240.84 c -0.084,-0.017 -0.155,-0.085 -0.232,-0.129 0.072,-0.05 0.137,-0.126 0.219,-0.145 0.17,-0.041 0.356,-0.089 0.524,-0.066 0.257,0.035 0.505,0.127 0.757,0.194 -0.239,0.085 -0.477,0.17 -0.625,0.223 -0.29,-0.032 -0.471,-0.041 -0.643,-0.077 z"
   id="path45" />
		<path
   style="fill:#ff6600;fill-opacity:0.25881264"
   d="m 190.926,268.188 c 0.029,0.026 0.028,0.127 0.014,0.132 -0.165,0.057 -0.335,0.102 -0.594,0.175 -0.18,-0.041 -0.439,-0.098 -0.693,-0.165 -0.019,-0.005 -0.035,-0.112 -0.009,-0.137 0.207,-0.201 1.065,-0.204 1.282,-0.005 z"
   id="path47" />
		<path
   style="fill:#ff6600;fill-opacity:0.25881264"
   d="m 323.392,253.278 c -0.026,0 -0.051,-0.001 -0.077,-0.002 10e-4,-0.021 -0.007,-0.035 -0.008,-0.054 0.022,0.001 0.044,0 0.067,0.001 0.004,0.022 0.013,0.035 0.018,0.055 z"
   id="path49" />
		<path
   style="fill:#ff6600;fill-opacity:0.25881264"
   d="m 324.833,253.578 c 0.009,0.026 -0.137,0.138 -0.201,0.132 -0.46,-0.044 -1.078,0.207 -1.24,-0.432 0.42,0.003 0.841,-0.003 1.259,0.025 0.072,0.005 0.147,0.173 0.182,0.275 z"
   id="path51" />
		<path
   style="fill:#ff6600;fill-opacity:0.25881264"
   d="m 312.281,311.99 c 0.058,-0.037 0.198,-0.072 0.203,-0.063 0.074,0.128 0.133,0.263 0.172,0.348 0.053,0.346 -0.172,0.454 -0.441,0.474 -0.155,0.011 -0.318,-0.068 -0.477,-0.107 0.047,-0.121 0.064,-0.261 0.148,-0.357 0.102,-0.118 0.255,-0.205 0.395,-0.295 z"
   id="path53" />
		<path
   style="fill:#ff6600;fill-opacity:0.25881264"
   d="m 236.3,317.282 c 0.168,-0.028 0.344,-0.021 0.593,-0.032 0.012,0 0.11,-0.022 0.187,0.005 0.156,0.053 0.3,0.133 0.45,0.202 -0.123,0.083 -0.236,0.215 -0.371,0.238 -0.258,0.042 -0.534,0.049 -0.792,0.012 -0.105,-0.015 -0.188,-0.18 -0.262,-0.286 -0.008,-0.011 0.119,-0.126 0.195,-0.139 z"
   id="path55" />
		<path
   style="fill:#ff6600;fill-opacity:0.25881264"
   d="m 199.445,272.403 c -0.123,-0.063 -0.223,-0.161 -0.333,-0.244 0.066,-0.05 0.13,-0.139 0.199,-0.142 0.336,-0.019 0.673,-0.023 1.009,-0.012 0.069,0.002 0.134,0.091 0.201,0.14 -0.099,0.086 -0.182,0.216 -0.3,0.248 -0.159,0.043 -0.345,0.011 -0.519,0.011 0,0.002 0,0.004 0,0.006 -0.087,-0.001 -0.192,0.027 -0.257,-0.007 z"
   id="path57" />
		<path
   style="fill:#ff6600;fill-opacity:0.25881264"
   d="m 366.219,297.945 c -0.062,-0.055 -0.168,-0.105 -0.178,-0.167 -0.049,-0.293 -0.093,-0.59 -0.087,-0.885 10e-4,-0.068 0.21,-0.132 0.333,-0.203 0.308,0.352 0.281,0.712 0.102,1.079 -0.033,0.067 -0.113,0.118 -0.17,0.176 z"
   id="path59" />
		<path
   style="fill:#ff6600;fill-opacity:0.25881264"
   d="m 308.546,242.928 c -0.182,-0.048 -0.438,-0.111 -0.689,-0.187 -0.02,-0.006 -0.032,-0.117 -0.004,-0.144 0.227,-0.216 1.038,-0.213 1.272,0.005 0.03,0.027 0.024,0.137 0.003,0.145 -0.16,0.059 -0.328,0.104 -0.582,0.181 z"
   id="path61" />
		<path
   style="fill:#ff6600;fill-opacity:0.25881264"
   d="m 337.328,273.413 c 0.013,0 0.027,10e-4 0.04,10e-4 -0.005,0.01 -0.002,0.019 -0.006,0.028 -0.009,0 -0.017,10e-4 -0.026,10e-4 -0.001,-0.012 -0.007,-0.018 -0.008,-0.03 z"
   id="path63" />
		<path
   style="fill:#ff6600;fill-opacity:0.25881264"
   d="m 335.843,273.245 c -0.022,-0.025 0.004,-0.126 0.026,-0.131 0.247,-0.054 0.495,-0.115 0.748,-0.136 0.371,-0.031 0.664,0.062 0.711,0.435 -0.427,-0.006 -0.855,-0.007 -1.281,-0.026 -0.073,-0.003 -0.151,-0.083 -0.204,-0.142 z"
   id="path65" />
		<path
   style="fill:#ff6600;fill-opacity:0.25881264"
   d="m 368.62,300.768 c -0.067,0.056 -0.123,0.132 -0.202,0.163 -0.356,0.138 -0.703,-0.043 -0.764,-0.391 0.064,-0.142 0.129,-0.283 0.193,-0.424 0.257,0.217 0.515,0.434 0.773,0.652 z"
   id="path67" />
		<path
   style="fill:#ff6600;fill-opacity:0.25881264"
   d="m 324.862,314.291 c 0.374,-0.025 0.641,0.101 0.685,0.452 -0.419,-0.007 -0.839,-0.009 -1.258,-0.029 -0.072,-0.003 -0.153,-0.082 -0.203,-0.143 -0.022,-0.027 0.01,-0.133 0.037,-0.139 0.244,-0.056 0.49,-0.124 0.739,-0.141 z"
   id="path69" />
		<path
   style="fill:#ff6600;fill-opacity:0.25881264"
   d="m 319.902,312.541 c -0.221,0.07 -0.439,0.156 -0.666,0.197 -0.041,0.007 -0.125,-0.173 -0.189,-0.266 0.148,-0.049 0.297,-0.098 0.445,-0.146 0.137,0.071 0.273,0.143 0.41,0.215 z"
   id="path71" />
		<path
   style="fill:#ff6600;fill-opacity:0.25881264"
   d="m 192.035,313.823 c 0.238,0.041 0.467,0.126 0.699,0.196 -0.136,0.081 -0.272,0.162 -0.408,0.243 -0.157,-0.052 -0.314,-0.103 -0.471,-0.155 0.061,-0.1 0.142,-0.29 0.18,-0.284 z"
   id="path73" />
		<path
   style="fill:#ff6600;fill-opacity:0.25881264"
   d="m 204.373,316.296 c 0.232,0.011 0.46,0.074 0.746,0.129 -0.203,0.109 -0.332,0.226 -0.475,0.242 -0.142,0.016 -0.299,-0.07 -0.45,-0.112 0.06,-0.091 0.125,-0.262 0.179,-0.259 z"
   id="path75" />
		<path
   style="fill:#ff6600;fill-opacity:0.25881264"
   d="m 289.133,242.889 c 0.023,0 0.045,0 0.068,0 -0.008,0.014 -0.017,0.033 -0.025,0.049 -0.01,0.001 -0.021,0.001 -0.031,0.002 -0.002,-0.02 -0.01,-0.032 -0.012,-0.051 z"
   id="path77" />
		<path
   style="fill:#ff6600;fill-opacity:0.25881264"
   d="m 288.265,242.583 c -0.006,-0.021 0.129,-0.098 0.206,-0.108 0.388,-0.054 0.623,0.073 0.661,0.415 -0.24,-0.002 -0.481,0.007 -0.714,-0.029 -0.071,-0.011 -0.125,-0.176 -0.153,-0.278 z"
   id="path79" />
		<path
   style="fill:#ff6600;fill-opacity:0.25881264"
   d="m 318.286,255.76 c 0.155,-0.003 0.313,0.118 0.47,0.184 -0.148,0.07 -0.296,0.139 -0.443,0.209 -0.161,-0.063 -0.322,-0.127 -0.483,-0.19 0.151,-0.072 0.302,-0.2 0.456,-0.203 z"
   id="path81" />
		<path
   style="fill:#ff6600;fill-opacity:0.25881264"
   d="m 196.039,261.077 c -0.075,-0.01 -0.205,-0.085 -0.199,-0.109 0.026,-0.103 0.078,-0.273 0.147,-0.284 0.232,-0.036 0.474,-0.026 0.713,-0.028 -0.049,0.331 -0.274,0.473 -0.661,0.421 z"
   id="path83" />
		<path
   style="fill:#ff6600;fill-opacity:0.25881264"
   d="m 196.7,260.655 c 0.002,-0.017 0.01,-0.027 0.012,-0.045 0.01,0 0.019,0 0.029,0 0.005,0.016 0.013,0.029 0.018,0.045 -0.021,0 -0.04,0 -0.059,0 z"
   id="path85" />
		<path
   style="fill:#ff6600;fill-opacity:0.25881264"
   d="m 188.789,264.541 c -0.134,-0.011 -0.257,-0.127 -0.385,-0.197 0.135,-0.076 0.264,-0.2 0.406,-0.214 0.144,-0.014 0.422,0.069 0.431,0.132 0.039,0.278 -0.239,0.296 -0.452,0.279 z"
   id="path87" />
		<path
   style="fill:#ff6600;fill-opacity:0.25881264"
   d="m 192.619,267.698 c 0.065,0.297 -0.222,0.289 -0.432,0.267 -0.145,-0.015 -0.279,-0.115 -0.417,-0.178 0.137,-0.076 0.268,-0.199 0.413,-0.215 0.144,-0.015 0.421,0.058 0.436,0.126 z"
   id="path89" />
		<path
   style="fill:#ff6600;fill-opacity:0.25881264"
   d="m 194.86,268.953 c -0.071,-0.01 -0.125,-0.176 -0.156,-0.278 -0.006,-0.02 0.129,-0.098 0.205,-0.107 0.373,-0.044 0.632,0.056 0.668,0.409 -0.24,-10e-4 -0.483,0.011 -0.717,-0.024 z"
   id="path91" />
		<path
   style="fill:#ff6600;fill-opacity:0.25881264"
   d="m 195.577,268.977 c 0.02,0 0.04,0 0.06,0 -0.008,0.013 -0.015,0.03 -0.023,0.044 -0.009,0 -0.018,10e-4 -0.026,10e-4 -0.001,-0.018 -0.009,-0.028 -0.011,-0.045 z"
   id="path93" />
		<path
   style="fill:#ff6600;fill-opacity:0.25881264"
   d="m 317.385,270.034 c 0.229,0.044 0.278,0.185 0.16,0.285 -0.06,0.051 -0.137,0.108 -0.214,0.117 -0.387,0.044 -0.633,-0.08 -0.671,-0.428 0.244,0 0.493,-0.019 0.725,0.026 z"
   id="path95" />
		<path
   style="fill:#ff6600;fill-opacity:0.25881264"
   d="m 316.661,270.007 c -0.022,0 -0.045,10e-4 -0.067,10e-4 0.004,-0.019 0.012,-0.03 0.017,-0.047 0.013,-0.001 0.026,-0.001 0.039,-0.003 0,0.02 0.009,0.031 0.011,0.049 z"
   id="path97" />
		<path
   style="fill:#ff6600;fill-opacity:0.25881264"
   d="m 364.92,291.896 c -0.113,-0.199 -0.198,-0.406 0.058,-0.575 0.042,-0.027 0.119,-0.014 0.18,-0.019 0.059,0.129 0.172,0.261 0.16,0.385 -0.012,0.128 -0.145,0.247 -0.224,0.37 -0.059,-0.053 -0.138,-0.097 -0.174,-0.161 z"
   id="path99" />
		<path
   style="fill:#ff6600;fill-opacity:0.25881264"
   d="m 363.951,291.252 c 0.086,0.126 0.238,0.25 0.24,0.377 0.003,0.131 -0.139,0.264 -0.218,0.396 -0.084,-0.123 -0.168,-0.246 -0.252,-0.369 0.077,-0.135 0.153,-0.27 0.23,-0.404 z"
   id="path101" />
		<path
   style="fill:#ff6600;fill-opacity:0.25881264"
   d="m 194.23,292.711 c 0.079,0.026 0.138,0.099 0.207,0.15 -0.067,0.053 -0.124,0.125 -0.202,0.156 -0.244,0.096 -0.5,0.174 -0.705,-0.062 -0.03,-0.035 -0.009,-0.104 -0.01,-0.124 0.198,-0.291 0.46,-0.201 0.71,-0.12 z"
   id="path103" />
		<path
   style="fill:#ff6600;fill-opacity:0.25881264"
   d="m 363.098,294.126 c 0,-0.016 0,-0.033 0,-0.049 0.011,0.006 0.025,0.01 0.038,0.016 0.003,0.01 0.008,0.015 0.01,0.025 -0.018,0.001 -0.03,0.007 -0.048,0.008 z"
   id="path105" />
		<path
   style="fill:#ff6600;fill-opacity:0.25881264"
   d="m 362.924,294.926 c -0.124,-0.056 -0.308,-0.129 -0.328,-0.22 -0.077,-0.349 0.106,-0.55 0.503,-0.58 0.003,0.216 0.014,0.434 -0.004,0.649 -0.006,0.057 -0.147,0.162 -0.171,0.151 z"
   id="path107" />
		<path
   style="fill:#ff6600;fill-opacity:0.25881264"
   d="m 365.341,296.953 c 0.019,0.134 -0.042,0.37 -0.142,0.408 -0.38,0.146 -0.37,-0.141 -0.391,-0.346 -0.014,-0.144 0.006,-0.29 0.014,-0.436 0.281,0.007 0.483,0.126 0.519,0.374 z"
   id="path109" />
		<path
   style="fill:#ff6600;fill-opacity:0.25881264"
   d="m 338.337,317.538 c -0.059,0.025 -0.119,0.05 -0.178,0.074 -0.063,-0.044 -0.126,-0.089 -0.189,-0.133 0.059,-0.049 0.117,-0.098 0.176,-0.147 0.063,0.069 0.127,0.137 0.191,0.206 z"
   id="path111" />
		<path
   style="fill:#ff6600;fill-opacity:0.25881264"
   d="m 218.726,240.632 c 0.053,-0.021 0.119,-0.071 0.166,-0.059 0.07,0.017 0.126,0.077 0.188,0.119 -0.118,0.026 -0.236,0.052 -0.354,0.078 0,-0.045 0,-0.091 0,-0.138 z"
   id="path113" />
		<path
   style="fill:#ff6600;fill-opacity:0.25881264"
   d="m 265.374,241.379 c -0.212,-0.084 -0.247,-0.195 -0.102,-0.285 0.04,-0.025 0.118,-0.004 0.182,-0.004 0.025,0.043 0.09,0.104 0.074,0.136 -0.029,0.063 -0.131,0.163 -0.154,0.153 z"
   id="path115" />
		<path
   style="fill:#ff6600;fill-opacity:0.25881264"
   d="m 291.141,241.845 c -0.062,0.005 -0.135,-0.088 -0.203,-0.137 0.061,-0.06 0.118,-0.164 0.183,-0.168 0.065,-0.004 0.137,0.093 0.206,0.145 -0.061,0.057 -0.118,0.154 -0.186,0.16 z"
   id="path117" />
		<path
   style="fill:#ff6600;fill-opacity:0.25881264"
   d="m 235.998,242.379 c 0.041,-0.118 0.07,-0.25 0.161,-0.305 0.148,-0.09 0.291,0.035 0.189,0.165 -0.063,0.079 -0.215,0.104 -0.35,0.14 z"
   id="path119" />
		<path
   style="fill:#ff6600;fill-opacity:0.25881264"
   d="m 215.503,246.775 c -0.061,0.006 -0.135,-0.09 -0.203,-0.142 0.062,-0.061 0.123,-0.122 0.185,-0.184 0.07,0.054 0.139,0.109 0.208,0.163 -0.062,0.059 -0.121,0.156 -0.19,0.163 z"
   id="path121" />
		<path
   style="fill:#ff6600;fill-opacity:0.25881264"
   d="m 324.304,248.146 c -0.066,0.078 -0.214,0.103 -0.347,0.137 0.043,-0.117 0.075,-0.247 0.166,-0.301 0.149,-0.087 0.286,0.039 0.181,0.164 z"
   id="path123" />
		<path
   style="fill:#ff6600;fill-opacity:0.25881264"
   d="m 323.957,248.283 c -0.009,0.024 -0.016,0.05 -0.026,0.071 -0.01,-0.001 -0.021,-0.002 -0.031,-0.003 -0.004,-0.018 -0.021,-0.028 -0.023,-0.047 0.024,-0.008 0.053,-0.014 0.08,-0.021 z"
   id="path125" />
		<path
   style="fill:#ff6600;fill-opacity:0.25881264"
   d="m 194.681,260.469 c -0.049,-0.251 0.13,-0.271 0.311,-0.29 -0.043,0.1 -0.084,0.201 -0.141,0.295 -0.012,0.02 -0.168,0.006 -0.17,-0.005 z"
   id="path127" />
		<path
   style="fill:#ff6600;fill-opacity:0.25881264"
   d="m 195.024,260.112 c 0,0 0.061,0.056 0.061,0.056 -0.03,0.004 -0.061,0.008 -0.092,0.011 0.009,-0.023 0.021,-0.045 0.031,-0.067 z"
   id="path129" />
		<path
   style="fill:#ff6600;fill-opacity:0.25881264"
   d="m 337.527,262.282 c 0.003,-0.015 0.165,-0.037 0.177,-0.018 0.064,0.098 0.109,0.205 0.159,0.31 -0.192,-0.015 -0.382,-0.033 -0.336,-0.292 z"
   id="path131" />
		<path
   style="fill:#ff6600;fill-opacity:0.25881264"
   d="m 337.863,262.575 c 0.025,0.002 0.05,0.004 0.075,0.007 -10e-4,0.014 0.004,0.025 0.004,0.039 -0.018,0 -0.036,0.002 -0.054,0.003 -0.008,-0.017 -0.017,-0.033 -0.025,-0.049 z"
   id="path133" />
		<path
   style="fill:#ff6600;fill-opacity:0.25881264"
   d="m 336.513,262.508 c -0.062,0.006 -0.135,-0.08 -0.204,-0.126 0.062,-0.058 0.12,-0.158 0.187,-0.162 0.066,-0.004 0.139,0.088 0.21,0.138 -0.065,0.054 -0.124,0.143 -0.193,0.15 z"
   id="path135" />
		<path
   style="fill:#ff6600;fill-opacity:0.25881264"
   d="m 194.769,262.705 c 0.279,0.077 0.287,0.196 0.019,0.299 -0.033,0.013 -0.123,-0.092 -0.187,-0.142 0.057,-0.055 0.134,-0.166 0.168,-0.157 z"
   id="path137" />
		<path
   style="fill:#ff6600;fill-opacity:0.25881264"
   d="m 342.433,264.13 c 0.114,0.043 0.23,0.084 0.336,0.138 0.021,0.011 -0.004,0.145 -0.016,0.146 -0.275,0.025 -0.306,-0.124 -0.32,-0.284 z"
   id="path139" />
		<path
   style="fill:#ff6600;fill-opacity:0.25881264"
   d="m 329.597,265.305 c -0.01,-0.015 0.116,-0.099 0.179,-0.151 0.07,0.043 0.207,0.11 0.199,0.126 -0.1,0.223 -0.242,0.232 -0.378,0.025 z"
   id="path141" />
		<path
   style="fill:#ff6600;fill-opacity:0.25881264"
   d="m 341.865,269.447 c -0.002,0.023 -0.005,0.045 -0.008,0.069 -0.015,-0.01 -0.03,-0.02 -0.046,-0.029 -10e-4,-0.007 -0.004,-0.01 -0.005,-0.017 0.02,-0.008 0.039,-0.016 0.059,-0.023 z"
   id="path143" />
		<path
   style="fill:#ff6600;fill-opacity:0.25881264"
   d="m 342.215,269.161 c 0.017,0.003 0.036,0.138 0.015,0.147 -0.117,0.055 -0.242,0.095 -0.365,0.138 0.017,-0.174 0.052,-0.335 0.35,-0.285 z"
   id="path145" />
		<path
   style="fill:#ff6600;fill-opacity:0.25881264"
   d="m 327.359,270.718 c -0.013,-0.021 0.112,-0.107 0.173,-0.162 0.075,0.05 0.211,0.119 0.202,0.139 -0.098,0.229 -0.242,0.239 -0.375,0.023 z"
   id="path147" />
		<path
   style="fill:#ff6600;fill-opacity:0.25881264"
   d="m 196.68,270.997 c 0.008,-0.018 0.019,-0.036 0.027,-0.054 0.014,0 0.027,0.002 0.04,0.002 0.003,0.016 0.01,0.03 0.012,0.046 -0.025,0.002 -0.052,0.004 -0.079,0.006 z"
   id="path149" />
		<path
   style="fill:#ff6600;fill-opacity:0.25881264"
   d="m 196.337,271.289 c -0.047,-0.268 0.149,-0.281 0.344,-0.293 -0.049,0.106 -0.095,0.214 -0.158,0.313 -0.014,0.02 -0.183,-0.003 -0.186,-0.02 z"
   id="path151" />
		<path
   style="fill:#ff6600;fill-opacity:0.25881264"
   d="m 348.054,272.967 c -0.03,-0.002 -0.06,-0.005 -0.089,-0.008 0,-0.018 -0.006,-0.033 -0.008,-0.05 0.023,0 0.045,0 0.068,0 0.009,0.02 0.02,0.039 0.029,0.058 z"
   id="path153" />
		<path
   style="fill:#ff6600;fill-opacity:0.25881264"
   d="m 348.392,273.265 c -0.003,0.015 -0.17,0.037 -0.182,0.018 -0.063,-0.1 -0.108,-0.209 -0.156,-0.316 0.193,0.016 0.384,0.034 0.338,0.298 z"
   id="path155" />
		<path
   style="fill:#ff6600;fill-opacity:0.25881264"
   d="m 200.369,277.969 c 0.055,-0.006 0.124,0.089 0.188,0.139 -0.062,0.048 -0.124,0.097 -0.188,0.147 -0.054,-0.038 -0.122,-0.086 -0.191,-0.134 0.063,-0.055 0.122,-0.145 0.191,-0.152 z"
   id="path157" />
		<path
   style="fill:#ff6600;fill-opacity:0.25881264"
   d="m 361.723,279.25 c -0.029,0.012 -0.125,-0.099 -0.19,-0.153 0.057,-0.059 0.138,-0.177 0.169,-0.167 0.275,0.083 0.284,0.209 0.021,0.32 z"
   id="path159" />
		<path
   style="fill:#ff6600;fill-opacity:0.25881264"
   d="m 363.404,280.217 c -0.038,0.014 -0.13,-0.087 -0.193,-0.131 0.059,-0.053 0.136,-0.161 0.174,-0.152 0.281,0.07 0.288,0.185 0.019,0.283 z"
   id="path161" />
		<path
   style="fill:#ff6600;fill-opacity:0.25881264"
   d="m 195.091,288.738 c -0.025,-0.009 -0.048,-0.019 -0.073,-0.028 0.002,-0.023 0.003,-0.047 0.004,-0.07 0.021,0.004 0.038,0.013 0.059,0.016 0.005,0.026 0.007,0.054 0.01,0.082 z"
   id="path163" />
		<path
   style="fill:#ff6600;fill-opacity:0.25881264"
   d="m 195.425,289.041 c -0.305,0.036 -0.318,-0.135 -0.334,-0.303 0.121,0.043 0.244,0.083 0.357,0.139 0.022,0.011 -0.006,0.162 -0.023,0.164 z"
   id="path165" />
		<path
   style="fill:#ff6600;fill-opacity:0.25881264"
   d="m 364.615,296.212 c 0.077,0.016 0.11,0.2 0.158,0.329 -0.168,-10e-4 -0.335,-0.003 -0.503,-0.004 0.016,-0.189 0.043,-0.387 0.345,-0.325 z"
   id="path167" />
		<path
   style="fill:#ff6600;fill-opacity:0.25881264"
   d="m 364.773,296.541 c 0.017,0 0.034,0 0.051,0 0,0.013 0,0.026 -0.001,0.039 -0.013,0 -0.024,-0.004 -0.037,-0.004 -0.005,-0.01 -0.009,-0.024 -0.013,-0.035 z"
   id="path169" />
		<path
   style="fill:#ff6600;fill-opacity:0.25881264"
   d="m 366.517,300.959 c -0.006,0.015 -0.011,0.032 -0.017,0.046 -0.008,-0.004 -0.017,-0.008 -0.025,-0.013 -0.002,-0.008 -0.008,-0.011 -0.009,-0.019 0.015,-0.005 0.034,-0.009 0.051,-0.014 z"
   id="path171" />
		<path
   style="fill:#ff6600;fill-opacity:0.25881264"
   d="m 366.886,300.807 c -0.063,0.085 -0.23,0.11 -0.368,0.152 0.049,-0.122 0.079,-0.267 0.176,-0.325 0.146,-0.087 0.29,0.039 0.192,0.173 z"
   id="path173" />
		<path
   style="fill:#ff6600;fill-opacity:0.25881264"
   d="m 189.036,301.654 c 0.054,-0.021 0.118,-0.068 0.163,-0.057 0.068,0.018 0.123,0.076 0.183,0.117 -0.115,0.025 -0.231,0.05 -0.347,0.076 0.001,-0.044 0.001,-0.09 0.001,-0.136 z"
   id="path175" />
		<path
   style="fill:#ff6600;fill-opacity:0.25881264"
   d="m 185.241,302.077 c 0.067,-0.004 0.142,0.088 0.213,0.138 -0.063,0.054 -0.122,0.146 -0.189,0.15 -0.067,0.004 -0.141,-0.079 -0.212,-0.125 0.062,-0.058 0.121,-0.159 0.188,-0.163 z"
   id="path177" />
		<path
   style="fill:#ff6600;fill-opacity:0.25881264"
   d="m 185.998,308.577 c -0.09,0.058 -0.179,0.116 -0.269,0.173 -0.033,-0.054 -0.067,-0.108 -0.1,-0.161 0.059,-0.057 0.118,-0.113 0.177,-0.17 0.064,0.053 0.128,0.106 0.192,0.158 z"
   id="path179" />
		<path
   style="fill:#ff6600;fill-opacity:0.25881264"
   d="m 351.628,311.422 c 0.062,-0.004 0.131,0.088 0.197,0.138 -0.059,0.053 -0.114,0.142 -0.178,0.147 -0.06,0.005 -0.128,-0.08 -0.193,-0.125 0.058,-0.057 0.112,-0.156 0.174,-0.16 z"
   id="path181" />
		<path
   style="fill:#ff6600;fill-opacity:0.25881264"
   d="m 305.683,311.387 c 0.069,0.051 0.208,0.124 0.198,0.151 -0.096,0.243 -0.242,0.252 -0.374,0.022 -0.015,-0.026 0.114,-0.114 0.176,-0.173 z"
   id="path183" />
		<path
   style="fill:#ff6600;fill-opacity:0.25881264"
   d="m 318.214,312.543 c -0.058,0.054 -0.112,0.147 -0.174,0.151 -0.06,0.004 -0.128,-0.083 -0.193,-0.13 0.057,-0.059 0.114,-0.119 0.171,-0.178 0.066,0.052 0.131,0.104 0.196,0.157 z"
   id="path185" />
		<path
   style="fill:#ff6600;fill-opacity:0.25881264"
   d="m 313.611,312.438 c 0.029,0.045 0.092,0.101 0.079,0.132 -0.024,0.058 -0.116,0.153 -0.139,0.145 -0.198,-0.073 -0.234,-0.175 -0.104,-0.262 0.037,-0.025 0.108,-0.011 0.164,-0.015 z"
   id="path187" />
		<path
   style="fill:#ff6600;fill-opacity:0.25881264"
   d="m 310.874,312.608 c -0.055,0.026 -0.11,0.051 -0.165,0.077 -0.06,-0.044 -0.119,-0.087 -0.179,-0.131 0.054,-0.049 0.108,-0.098 0.161,-0.147 0.061,0.067 0.122,0.134 0.183,0.201 z"
   id="path189" />
		<path
   style="fill:#ff6600;fill-opacity:0.25881264"
   d="m 281.603,313.38 c 0.069,0.05 0.203,0.121 0.192,0.145 -0.099,0.24 -0.243,0.246 -0.37,0.017 -0.012,-0.023 0.116,-0.106 0.178,-0.162 z"
   id="path191" />
		<path
   style="fill:#ff6600;fill-opacity:0.25881264"
   d="m 322.496,313.853 c 0.078,0.056 0.214,0.126 0.204,0.148 -0.1,0.237 -0.246,0.245 -0.376,0.02 -0.015,-0.024 0.111,-0.111 0.172,-0.168 z"
   id="path193" />
		<path
   style="fill:#ff6600;fill-opacity:0.25881264"
   d="m 194.238,313.916 c 0.067,0.015 0.121,0.074 0.18,0.115 -0.109,0.029 -0.218,0.057 -0.327,0.086 -0.005,-0.045 -0.011,-0.09 -0.016,-0.135 0.055,-0.024 0.118,-0.076 0.163,-0.066 z"
   id="path195" />
		<path
   style="fill:#ff6600;fill-opacity:0.25881264"
   d="m 264.332,314.406 c 0.025,0.038 0.087,0.095 0.073,0.122 -0.029,0.058 -0.119,0.152 -0.146,0.143 -0.206,-0.069 -0.241,-0.172 -0.099,-0.261 0.038,-0.024 0.111,-0.004 0.172,-0.004 z"
   id="path197" />
		<path
   style="fill:#ff6600;fill-opacity:0.25881264"
   d="m 329.345,315.075 c -0.064,0.078 -0.211,0.104 -0.343,0.14 0.037,-0.115 0.064,-0.242 0.15,-0.294 0.146,-0.088 0.29,0.034 0.193,0.154 z"
   id="path199" />
		<path
   style="fill:#ff6600;fill-opacity:0.25881264"
   d="m 329.002,315.214 c -0.008,0.024 -0.014,0.05 -0.024,0.072 -0.028,0.002 -0.055,0.004 -0.083,0.005 0.009,-0.019 0.019,-0.037 0.028,-0.055 0.024,-0.009 0.052,-0.015 0.079,-0.022 z"
   id="path201" />
		<path
   style="fill:#ff6600;fill-opacity:0.25881264"
   d="m 327.062,314.913 c 0.09,0.055 0.117,0.188 0.158,0.306 -0.134,-0.037 -0.287,-0.064 -0.349,-0.144 -0.097,-0.126 0.048,-0.25 0.191,-0.162 z"
   id="path203" />
		<path
   style="fill:#ff6600;fill-opacity:0.25881264"
   d="m 325.987,315.102 c -0.004,0.02 -0.175,0.043 -0.186,0.026 -0.065,-0.106 -0.113,-0.221 -0.164,-0.334 0.209,0.007 0.407,0.027 0.35,0.308 z"
   id="path205" />
		<path
   style="fill:#ff6600;fill-opacity:0.25881264"
   d="m 325.636,314.794 c -0.026,-10e-4 -0.051,-0.003 -0.077,-0.003 -0.001,-0.019 -0.01,-0.029 -0.012,-0.047 0.022,0 0.043,10e-4 0.065,10e-4 0.008,0.017 0.017,0.032 0.024,0.049 z"
   id="path207" />
		<path
   style="fill:#ff6600;fill-opacity:0.25881264"
   d="m 328.895,315.291 c -0.052,0.111 -0.101,0.223 -0.166,0.328 -0.012,0.018 -0.177,-0.004 -0.18,-0.021 -0.052,-0.275 0.142,-0.297 0.346,-0.307 z"
   id="path209" />
		<path
   style="fill:#ff6600;fill-opacity:0.25881264"
   d="m 327.676,315.589 c -0.004,0.019 -0.178,0.047 -0.19,0.029 -0.068,-0.105 -0.117,-0.22 -0.171,-0.332 0.208,0.007 0.411,0.022 0.361,0.303 z"
   id="path211" />
		<path
   style="fill:#ff6600;fill-opacity:0.25881264"
   d="m 327.315,315.285 c -0.025,-0.001 -0.049,-0.002 -0.074,-0.004 -0.009,-0.019 -0.014,-0.042 -0.022,-0.063 0.024,0.007 0.05,0.012 0.072,0.02 0.008,0.016 0.017,0.031 0.024,0.047 z"
   id="path213" />
		<path
   style="fill:#ff6600;fill-opacity:0.25881264"
   d="m 340.766,317.2 c -0.009,0.019 -0.02,0.037 -0.029,0.055 -0.017,0 -0.034,0 -0.052,0 0,-0.016 -10e-4,-0.033 -10e-4,-0.049 0.027,-0.002 0.054,-0.004 0.082,-0.006 z"
   id="path215" />
		<path
   style="fill:#ff6600;fill-opacity:0.25881264"
   d="m 341.111,316.905 c 0.042,0.264 -0.15,0.282 -0.345,0.295 0.052,-0.107 0.1,-0.215 0.165,-0.315 0.012,-0.019 0.178,0.005 0.18,0.02 z"
   id="path217" />
	</g>
</svg>
