<?xml version="1.0" encoding="UTF-8" standalone="no"?>
<svg
   xmlns:dc="http://purl.org/dc/elements/1.1/"
   xmlns:cc="http://creativecommons.org/ns#"
   xmlns:rdf="http://www.w3.org/1999/02/22-rdf-syntax-ns#"
   xmlns:svg="http://www.w3.org/2000/svg"
   xmlns="http://www.w3.org/2000/svg"
   xmlns:sodipodi="http://sodipodi.sourceforge.net/DTD/sodipodi-0.dtd"
   xmlns:inkscape="http://www.inkscape.org/namespaces/inkscape"
   version="1.0"
   width="395.06418pt"
   height="183.7249pt"
   viewBox="0 0 395.06418 183.7249"
   preserveAspectRatio="xMidYMid meet"
   id="svg132"
   sodipodi:docname="inkspot.svg"
   inkscape:version="1.0.2 (e86c870879, 2021-01-15)">
  <metadata
     id="metadata138">
    <rdf:RDF>
      <cc:Work
         rdf:about="">
        <dc:format>image/svg+xml</dc:format>
        <dc:type
           rdf:resource="http://purl.org/dc/dcmitype/StillImage" />
        <dc:title />
      </cc:Work>
    </rdf:RDF>
  </metadata>
  <defs
     id="defs136" />
  <sodipodi:namedview
     pagecolor="#ffffff"
     bordercolor="#666666"
     borderopacity="1"
     objecttolerance="10"
     gridtolerance="10"
     guidetolerance="10"
     inkscape:pageopacity="0"
     inkscape:pageshadow="2"
     inkscape:window-width="1366"
     inkscape:window-height="741"
     id="namedview134"
     showgrid="false"
     inkscape:zoom="0.37198185"
     inkscape:cx="-33.668222"
     inkscape:cy="-94.810264"
     inkscape:window-x="0"
     inkscape:window-y="27"
     inkscape:window-maximized="1"
     inkscape:current-layer="svg132"
     inkscape:document-rotation="0" />
  <path
     d="m 48.503599,1.4274494 c 0,0.9 -0.9,1.9 -2.1,2.3 -2.1,0.8 -2.1,0.8 0.3,2.4 3.3,2.2 9.8,8.5999986 9.8,9.5999986 0,0.5 -0.9,1.7 -2,2.7 -1.1,1 -2,2.2 -2,2.6 0,0.4 1.9,2.1 4.3,3.7 2.3,1.7 7.1,5.7 10.7,9.1 3.6,3.3 7.3,6.1 8.3,6.1 0.9,0 1.7,0.6 1.7,1.4 0,0.8 1.8,3.00001 4.1,4.80001 8.6,7 19.800001,17 29.400001,26.2 5.5,5.3 10.4,9.6 10.9,9.6 0.5,0 1.9,1 3.1,2.2 1.2,1.3 3.7,3.4 5.4,4.8 1.8,1.4 5.1,4.3 7.5,6.5 5.8,5.500002 8.4,7.500002 9.6,7.500002 0.6,0 1,0.6 1,1.2 0,1.4 6,6.7 9.7,8.6 5.1,2.7 22.3,19.8 22.3,22.1 0,2.9 -4.2,0.2 -14.3,-9.2 -10.3,-9.5 -30.2,-26.900002 -41.1,-35.800002 -1,-0.8 -4.1,-3.4 -7,-5.9 -2.8,-2.5 -8.5,-7.4 -12.6,-10.9 -4.1,-3.5 -10.400001,-9.4 -14.000001,-13.1 -3.6,-3.7 -8.4,-8.1 -10.8,-9.8 -2.4,-1.7 -6.5,-5.1 -9,-7.60001 -12.1,-11.7 -17.9,-17 -20.2,-18.4 -1.4,-0.9 -5.2,-3.9 -8.5,-6.8 -8,-6.8 -9.1,-7.3999982 -12.6,-6 -1.6,0.6 -2.9,1.6 -2.9,2.3 0,0.7 -1.2,2.3 -2.7,3.7 -2.1,2 -2.4,2.8 -1.5,3.9 1,1.1 0.8,2 -0.9,4.1 -2.6,3.2 -1.9,5.4 2.6,8.5 1.9,1.3 3.7,3.2 4,4.2 0.4,1 1.1,1.9 1.6,1.9 1.6,0 1,6.30001 -0.8,8.30001 -1.7,1.8 -1.5,2.2 8.5,11.6 5.6,5.3 10.2,10 10.2,10.4 0,1.5 -9.2,-5.7 -12.7,-10.1 -2,-2.3 -3.9,-4.2 -4.4,-4.2 -0.4,0 -2.7,-1.8 -5,-4 -2.3,-2.2 -5.6,-4.8 -7.3,-5.8 -3.1,-1.9 -3.2,-1.8 -4.8,0.3 -1.9,2.5 -1.6,3 3.7,6.9 2.2,1.7 6.3,5.1 9,7.7 8.5,7.9 12.2,11.2 17.7,15.9 2.9,2.5 6.3,5.5 7.6,6.7 1.2,1.3 2.6,2.3 3.1,2.3 0.4,0 2.1,1.5 3.8,3.2 3.5,3.8 8.4,7.8 9.5,7.8 0.4,0 0.8,0.4 0.8,1 0,0.5 -0.7,1 -1.5,1 -1.3,0 -4,-2.2 -15,-11.8 -1.1,-1 -4.2,-3.6 -7,-5.7 -2.7,-2.2 -8,-6.9 -11.8,-10.5 -3.7,-3.6 -9.1,-8.4 -12,-10.8 -2.8,-2.3 -6.8,-5.6 -8.8,-7.2 -4.1,-3.3 -5.5000001,-3.6 -8.3000001,-1.5 -1.6,1.2 -1.7,1.7 -0.5,3.1 1.2,1.4 1,1.9 -1.5,4.1 -2,1.7 -3.00000001,3.5 -3.10000001,5.6 -0.1,3.3 1.90000001,6.7 4.00000001,6.7 0.7,0 3.5,2.4 6.2000001,5.2 2.8,2.9 10.6,10.5 17.3,16.8 6.8,6.300002 13.5,12.800002 14.9,14.300002 1.4,1.5 4.6,4.7 7,7 8.4,8.1 14.7,14.5 23.6,24.2 5,5.4 13,13.8 17.8,18.8 4.9,5 9.300001,9.9 9.800001,10.9 1,1.9 4.9,2.5 4.9,0.7 0,-0.5 -0.4,-0.8 -0.9,-0.5 -0.5,0.4 -0.7,-0.2 -0.4,-1.3 0.3,-1.2 -0.4,-2.5 -2.1,-3.8 -2.900006,-2.3 -4.900001,-8 -2.400006,-7.1 0.800006,0.4 2.000006,-0.2 2.600006,-1.3 1,-1.6 0.5,-2.5 -3.900001,-6.6 -2.8,-2.6 -5.5,-5 -6,-5.1 -1,-0.4 -1.2,-3.2 -0.2,-3.2 0.8,0 7.399995,4.9 8.800001,6.5 1.6,1.8 8.8,6.5 10.1,6.5 2.6,0 2.4,-4.4 -0.3,-7.2 -1.5,-1.6 -3.1,-2.8 -3.7,-2.8 -0.6,0 -2.6,-1.5 -4.6,-3.4 -10.600001,-10.3 -15.400001,-14.6 -16.200001,-14.6 -0.4,0 -0.8,-0.7 -0.8,-1.5 0,-0.8 -0.4,-1.5 -0.8,-1.5 -0.5,0 -2.8,-1.6 -5.1,-3.6 -5.6,-4.9 -4.1,-6.6 2.4,-2.8 2.6,1.5 5.7,3.7 6.9,4.8 1.2,1.2 3.3,2.8 4.6,3.6 1.3,0.8 3.5,2.7 4.9,4.2 1.399995,1.6 3.000001,2.8 3.500001,2.8 0.5,0 3.7,2.5 7.1,5.5 3.5,3 6.6,5.5 7,5.5 0.3,0 2.5,1.8 4.8,4 7.9,7.5 13.2,11.7 15.6,12.5 2,0.6 2.3,0.4 1.8,-0.9 -0.4,-0.9 -0.2,-1.6 0.3,-1.6 3.1,0 -3.3,-6.8 -11.9,-12.7 -0.2,-0.1 0,-1 0.4,-2 1.8,-4.3 1.1,-6.4 -3.5,-10.3 -2.5,-2.1 -6.3,-5.4 -8.4,-7.4 -2.2,-2 -4.4,-3.6 -4.8,-3.6 -0.4,0 -0.8,-0.7 -0.8,-1.5 0,-2.6 2.7,-1.4 8.4,3.8 2,1.9 5,3.7 6.4,4.1 1.5,0.3 5.1,2.8 8,5.6 2.9,2.7 5.6,5 6.1,5 0.4,0 2.1,1.1 3.7,2.5 1.6,1.4 3.4,2.5 4,2.5 0.9,0 3.4,-4 3.4,-5.4 0,-0.2 -3,-2.3 -6.7,-4.7 -3.8,-2.4 -7.7,-5.3 -8.8,-6.5 -1.1,-1.2 -6,-5.8 -11,-10.2 -4.9,-4.4 -12.2,-11 -16.2,-14.8 C 94.403599,88.427458 84.503599,79.627458 81.703599,77.827458 c -1.5,-0.9 -6,-5.1 -10.1,-9.3 -4,-4.2 -7.5,-7.6 -7.8,-7.6 -0.2,0 -1,-0.6 -1.7,-1.3 -0.7,-0.6 -3.4,-3.2 -6,-5.5 -2.6,-2.4 -4.5,-4.6 -4.2,-4.9 0.9,-0.9 7.3,3.7 19.1,13.9 6.1,5.2 13.3,11 16,12.8 6.3,4.3 23.600001,18.5 29.500001,24.300002 2.5,2.5 6,5.5 7.8,6.7 1.9,1.2 6.7,5.5 10.7,9.4 4,3.9 8.4,7.8 9.8,8.6 2.3,1.4 11.5,9.1 16.1,13.6 1.1,1.1 4.6,3.7 7.6,5.7 3,2 7.5,5.5 9.9,7.8 5.1,4.7 12,9.9 13.3,9.9 0.4,0 0.8,-0.6 0.8,-1.4 0,-2.5 2.9,-4.1 5.1,-2.8 1,0.7 2.5,1.2 3.3,1.2 0.7,0 2,0.7 2.7,1.6 1.9,2.3 26.8,22.4 28.5,23.1 0.8,0.3 1.4,-0.1 1.4,-1.1 0,-0.9 0.7,-1.9 1.5,-2.2 2.5,-1 1.7,-2.3 -2.9,-5.2 -5.6,-3.6 -10.9,-8.9 -10.1,-10.2 0.8,-1.2 4.5,-1.3 4.5,-0.1 0,0.5 1.7,2 3.8,3.2 5.2,3.3 5.2,3.3 5.2,1 0,-1.1 0.5,-2.3 1,-2.6 0.6,-0.3 1,-1 1,-1.5 0,-0.4 -5.1,-5 -11.2,-10.2 -12.2,-10.1 -32.8,-29.9 -32.8,-31.6 0,-2.3 2.1,-2.2 4.2,0.3 1.2,1.4 2.7,2.5 3.3,2.5 0.6,0 2.1,1.3 3.3,2.9 1.2,1.6 4.9,4.4 8.2,6.2 3.3,1.7 6,3.8 6,4.5 0,0.7 2.6,3.2 5.8,5.5 3.1,2.4 8.2,6.8 11.3,9.9 3,3.2 6.7,6.5 8.1,7.4 2.5,1.6 2.6,1.6 2.4,-0.1 0,-1.2 0.7,-1.9 2.2,-2.1 1.8,-0.3 2.2,-1 2.2,-4.1 0,-3.2 -0.8,-4.6 -5.4,-9.4 -2.9,-3.1 -5.6,-5.7 -6,-5.7 -0.3,0 -2.9,-2.4 -5.8,-5.3 -2.9,-2.8 -7.3,-6.9 -9.6,-9 -4.5,-3.9 -5,-6 -0.9,-3.8 1.2,0.7 4.5,3.3 7.2,5.7 2.8,2.5 6.2,5.3 7.8,6.2 1.5,0.9 2.9,2.3 3.2,3.2 0.3,0.8 2.5,2.9 4.8,4.7 2.3,1.8 5.6,4.5 7.2,6 1.7,1.6 4.8,4.3 7.1,6 2.3,1.8 6.3,5.5 9,8.2 l 4.9,5 1.7,-3 c 1.7,-2.8 1.7,-3 -0.7,-4.5 -2.2,-1.5 -8.8,-7.1 -11,-9.5 -0.5,-0.6 -4.3,-4.3 -8.4,-8.2 -4.1,-4 -10.6,-10.4 -14.6,-14.2 -4,-3.9 -9.7,-9.3 -12.8,-12 -5.1,-4.6 -7,-7.5 -4.9,-7.5 2.1,0 7.2,3.3 12.3,8 2.9,2.7 5.7,5 6.1,5 0.4,0 2.5,1.7 4.6,3.7 5.1,5.1 11.5,10.3 12.4,10.3 0.5,0 0.8,0.6 0.8,1.4 0,1.4 7.3,8.8 16,16.2 2.5,2.2 6,5.4 7.8,7.3 2.5,2.5 3.6,3.1 4.2,2.2 0.5,-0.9 1,-1 1.4,-0.2 0.4,0.6 0.2,1.1 -0.5,1.1 -1,0 -1,0.3 -0.1,1.2 0.9,0.9 1.6,0.7 3.1,-0.6 2.4,-2.1 2.2,-2.4 -7.4,-10.3 -3.3,-2.7 -9.2,-8.1 -13.1,-11.9 -17.4,-16.8 -23.1,-22.1 -25.6,-23.8 -1.6,-1 -2.8,-2.4 -2.8,-3.1 0,-0.6 -3,-3.8 -6.7,-7.1 -8.8,-7.8 -16.3,-15.600002 -16.3,-17.100002 0,-0.6 -1.8,-1.9 -4,-2.9 -2.6,-1.2 -4,-2.4 -4,-3.6 0,-2 -1.7,-3.8 -8.8,-9.8 -4.2,-3.5 -5.4,-6 -2.9,-6 0.7,0 2.2,1.2 3.4,2.7 1.1,1.6 4.9,4.5 8.5,6.6 3.6,2.1 7.8,5.1 9.3,6.8 1.6,1.6 3.4,2.9 4,2.9 0.6,0 1.8,1.1 2.5,2.5 0.7,1.4 2,2.5 2.7,2.5 0.7,0 1.6,0.7 1.9,1.5 0.3,0.8 1.5,1.7 2.7,2.1 1.1,0.3 4.2,2.800002 6.9,5.500002 2.7,2.7 6.3,5.6 8.1,6.6 3.5,1.8 11,7.4 11.5,8.5 0.2,0.5 1,0.8 1.8,0.8 0.8,0 1.9,1 2.5,2.3 0.5,1.2 2,3 3.2,4 1.2,1 4.5,3.5 7.2,5.8 6.7,5.4 11.5,6.4 11.5,2.4 0,-1.3 -12.1,-13.6 -14.1,-14.4 -1.8,-0.6 -6.2,-5.1 -5.7,-5.7 1,-0.9 7.4,2.3 8.9,4.3 0.8,1.1 2.6,2.6 4.1,3.4 1.5,0.8 6.4,4.3 11,7.8 4.5,3.5 8.9,6.4 9.6,6.4 0.8,0 1.8,1 2.2,2.3 0.5,1.2 3.4,4.1 6.5,6.5 3.1,2.4 6.6,5.2 7.7,6.1 2.7,2.3 3,2.2 4.6,-0.2 1.1,-1.9 0.8,-2.6 -2.7,-6.8 -3.6,-4.1 -3.9,-4.8 -2.6,-6.2 3.2,-3.5 1.9,-6.1 -6.5,-12.8 -2.1,-1.7 -2.2,-2.2 -1.1,-3.6 1.9,-2.3 4.7,-2 6.8,0.8 2.9,3.6 5.7,4.1 7.1,1.2 1,-2.3 0.5,-2.9 -7.1,-9.6 -10.6,-9.3 -36.7,-35.000002 -36.7,-36.100002 0,-2 4.4,-0.5 16.5,5.6 7,3.6 13.3,6.5 14.1,6.5 1.2,0 12.5,7.8 16.4,11.300002 0.8,0.7 4.8,4 8.9,7.3 4.1,3.2 8.6,6.9 10,8.1 3.4,2.9 4.5,2.8 6.5,-0.2 0.9,-1.4 1.2,-2.5 0.6,-2.5 -0.5,0 -1,-0.6 -1,-1.4 0,-0.8 -2,-3.2 -4.5,-5.4 -2.5,-2.2 -4.5,-4.5 -4.5,-5.1 0,-2.600002 3.7,-0.7 10.9,5.7 4.2,3.7 8.9,7.9 10.5,9.3 1.6,1.3 5,4.3 7.6,6.6 4.9,4.5 7,5.3 7,2.9 0,-0.8 0.5,-1.6 1.1,-1.8 0.9,-0.3 -1.9,-3.4 -11,-12.3 -2.8,-2.8 -10.1,-10.9 -10.1,-11.3 0,-0.300002 -2,-2.500002 -4.5,-5.000002 -2.5,-2.4 -4.5,-4.8 -4.5,-5.1 0,-0.4 -1.6,-2.3 -3.5,-4.3 -2.1,-2.1 -3.1,-3.9 -2.5,-4.3 0.5,-0.3 1.7,0.1 2.6,0.9 0.8,0.9 2,1.6 2.6,1.6 0.6,0 3.4,2.1 6.2,4.6 9.3,8.5 10.4,9.4 11.3,9.4 0.5,0 2.7,1.7 4.9,3.700002 7.3,6.8 12.8,11.2 16.4,13 1.9,1 3.8,2.2 4.3,2.8 0.4,0.6 1.3,0.2 2.3,-1 1.4,-1.8 1.3,-2.1 -0.5,-3.4 -1.2,-0.7 -2.1,-1.9 -2.1,-2.5 0,-0.7 -1.2,-2.3 -2.6,-3.7 -1.4,-1.3 -3.5,-4.1 -4.5,-6.2 -1.1,-2.000002 -2.3,-3.700002 -2.8,-3.700002 -0.5,0 -3,-2.9 -5.5,-6.4 -2.5,-3.6 -5.7,-7.3 -7.1,-8.4 -1.4,-1.1 -2.5,-2.4 -2.5,-2.9 0,-0.5 -2.7,-3.5 -6.1,-6.8 -6.5,-6.4 -12.9,-14.6 -12.9,-16.4 0,-1.3 5.2,-1.5 6.6,-0.2 1.1,1.1 12.7,5.1 14.8,5.1 0.8,0 1.9,0.6 2.3,1.4 9.9,0.6 9.9,0.6 9.9,0.6 -0.9,0 -1.6,-0.3 -1.6,-0.8 0,-0.7 -4.2,-2.8 -16,-7.7 -3.6,-1.5 -7.8,-3.2 -9.5,-3.9 -7.2,-3.1 -12.2,-3.9 -15.4,-2.5 -1.7,0.8 -3.1,1.8 -3.1,2.2 0,0.5 1.6,2.4 3.5,4.3 1.9,1.8 3.5,3.8 3.5,4.4 0,1.2 3.2,4.8 12.8,14.5 3.4,3.4 6.2,6.6 6.2,6.9 0,0.4 1.6,2.3 3.5,4.3 1.9,1.9 3.7,4.4 4.1,5.5 1,3.2 -0.9,4 -3.6,1.5 -1.4,-1.2 -4.3,-3.6 -6.5,-5.2 -2.2,-1.7 -7.5,-6 -11.8,-9.7 -4.2,-3.8 -8,-6.8 -8.5,-6.8 -0.4,0 -3.2,-2.3 -6.2,-5 -3,-2.8 -8.6,-7.9 -12.4,-11.3 -3.8,-3.4 -8.6,-7.9 -10.7,-10.00001 -4.3,-4.2 -5,-4.4 -7.2,-1.9 -1.5,1.6 -1.1,2.30001 6.1,10.20001 4.2,4.6 10.1,10.8 13,13.6 2.8,2.9 5.2,5.6 5.2,6 0,0.4 1.6,2.2 3.5,4.1 3.6,3.5 4.5,6.3 2.1,6.3 -0.8,0 -2.7,-1.5 -4.2,-3.3 -1.6,-1.9 -3.8,-4.5 -5,-5.8 -1.1,-1.3 -7.3,-7.5 -13.7,-13.7 -6.4,-6.2 -11.7,-11.6 -11.7,-12.1 0,-0.4 -3.2,-3.80001 -7.1,-7.50001 -6.5,-6.1 -9.9,-8 -9.9,-5.6 0,0.5 -0.7,1 -1.5,1 -2.4,0 -1.7,1.3 2.5,4.5 2.1,1.6 6.2,5.80001 9.1,9.30001 2.8,3.4 6.3,7.2 7.8,8.3 7.3,5.8 35.5,34.8 34.6,35.7 -0.3,0.3 0.1,1.2 0.9,2.1 2,2.3 3,6.100002 1.6,6.100002 -1.5,0 -9.3,-6.200002 -14.5,-11.400002 -2.2,-2.3 -6.3,-6.1 -9,-8.6 -4.6,-4.1 -9,-9 -13.3,-14.8 -7.4,-10.1 -22,-25.20001 -24.3,-25.20001 -0.9,0 -2.2,0.7 -2.9,1.5 -1.4,1.70001 2.1,6.40001 14,18.90001 4.1,4.3 8.1,8.5 8.9,9.3 0.9,0.9 1,1.8 0.4,2.4 -0.7,0.7 -3,0.1 -6.8,-1.5 -3.2,-1.5 -6.3,-2.6 -7,-2.6 -0.6,0 -2,-0.9 -3,-2 -1,-1.1 -2.3,-2 -2.9,-2 -1.4,0 -11.4,-7.5 -18.1,-13.5 -8.6,-7.70001 -12.9,-11.20001 -16.4,-13.30001 -3.4,-2.1 -3.5,-2.1 -5.9,-0.1 -2.5,1.9 -5.2,2.5 -5.2,1.1 0,-1.3 -9.2,-10.7 -17.1,-17.5 -6.6,-5.7 -8.1,-6.5 -11.7,-6.5 -2.9,-0.1 -4.2,0.3 -4.2,1.3 0,0.8 -0.7,1.8 -1.7,2.3 -1.4,0.8 -1.2,1.2 1.3,2.8 3.4,2.1 32.4,31.30001 32.4,32.60001 0,1.9 -2.4,0.5 -7.4,-4.5 -7.9,-7.70001 -15,-13.60001 -21.2,-17.50001 -5.1,-3.2 -5.6,-3.3 -7.3,-1.8 -2.6,2.3 -7.4,2 -9.1,-0.6 -2.5,-3.7 -14.2,-14.6 -19.8,-18.5 l -5.2,-3.5999986 -2.1,2.2 c -2,2.1999986 -2,2.2999986 -0.3,3.5999986 1.1,0.8 2.2,1.5 2.6,1.5 0.3,0 4.8,4.2 10,9.2 15,14.7 26.2,24.80001 27.6,24.80001 0.4,0 4.3,3.7 8.8,8.2 4.4,4.6 9.8,9.6 11.9,11.3 5.3,4.1 25.5,23.9 25.5,25 0,0.5 0.7,1.7 1.7,2.7 0.9,1 1.3,2.1 1,2.4 -1.1,1.1 -6.4,-1.9 -8.3,-4.7 -1,-1.5 -3.2,-3.5 -4.8,-4.5 -1.7,-0.9 -4.5,-2.9 -6.2,-4.3 -1.7,-1.4 -4.7,-4 -6.8,-5.6 -2,-1.7 -5.1,-4.2 -6.9,-5.8 -1.7,-1.5 -6.5,-5.3 -10.6,-8.5 -4.1,-3.1 -8.7,-6.8 -10.1,-8.2 -5.2,-4.9 -15.6,-13.80001 -20.3,-17.40001 -5,-3.8 -8.5,-6.8 -15.1,-12.9 -2.3,-2.1 -6,-4.9 -8.4,-6.3 l -4.2,-2.5 -2.7,2 c -2.3,1.9 -1.9,2.7 1,2.2 0.4,0 0.7,0.5 0.7,1.2 0,0.6 2.2,2.8 4.8,4.7 2.6,1.9 7.9,6.6 11.8,10.5 3.8,3.8 8.9,8.70001 11.2,10.70001 2.3,2.1 4.2,4.2 4.2,4.7 0,1.4 6.9,7.1 8.8,7.2 0.9,0 1.2,0.3 0.5,0.5 -1.3,0.6 -0.6,3.4 0.7,3.4 0.5,0 4.5,3.6 8.9,8 4.4,4.4 8.4,8 9,8 0.7,0 4.5,5.2 5.9,8.2 1.1,2.3 -3,0.3 -6,-3 -1.9,-2 -4.8,-4.8 -6.4,-6.1 -1.6,-1.3 -4.3,-3.6 -6,-5 -1.6,-1.4 -4.5,-3.7 -6.4,-5.1 -4.6,-3.4 -9.3,-7.6 -21.9,-20 -22.1,-21.70001 -40.7,-39.3000082 -43.1,-40.8000086 -1.4,-0.9 -4.1,-2.9 -6,-4.6 -2.5,-2.1 -3.5,-2.5 -3.8,-1.5 -0.3,0.8 -1.2,2.3 -2.1,3.3 -1.5,1.8 -1.5,1.9 0.1,1.3 1,-0.3 1.7,-0.3 1.5,0.2 -0.1,0.4 3.2,3.5999986 7.3,7.1999986 4.1,3.5 9.5,8.5 12,11.1 2.5,2.7 5.1,4.8 5.7,4.8 0.5,0 4.4,3.6 8.6,8 4.1,4.4 7.7,8.00001 8.1,8.00001 0.3,0 3.1,2.5 6.3,5.5 3.2,3.1 7.4,7 9.3,8.7 1.9,1.8 4.2,4.2 5,5.3 0.8,1.2 7.1,7.5 14,14 6.9,6.5 12.7,12.2 12.8,12.7 0.5,1.3 -2.8,1 -4.3,-0.5 -8.7,-7.9 -12.1,-11 -17.5,-15.7 -3.5,-3 -9.9,-8.8 -14.2,-12.9 -4.3,-4.1 -8.9,-8.2 -10.2,-9.1 -1.4,-0.8 -3.4,-2.7 -4.6,-4 -7.8,-9.20001 -30.7,-30.40001 -34.7,-32.30001 -1.7,-0.8 -2.7,-0.7 -3.5,0.1 -2.7,2.7 -9.400006,0.5 -13.300001,-4.4 l -2.2,-2.7 -2.6,1.9 c -3.1,2.3 -3.3,3.1 -0.9,3.8 0.9,0.3 7.8,6.5 15.100001,13.6 7.4,7.2 14,13.40001 14.7,13.80001 0.8,0.4 6.1,5.4 11.8,11 5.8,5.6 10.7,10.2 11,10.2 0.3,0 2.2,1.8 4.2,4 2,2.2 4.2,4 4.9,4 0.8,0 3.3,2.2 5.7,4.9 2.4,2.7 5.9,6.1 8,7.4 4,2.8 4.2,2.9 15.1,12.9 4.2,3.900002 7.7,7.700002 7.7,8.400002 0,0.8 0.4,1.4 0.9,1.4 0.5,0 1.2,0.7 1.5,1.6 1.1,2.9 -4.8,-1.4 -14.1,-10.4 -2.5,-2.300002 -4.8,-4.200002 -5.1,-4.200002 -0.4,0 -3.7,-2.9 -7.4,-6.4 -3.7,-3.5 -8.1,-6.9 -9.8,-7.6 -1.6,-0.7 -3,-1.6 -3,-2 0,-0.7 -9.8,-10.4 -22.8,-22.6 -3.5,-3.2 -8.9,-8.4 -12.1,-11.4 -14.8,-14.20001 -21.900001,-20.60001 -24.400001,-21.90001 -2.5,-1.3 -2.8,-1.2 -4.8,1 l -2,2.4 2.3,1.8 c 9.8,7.5 16.900001,13.6 18.400001,16.00001 1.1,1.6 4.2,4.6 6.9,6.9 2.8,2.2 7,5.9 9.5,8.2 2.5,2.3 5.3,4.5 6.3,4.9 0.9,0.3 1.7,1.2 1.7,1.8 0,0.7 3.5,4.5 7.8,8.5 8.6,8 15.7,16.2 14.9,17.1 -0.8,0.7 -8.8,-5.8 -16.9,-13.6 -11.4,-11.2 -14.1,-13.7 -19.3,-17.9 -2.7,-2.2 -7.2,-6.1 -10,-8.6 -2.7,-2.5 -9.000001,-8.3 -14.000001,-12.80001 -4.9,-4.6 -12.6,-11.9 -17.1,-16.3 -12,-11.9 -15.9,-15.4999986 -16.7,-15.4999986 -0.4,0 -2.3,-1.6 -4.3,-3.5 -3.8,-3.80000002 -5.4,-4.40000002 -5.4,-2 z M 113.0036,26.927448 c 1.6,1.6 2.5,3 2.1,3 -1.2,0 -8.6,-4.5 -8.6,-5.3 0,-1.8 3.9,-0.4 6.5,2.3 z m -69.500001,12 c 0,0.5 -0.2,1 -0.4,1 -0.3,0 -0.8,-0.5 -1.1,-1 -0.3,-0.6 -0.1,-1 0.4,-1 0.6,0 1.1,0.4 1.1,1 z M 217.7036,56.127458 c 3.9,3.5 9.2,8.5 11.7,11.1 2.5,2.7 6.9,6.3 9.6,8.2 2.8,1.9 6.1,4.4 7.4,5.6 1.2,1.2 5.7,5 10,8.5 9.6,8.1 14.1,12.600002 14.1,14.100002 0,2.6 -2.7,1 -8.9,-5.200002 -3.6,-3.6 -6.9,-6.5 -7.3,-6.5 -0.5,0 -2.4,-1.5 -4.2,-3.3 -5.4,-5.3 -13.9,-13 -17.1,-15.5 -10.6,-8.2 -26,-23.2 -24,-23.2 0.9,0 4.8,2.8 8.7,6.2 z m -165.700001,2.8 c 0.8,1.3 -0.5,1.3 -2.5,0 -1.3,-0.8 -1.3,-1 0.2,-1 0.9,0 2,0.4 2.3,1 z m 197.400001,12.1 c 3.1,2.8 7.9,7 10.6,9.4 12.3,10.7 14.5,12.8 14.5,14.1 0,2.4 -2.3,1.5 -6,-2.2 -1.9,-1.9 -7.3,-6.8 -11.9,-10.7 -11.4,-9.7 -15.1,-13.3 -15.1,-14.6 0,-2.2 2.4,-1 7.9,4 z m -193.900001,5.8 c 0,0.5 -0.7,1.1 -1.5,1.5 -1.5,0.5 -2,-0.5 -0.8,-1.7 0.9,-1 2.3,-0.9 2.3,0.2 z m -33.6,4.6 c -0.4,0.8 -1.1,1.2 -1.6,0.9 -0.6,-0.4 -0.5,-1 0.3,-1.5 1.9,-1.2 1.9,-1.1 1.3,0.6 z m 68.3,8.7 c -0.3,0.8 -0.6,0.5 -0.6,-0.6 -0.1,-1.1 0.2,-1.7 0.5,-1.3 0.3,0.3 0.4,1.2 0.1,1.9 z m 252.300001,-1.2 c 0,0.5 -0.2,1 -0.4,1 -0.3,0 -0.8,-0.5 -1.1,-1 -0.3,-0.6 -0.1,-1 0.4,-1 0.6,0 1.1,0.4 1.1,1 z M 91.503599,103.92746 c 0,0.5 -0.7,0.7 -1.5,0.4 -0.8,-0.4 -1.5,-0.8 -1.5,-1 0,-0.2 0.7,-0.4 1.5,-0.4 0.8,0 1.5,0.4 1.5,1 z m -24,3 c 0,0.5 -0.5,1 -1.1,1 -0.5,0 -0.7,-0.5 -0.4,-1 0.3,-0.6 0.8,-1 1.1,-1 0.2,0 0.4,0.4 0.4,1 z m 198.600001,3.8 c -2.2,0.5 -3,-0.3 -2.1,-1.8 0.5,-0.8 1.1,-0.7 2.2,0.2 1.5,1.2 1.4,1.3 -0.1,1.6 z m -119.1,12.2 c 0.3,0.5 0.2,1 -0.4,1 -0.5,0 -1.3,-0.5 -1.6,-1 -0.3,-0.6 -0.2,-1 0.4,-1 0.5,0 1.3,0.4 1.6,1 z m 82.2,13.2 c -0.3,0.8 -0.6,0.5 -0.6,-0.6 -0.1,-1.1 0.2,-1.7 0.5,-1.3 0.3,0.3 0.4,1.2 0.1,1.9 z"
     id="path66"
     style="fill:#008080;stroke:none;stroke-width:0.1;opacity:0.33173848"
     sodipodi:nodetypes="scssssccssccscccsscscccsssccccscccccsccscssccccccscssscccccssccsccsccccscccccccscscscssscccscscscccsccccsscccsssscsccccsccsccccsccscsscsccscccscscscscsscscccccscsccccccsccccccccccscscssccccssccccscscscscscsssscsccscscscccscscscccccccccscsccccsssscccsscscscccscscccccsccscsscscsccscccscscscccccscsccccscsccsscsssccscscccsccsscssscccsccsccsccccccccscsccscsccsccccccccccssscsccsssccscccccccccccscscccscccscccscccccccssssccssccsscsccscccccscssccccccscscsscsscsscccccsssccscccscccsscscsccsccccccccsscssscssssscsscccccscsccccc" />
</svg>
