<?xml version="1.0" encoding="UTF-8" standalone="no"?>
<svg
   xmlns:dc="http://purl.org/dc/elements/1.1/"
   xmlns:cc="http://creativecommons.org/ns#"
   xmlns:rdf="http://www.w3.org/1999/02/22-rdf-syntax-ns#"
   xmlns:svg="http://www.w3.org/2000/svg"
   xmlns="http://www.w3.org/2000/svg"
   xmlns:sodipodi="http://sodipodi.sourceforge.net/DTD/sodipodi-0.dtd"
   xmlns:inkscape="http://www.inkscape.org/namespaces/inkscape"
   width="173.02348mm"
   height="116.22142mm"
   viewBox="0 0 173.02348 116.22142"
   version="1.1"
   id="svg8"
   inkscape:version="1.0.2 (e86c870879, 2021-01-15)"
   sodipodi:docname="logo.svg">
  <defs
     id="defs2">
    <inkscape:path-effect
       effect="skeletal"
       id="path-effect851"
       is_visible="true"
       lpeversion="1"
       pattern="m 59.495033,32.203543 c 0,-1.555783 1.176843,-2.818447 2.626881,-2.818447 1.450038,0 2.62688,1.262664 2.62688,2.818447 0,1.555783 -1.176842,2.818448 -2.62688,2.818448 -1.450038,0 -2.626881,-1.262665 -2.626881,-2.818448 z"
       copytype="single_stretched"
       prop_scale="-0.689144"
       scale_y_rel="false"
       spacing="0"
       normal_offset="0"
       tang_offset="0"
       prop_units="false"
       vertical_pattern="false"
       hide_knot="false"
       fuse_tolerance="0" />
    <inkscape:path-effect
       effect="spiro"
       id="path-effect849"
       is_visible="true"
       lpeversion="1" />
    <inkscape:path-effect
       effect="powerstroke"
       id="path-effect845"
       is_visible="true"
       lpeversion="1"
       offset_points="0,0.1322915"
       sort_points="true"
       interpolator_type="CubicBezierJohan"
       interpolator_beta="0.2"
       start_linecap_type="zerowidth"
       linejoin_type="extrp_arc"
       miter_limit="4"
       scale_width="1"
       end_linecap_type="zerowidth" />
    <inkscape:path-effect
       effect="spiro"
       id="path-effect843"
       is_visible="true"
       lpeversion="1" />
    <inkscape:path-effect
       effect="skeletal"
       id="path-effect839"
       is_visible="true"
       lpeversion="1"
       pattern="m 21.96854,14.762416 c 0,-2.416444 1.961171,-4.377615 4.377615,-4.377615 2.416443,0 4.377614,1.961171 4.377614,4.377615 0,2.416443 -1.961171,4.377614 -4.377614,4.377614 -2.416444,0 -4.377615,-1.961171 -4.377615,-4.377614 z"
       copytype="single_stretched"
       prop_scale="-0.689144"
       scale_y_rel="false"
       spacing="0"
       normal_offset="0"
       tang_offset="0"
       prop_units="false"
       vertical_pattern="false"
       hide_knot="false"
       fuse_tolerance="0" />
    <inkscape:path-effect
       effect="bspline"
       id="path-effect837"
       is_visible="true"
       lpeversion="1"
       weight="33.333333"
       steps="2"
       helper_size="0"
       apply_no_weight="true"
       apply_with_weight="true"
       only_selected="false" />
  </defs>
  <sodipodi:namedview
     id="base"
     pagecolor="#ffffff"
     bordercolor="#666666"
     borderopacity="1.0"
     inkscape:pageopacity="0.0"
     inkscape:pageshadow="2"
     inkscape:zoom="0.54868361"
     inkscape:cx="659.44189"
     inkscape:cy="318.80156"
     inkscape:document-units="mm"
     inkscape:current-layer="layer1"
     inkscape:document-rotation="0"
     showgrid="false"
     showguides="true"
     inkscape:guide-bbox="true"
     inkscape:object-nodes="false"
     inkscape:window-width="1366"
     inkscape:window-height="768"
     inkscape:window-x="0"
     inkscape:window-y="27"
     inkscape:window-maximized="0" />
  <metadata
     id="metadata5">
    <rdf:RDF>
      <cc:Work
         rdf:about="">
        <dc:format>image/svg+xml</dc:format>
        <dc:type
           rdf:resource="http://purl.org/dc/dcmitype/StillImage" />
        <dc:title />
      </cc:Work>
    </rdf:RDF>
  </metadata>
  <g
     inkscape:label="Layer 1"
     inkscape:groupmode="layer"
     id="layer1"
     transform="translate(-51.78593,-25.362402)">
    <g
       id="g843"
       style="fill:#214ed3;fill-opacity:1">
      <path
         style="fill:#214ed3;stroke:none;stroke-width:0.264583px;stroke-linecap:butt;stroke-linejoin:miter;stroke-opacity:1;fill-opacity:1"
         d="m 51.78593,72.814953 c 0,0.729329 10.892874,0.638711 28.44411,2.674198 6.341219,0.760488 14.890917,1.856849 21.64685,5.586838 4.58033,2.451654 8.5057,6.653392 11.27822,11.930012 -10e-6,10e-7 0,7e-6 0,7e-6 2.53914,4.825046 4.06172,10.177132 5.72386,16.189302 1.34884,4.93681 2.77085,10.46156 4.41995,15.73596 1.11197,3.68 2.42659,7.83015 4.95114,11.64238 1.40713,2.34858 3.97714,4.4606 7.54494,5.00133 1.2149,0.0495 2.36513,-0.11068 3.42269,-0.43644 1.50438,-0.46341 2.8112,-1.2587 3.8442,-2.24614 4.83479,-4.63235 6.36167,-10.89279 7.53882,-15.831 2.45915,-8.98351 3.98881,-16.58865 7.2205,-24.02728 0,0 1e-5,-7e-6 1e-5,-7e-6 2.91912,-6.730968 6.92596,-12.439759 11.79481,-16.668361 2.11427,-1.838396 4.37908,-3.296259 6.75313,-4.245479 3.32912,-1.364068 7.08667,-1.981661 10.53671,-2.438422 0,0 1e-5,0 1e-5,0 22.99036,-2.970306 37.90354,-2.296616 37.90354,-3.147635 0,-0.85102 -14.55382,-3.092035 -38.35493,-1.166291 0,0 -1e-5,0 -1e-5,0 -3.61041,0.281904 -7.73972,0.810388 -11.7961,2.256149 -2.98025,1.088088 -5.78924,2.741372 -8.33714,4.840293 -5.6484,4.653444 -10.32895,10.912045 -13.65244,18.290011 0,10e-7 0,9e-6 0,9e-6 -3.62189,8.051823 -5.3851,15.996843 -7.81526,24.720063 -1.58412,5.06076 -2.58288,10.38421 -5.79875,12.90978 -0.57584,0.44262 -1.17628,0.83873 -1.7194,1.05107 -0.38207,0.14936 -0.73441,0.20728 -1.03059,0.12863 -0.90119,0.16105 -2.00049,-1.07012 -3.07862,-2.37528 -1.93867,-2.7492 -3.03568,-6.38908 -4.25547,-10.05719 -1.62313,-5.03794 -3.10849,-10.54485 -4.54305,-15.49788 -1.72988,-6.0394 -3.53427,-11.779962 -6.49493,-17.1939 -1e-5,-2e-6 -1e-5,-5e-6 -1e-5,-7e-6 -3.3307,-6.085557 -8.1748,-10.869263 -13.80199,-13.710397 C 96.050292,72.768295 87.064441,72.003694 80.558331,71.662675 62.480283,70.64136 51.78593,72.085624 51.78593,72.814953 Z"
         id="path835"
         inkscape:original-d="m 51.78593,72.814953 c 19.738763,2.31e-4 39.477293,2.31e-4 59.2156,0 3.743,12.175316 7.48564,24.349913 11.2281,36.524517 2.59015,10.32446 5.17996,20.64828 7.76958,30.97206 4.06765,-0.53676 8.13491,-1.07373 12.20202,-1.61094 1.78164,-4.6614 3.56299,-9.32284 5.34412,-13.9846 2.14524,-9.55772 4.29016,-19.11528 6.43489,-28.673268 4.67479,-5.854658 9.34915,-11.709314 14.02338,-17.56432 4.60463,-1.981204 9.20884,-3.962558 13.8129,-5.944186 14.33149,2.65e-4 28.66192,2.65e-4 42.99289,0"
         inkscape:path-effect="#path-effect837;#path-effect839"
         sodipodi:nodetypes="cccccccccc" />
      <path
         style="fill:#214ed3;stroke:none;stroke-width:0.264583px;stroke-linecap:butt;stroke-linejoin:miter;stroke-opacity:1;fill-opacity:1"
         d="m 125.87765,32.217613 c 0.17718,-0.323227 -5.23911,-5.502667 -15.9011,-3.555373 -2.5337,0.467798 -5.30782,1.487128 -7.86565,3.311663 -2.212001,1.578685 -4.249974,3.774838 -5.652069,6.557879 -1.24751,2.480584 -1.956149,5.420225 -1.786563,8.501644 0.158279,2.841093 1.085425,5.769901 2.865599,8.307355 1.765789,2.49696 4.300153,4.524229 7.271693,5.759345 2.81274,1.16777 5.94908,1.644266 9.10384,1.38709 5.92386,-0.510665 11.58112,-3.418049 16.05034,-7.796993 3.62887,-3.54478 6.33234,-7.627865 9.14018,-11.773338 2.76849,-3.977073 5.69859,-8.128903 9.44908,-10.702951 0.69901,-0.479746 1.42506,-0.90432 2.18337,-1.265244 3.52461,-1.760595 7.68908,-2.148558 11.41565,-1.257743 3.883,0.921153 7.36873,3.239524 9.78017,6.23762 2.7585,3.45833 4.16701,7.915005 3.63796,11.960142 -0.26656,2.133354 -1.02266,4.173652 -2.17985,5.867514 -1.20461,1.766176 -2.84461,3.187789 -4.67191,4.064784 -2.96158,1.465132 -6.5277,1.467986 -9.60889,0.696215 -3.42097,-0.861499 -6.50568,-2.776457 -9.0726,-4.80797 0,0 0,-4e-6 0,-4e-6 -4.16412,-3.302558 -8.56127,-8.543124 -11.24409,-11.45498 -7.01995,-7.669579 -12.73773,-10.360338 -12.91516,-10.036656 -0.17743,0.323682 4.86536,3.435129 11.39287,11.359192 2.51986,3.079573 6.60346,8.442123 11.02207,12.241377 1e-5,0 1e-5,4e-6 1e-5,4e-6 2.67255,2.302155 6.03089,4.508114 10.00869,5.66372 3.61676,1.054277 7.90365,1.116133 11.82986,-0.64234 2.39658,-1.099884 4.52829,-2.862459 6.10836,-5.103211 1.51387,-2.149531 2.514,-4.689866 2.88403,-7.378552 0.68039,-5.116344 -0.89875,-10.540371 -4.2541,-14.766234 -2.88937,-3.664247 -7.04377,-6.46593 -11.81285,-7.638556 -4.59156,-1.122152 -9.63662,-0.660775 -14.04682,1.517198 -0.92254,0.47339 -1.79967,1.004082 -2.63633,1.583443 -4.49955,3.115814 -7.74461,7.590925 -10.4568,11.703972 -2.83729,4.187305 -5.33466,8.078698 -8.57376,11.254096 -3.96321,3.87202 -8.80251,6.518823 -13.73639,6.95464 -2.6218,0.246378 -5.22668,-0.08872 -7.52049,-1.000558 -2.41535,-0.958665 -4.51584,-2.544127 -5.95038,-4.494419 -1.462627,-1.968809 -2.283072,-4.337586 -2.481238,-6.644451 -0.217385,-2.507068 0.295797,-4.988817 1.266847,-7.107325 1.089891,-2.382928 2.773341,-4.348458 4.634891,-5.808001 2.1544,-1.690051 4.5829,-2.725161 6.84069,-3.279638 9.48736,-2.35173 15.30366,1.90887 15.48084,1.585644 z"
         id="path847"
         inkscape:path-effect="#path-effect849;#path-effect851"
         inkscape:original-d="m 125.87765,32.217613 c -7.76251,-7.51552 -18.79161,4.60554 -28.18762,6.908082 -9.39601,2.302547 0.764612,10.187074 1.146713,15.280386 0.3821,5.093312 19.877847,-0.703258 29.816567,-1.055108 9.93871,-0.351855 5.90478,-7.675663 8.85697,-11.513718 2.95217,-3.838054 8.242,-8.418386 12.36279,-12.627805 4.1208,-4.209419 15.6853,3.70056 23.52774,5.550611 7.84243,1.850057 -2.65056,16.380297 -3.97604,24.570225 -1.32549,8.189923 -13.50654,-3.044227 -20.26002,-4.566567 -6.75348,-1.522333 -15.5246,-15.030587 -23.2871,-22.546106 z"
         sodipodi:nodetypes="ssssssssss" />
    </g>
  </g>
</svg>
