<?xml version="1.0" encoding="UTF-8" standalone="no"?>
<svg
   xmlns:dc="http://purl.org/dc/elements/1.1/"
   xmlns:cc="http://creativecommons.org/ns#"
   xmlns:rdf="http://www.w3.org/1999/02/22-rdf-syntax-ns#"
   xmlns:svg="http://www.w3.org/2000/svg"
   xmlns="http://www.w3.org/2000/svg"
   xmlns:sodipodi="http://sodipodi.sourceforge.net/DTD/sodipodi-0.dtd"
   xmlns:inkscape="http://www.inkscape.org/namespaces/inkscape"
   version="1.0"
   width="719.91425pt"
   height="297.03226pt"
   viewBox="0 0 719.91424 297.03226"
   preserveAspectRatio="xMidYMid meet"
   id="svg1035"
   sodipodi:docname="nav.svg"
   inkscape:version="1.0.2 (e86c870879, 2021-01-15)">
  <metadata
     id="metadata1041">
    <rdf:RDF>
      <cc:Work
         rdf:about="">
        <dc:format>image/svg+xml</dc:format>
        <dc:type
           rdf:resource="http://purl.org/dc/dcmitype/StillImage" />
        <dc:title />
      </cc:Work>
    </rdf:RDF>
  </metadata>
  <defs
     id="defs1039" />
  <sodipodi:namedview
     pagecolor="#ffffff"
     bordercolor="#666666"
     borderopacity="1"
     objecttolerance="10"
     gridtolerance="10"
     guidetolerance="10"
     inkscape:pageopacity="0"
     inkscape:pageshadow="2"
     inkscape:window-width="1366"
     inkscape:window-height="741"
     id="namedview1037"
     showgrid="false"
     inkscape:zoom="0.32000001"
     inkscape:cx="776.88602"
     inkscape:cy="-207.29334"
     inkscape:window-x="0"
     inkscape:window-y="27"
     inkscape:window-maximized="1"
     inkscape:current-layer="svg1035"
     inkscape:document-rotation="0" />
  <g
     transform="matrix(0.04969358,0.08677874,-0.08677874,0.04969358,531.13058,-288.49901)"
     fill="#000000"
     stroke="none"
     id="g847"
     style="fill:#333333">
    <path
       d="m 3100,5130 c -56,0 -132,56 -318,235 -89,85 -195,179 -236,210 -446,330 -1311,767 -1663,840 -94,20 -186,14 -320,-21 C 324,6332 85,6183 34,6062 -5,5973 9,5809 65,5694 c 65,-134 200,-236 760,-574 286,-173 421,-258 1030,-652 560,-361 875,-553 1070,-651 104,-52 188,-114 209,-156 18,-34 22,-154 36,-1046 15,-926 35,-1148 108,-1202 57,-42 64,-146 36,-498 -24,-287 -11,-361 68,-403 18,-9 47,-31 65,-49 32,-30 33,-34 31,-105 -2,-98 21,-150 109,-237 75,-74 140,-111 197,-111 78,0 119,56 166,230 17,63 45,155 61,205 29,82 30,94 20,140 -14,63 -46,112 -124,192 -34,34 -58,66 -53,70 4,4 46,-3 94,-15 48,-12 99,-22 114,-22 41,0 78,21 84,46 8,30 -24,82 -66,109 -49,32 -64,63 -61,125 8,161 1,183 -93,288 -31,34 -56,67 -56,73 0,12 44,29 78,29 62,0 196,192 251,359 51,156 47,239 -14,286 -40,30 -38,45 6,45 41,0 66,15 86,53 16,29 18,60 15,314 -3,231 -1,293 12,343 74.882,1959.0257 -76.0943,1681.211 -1204,2250 z"
       id="path845"
       style="fill:#333333"
       sodipodi:nodetypes="ccccccccccccccccccscccccssccccssccscccc" />
  </g>
</svg>
