<?xml version="1.0" encoding="UTF-8" standalone="no"?>
<svg
   xmlns:dc="http://purl.org/dc/elements/1.1/"
   xmlns:cc="http://creativecommons.org/ns#"
   xmlns:rdf="http://www.w3.org/1999/02/22-rdf-syntax-ns#"
   xmlns:svg="http://www.w3.org/2000/svg"
   xmlns="http://www.w3.org/2000/svg"
   xmlns:sodipodi="http://sodipodi.sourceforge.net/DTD/sodipodi-0.dtd"
   xmlns:inkscape="http://www.inkscape.org/namespaces/inkscape"
   version="1.0"
   width="6505.3843pt"
   height="835.75549pt"
   viewBox="0 0 6505.3842 835.7555"
   preserveAspectRatio="xMidYMid meet"
   id="svg1035"
   sodipodi:docname="crosses.svg"
   inkscape:version="1.0.2 (e86c870879, 2021-01-15)">
  <metadata
     id="metadata1041">
    <rdf:RDF>
      <cc:Work
         rdf:about="">
        <dc:format>image/svg+xml</dc:format>
        <dc:type
           rdf:resource="http://purl.org/dc/dcmitype/StillImage" />
      </cc:Work>
    </rdf:RDF>
  </metadata>
  <defs
     id="defs1039" />
  <sodipodi:namedview
     pagecolor="#ffffff"
     bordercolor="#666666"
     borderopacity="1"
     objecttolerance="10"
     gridtolerance="10"
     guidetolerance="10"
     inkscape:pageopacity="0"
     inkscape:pageshadow="2"
     inkscape:window-width="1366"
     inkscape:window-height="741"
     id="namedview1037"
     showgrid="false"
     inkscape:zoom="0.014142136"
     inkscape:cx="5561.5261"
     inkscape:cy="1555.1378"
     inkscape:window-x="0"
     inkscape:window-y="27"
     inkscape:window-maximized="1"
     inkscape:current-layer="svg1035"
     inkscape:document-rotation="0" />
  <g
     id="g934">
    <g
       transform="matrix(0.08660254,0.05,0.05,-0.08660254,518.75635,531.12414)"
       fill="#000000"
       stroke="none"
       id="g1033"
       style="fill:#333333">
      <path
         d="m 3993,7760 c -238,-36 -506,-203 -601,-373 -90,-162 -140,-627 -162,-1502 -11,-459 -16,-544 -36,-637 -20,-88 -44,-118 -94,-118 -56,0 -132,56 -318,235 -89,85 -195,179 -236,210 -446,330 -1311,767 -1663,840 -94,20 -186,14 -320,-21 C 324,6332 85,6183 34,6062 -5,5973 9,5809 65,5694 c 65,-134 200,-236 760,-574 286,-173 421,-258 1030,-652 560,-361 875,-553 1070,-651 104,-52 188,-114 209,-156 18,-34 22,-154 36,-1046 15,-926 35,-1148 108,-1202 57,-42 64,-146 36,-498 -24,-287 -11,-361 68,-403 18,-9 47,-31 65,-49 32,-30 33,-34 31,-105 -2,-98 21,-150 109,-237 75,-74 140,-111 197,-111 78,0 119,56 166,230 17,63 45,155 61,205 29,82 30,94 20,140 -14,63 -46,112 -124,192 -34,34 -58,66 -53,70 4,4 46,-3 94,-15 48,-12 99,-22 114,-22 41,0 78,21 84,46 8,30 -24,82 -66,109 -49,32 -64,63 -61,125 8,161 1,183 -93,288 -31,34 -56,67 -56,73 0,12 44,29 78,29 62,0 196,192 251,359 51,156 47,239 -14,286 -40,30 -38,45 6,45 41,0 66,15 86,53 16,29 18,60 15,314 -3,231 -1,293 12,343 28,109 69,140 183,140 93,0 192,-26 502,-130 266,-89 378,-120 566,-159 517,-105 1090,-130 1423,-61 163,33 302,116 302,181 0,52 -78,76 -141,43 -40,-20 -47,-12 -26,31 63,133 -76,283 -333,358 -47,13 -128,37 -180,52 -262,75 -606,229 -1550,693 -272,134 -510,251 -527,260 -24,11 -31,21 -28,36 2,12 7,269 10,571 9,888 29,1324 76,1695 19,150 36,228 114,519 35,129 33,191 -6,260 -38,67 -174,204 -254,258 -165,110 -309,154 -442,133 z"
         id="path1031"
         style="fill:#333333" />
    </g>
    <g
       transform="matrix(0.08400317,0.0487514,0.05706783,-0.08592371,1810.6872,555.10684)"
       fill="#000000"
       stroke="none"
       id="g1045"
       style="fill:#333333">
      <path
         d="m 3993,7760 c -238,-36 -506,-203 -601,-373 -90,-162 -140,-627 -162,-1502 -11,-459 -16,-544 -36,-637 -20,-88 -44,-118 -94,-118 -56,0 -132,56 -318,235 -89,85 -195,179 -236,210 -446,330 -1311,767 -1663,840 -94,20 -711.96061,-165.3475 -845.960611,-200.3475 -238.999999,-62 -477.999999,-211 -528.999999,-332 -39,-89 -25,-253 31,-368 -330.58613,-325.218 309.07454,-795.3711 760,-574 286,-173 1000.32301,-168.1958 1609.32301,-562.1958 C 2468.3624,4017.4567 2730,3915 2925,3817 c 104,-52 188,-114 209,-156 18,-34 22,-154 36,-1046 -308.0606,-3694.82 1135.7213,-1283.3716 1122,-78 -3,231 -1,293 12,343 28,109 69,140 183,140 93,0 192,-26 502,-130 266,-89 378,-120 566,-159 517,-105 1090,-130 1423,-61 163,33 302,116 302,181 0,52 -78,76 -141,43 -40,-20 -47,-12 -26,31 63,133 -76,283 -333,358 -47,13 -128,37 -180,52 -262,75 -606,229 -1550,693 -272,134 -510,251 -527,260 -24,11 -31,21 -28,36 2,12 7,269 10,571 9,888 29,1324 76,1695 19,150 36,228 114,519 35,129 33,191 -6,260 -38,67 -174,204 -254,258 -165,110 -309,154 -442,133 z"
         id="path1043"
         style="fill:#333333"
         sodipodi:nodetypes="ccccscccccccccccccscccsccccccccccccc" />
    </g>
    <g
       transform="matrix(-0.06821134,-0.07312464,-0.07312464,0.06821134,4224.3796,424.23511)"
       fill="#000000"
       stroke="none"
       id="g843"
       style="fill:#333333">
      <path
         d="m 4614.704,7607.24 c -238,-36 -506,-203 -601,-373 -90,-162 -140,-627 -162,-1502 -11,-459 -16,-544 -36,-637 -20,-88 -44,-118 -94,-118 -56,0 -132,56 -318,235 -89,85 -195,179 -236,210 -446,330 -1311,767 -1663,840 -94,20 -186,14 -320,-21 -238.99997,-62 -477.99997,-211 -528.99997,-332 -39,-89 -25,-253 31,-368 65,-134 200,-236 759.99997,-574 286,-173 421,-258 1030,-652 560,-361 875,-553 1070,-651 104,-52 188,-114 209,-156 18,-34 22,-154 36,-1046 15,-926 35,-1148 108,-1202 53.6155,-3084.2609 1313.5303,377.3805 907,712 -40,30 -38,45 6,45 41,0 66,15 86,53 16,29 18,60 15,314 -3,231 -1,293 12,343 28,109 69,140 183,140 93,0 192,-26 502,-130 266,-89 378,-120 566,-159 517,-105 1279.1879,-496.8469 1612.1879,-427.8469 163,33 302,116 302,181 0,52 -78,76 -141,43 -40,-20 -47,-12 -26,31 63,133 319.0928,118.8313 -74.4457,585.3331 -47,13 -180,52 -180,52 -554.648,824.9474 -1053.7422,368.5138 -1997.7422,832.5138 -272,134 -510,251 -527,260 -24,11 -31,21 -28,36 2,12 7,269 10,571 9,888 29,1324 76,1695 19,150 36,228 114,519 35,129 33,191 -6,260 -38,67 -174,204 -254,258 -165,110 -309,154 -442,133 z"
         id="path841"
         style="fill:#333333"
         sodipodi:nodetypes="ccccscccccccccccccscccscccsccccccccscccc" />
    </g>
    <g
       transform="matrix(-0.05594588,-0.08288583,-0.08288583,0.05594588,5474.6442,473.01998)"
       fill="#000000"
       stroke="none"
       id="g847"
       style="fill:#333333">
      <path
         d="m 3993,7760 c -238,-36 -506,-203 -601,-373 -90,-162 -140,-627 -162,-1502 -11,-459 -16,-544 -36,-637 -20,-88 -44,-118 -94,-118 -56,0 -132,56 -318,235 -89,85 -195,179 -236,210 -446,330 -1311,767 -1663,840 -94,20 -186,14 -320,-21 C 324,6332 85,6183 34,6062 -5,5973 9,5809 65,5694 c 65,-134 200,-236 760,-574 286,-173 421,-258 1030,-652 560,-361 875,-553 1070,-651 104,-52 188,-114 209,-156 18,-34 22,-154 36,-1046 15,-926 35,-1148 108,-1202 57,-42 64,-146 36,-498 -24,-287 -11,-361 68,-403 18,-9 47,-31 65,-49 32,-30 33,-34 31,-105 -2,-98 21,-150 109,-237 75,-74 140,-111 197,-111 78,0 119,56 166,230 17,63 45,155 61,205 29,82 30,94 20,140 -14,63 -46,112 -124,192 -34,34 -58,66 -53,70 4,4 46,-3 94,-15 48,-12 99,-22 114,-22 41,0 78,21 84,46 8,30 -24,82 -66,109 -49,32 -64,63 -61,125 8,161 1,183 -93,288 -31,34 -56,67 -56,73 0,12 44,29 78,29 62,0 196,192 251,359 51,156 47,239 -14,286 -40,30 -38,45 6,45 41,0 66,15 86,53 16,29 18,60 15,314 -3,231 -1,293 12,343 28,109 69,140 183,140 93,0 192,-26 502,-130 266,-89 378,-120 566,-159 517,-105 1090,-130 1423,-61 163,33 302,116 302,181 0,52 -78,76 -141,43 -40,-20 -47,-12 -26,31 63,133 -76,283 -333,358 -47,13 -128,37 -180,52 -262,75 -606,229 -1550,693 -272,134 -510,251 -527,260 -24,11 -31,21 -28,36 2,12 7,269 10,571 9,888 29,1324 76,1695 19,150 36,228 114,519 35,129 33,191 -6,260 -38,67 -174,204 -254,258 -165,110 -309,154 -442,133 z"
         id="path845"
         style="fill:#333333" />
    </g>
    <g
       transform="matrix(0.07797584,0.06260805,0.06260805,-0.07797584,4639.7687,430.87589)"
       fill="#000000"
       stroke="none"
       id="g851"
       style="fill:#333333">
      <path
         d="m 12321.897,13795.468 c -238,-36 -506,-203 -601,-373 -90,-162 -140,-627 -162,-1502 -11,-459 -16,-544 -36,-637 -20,-88 -44,-118 -94,-118 -56,0 -132,56 -318,235 -89,85 -195,179 -236,210 -446,330 -1311.0005,767 -1663.0005,840 -94,20 -186,14 -320,-21 -239,-62 -478,-211 -529,-332 -39,-89 -25,-253 31,-368 65,-134 200,-236 760,-574 286,-173 421,-258 1030.0005,-652 560,-361 875,-552.9998 1070,-650.9998 104,-52 188,-114 209,-156 18,-34 22,-154 36,-1046 15,-926 35,-1148 108,-1202 53.615,-3084.2609 1313.53,377.3805 907,712 -40,30 -38,45 6,45 41,0 66,15 86,53 16,29 18,60 15,314 -3,231 -1,293 12,343 28,109 69,140 183,140 93,0 192,-26 502,-130 266,-89 378,-120 566,-159 517,-105 1279.187,-496.8469 1612.187,-427.8469 163,33 302,116 302,181 0,52 -78,76 -141,43 -40,-20 -47,-12 -26,31 63,133 319.093,118.8313 -74.445,585.3331 -47,13 -180,52 -180,52 -554.648,824.9476 -1053.742,368.5138 -1997.742,832.5136 -272,134 -510,251 -527,260 -24,11 -31,21 -28,36 2,12 7,269 10,571 9,888 29,1324 76,1695 19,150 36,228 114,519 35,129 33,191 -6,260 -38,67 -174,204 -254,258 -165,110 -309,154 -442,133 z"
         id="path849"
         style="fill:#333333"
         sodipodi:nodetypes="ccccscccccccccccccscccscccsccccccccscccc" />
    </g>
  </g>
</svg>
