<?xml version="1.0" encoding="UTF-8" standalone="no"?>
<svg
   xmlns:dc="http://purl.org/dc/elements/1.1/"
   xmlns:cc="http://creativecommons.org/ns#"
   xmlns:rdf="http://www.w3.org/1999/02/22-rdf-syntax-ns#"
   xmlns:svg="http://www.w3.org/2000/svg"
   xmlns="http://www.w3.org/2000/svg"
   xmlns:sodipodi="http://sodipodi.sourceforge.net/DTD/sodipodi-0.dtd"
   xmlns:inkscape="http://www.inkscape.org/namespaces/inkscape"
   enable-background="new 0 0 24 24"
   height="14"
   viewBox="0 0 18 14"
   width="18"
   fill="#000000"
   version="1.1"
   id="svg12"
   sodipodi:docname="egg_black_black.svg"
   inkscape:version="1.0.2 (e86c870879, 2021-01-15)">
  <metadata
     id="metadata18">
    <rdf:RDF>
      <cc:Work
         rdf:about="">
        <dc:format>image/svg+xml</dc:format>
        <dc:type
           rdf:resource="http://purl.org/dc/dcmitype/StillImage" />
        <dc:title></dc:title>
      </cc:Work>
    </rdf:RDF>
  </metadata>
  <defs
     id="defs16" />
  <sodipodi:namedview
     pagecolor="#ffffff"
     bordercolor="#666666"
     borderopacity="1"
     objecttolerance="10"
     gridtolerance="10"
     guidetolerance="10"
     inkscape:pageopacity="0"
     inkscape:pageshadow="2"
     inkscape:window-width="1366"
     inkscape:window-height="766"
     id="namedview14"
     showgrid="false"
     inkscape:zoom="23.833333"
     inkscape:cx="9"
     inkscape:cy="7"
     inkscape:window-x="0"
     inkscape:window-y="0"
     inkscape:window-maximized="1"
     inkscape:current-layer="svg12"
     inkscape:document-rotation="0" />
  <g
     id="g4"
     transform="translate(-3,-5)">
    <rect
       fill="none"
       height="24"
       width="24"
       id="rect2"
       x="0"
       y="0" />
  </g>
  <g
     id="g10"
     transform="rotate(90,13,8)"
     style="fill:#444444;fill-opacity:1">
    <g
       id="g8"
       style="fill:#444444;fill-opacity:1">
      <path
         d="M 12,3 C 8.5,3 5,9.33 5,14 c 0,3.87 3.13,7 7,7 3.87,0 7,-3.13 7,-7 C 19,9.33 15.5,3 12,3 Z m 1,15 c -3,0 -5,-1.99 -5,-5 0,-0.55 0.45,-1 1,-1 0.55,0 1,0.45 1,1 0,2.92 2.42,3 3,3 0.55,0 1,0.45 1,1 0,0.55 -0.45,1 -1,1 z"
         id="path6"
         style="fill:#444444;fill-opacity:1" />
    </g>
  </g>
</svg>
