<?xml version="1.0" encoding="UTF-8" standalone="no"?>
<svg
   width="149.91786mm"
   height="116.22142mm"
   viewBox="0 0 149.91786 116.22142"
   version="1.1"
   id="svg8"
   inkscape:version="1.2 (dc2aedaf03, 2022-05-15)"
   sodipodi:docname="logo-black.svg"
   xmlns:inkscape="http://www.inkscape.org/namespaces/inkscape"
   xmlns:sodipodi="http://sodipodi.sourceforge.net/DTD/sodipodi-0.dtd"
   xmlns="http://www.w3.org/2000/svg"
   xmlns:svg="http://www.w3.org/2000/svg"
   xmlns:rdf="http://www.w3.org/1999/02/22-rdf-syntax-ns#"
   xmlns:cc="http://creativecommons.org/ns#"
   xmlns:dc="http://purl.org/dc/elements/1.1/">
  <defs
     id="defs2">
    <inkscape:path-effect
       effect="skeletal"
       id="path-effect851"
       is_visible="true"
       lpeversion="1"
       pattern="m 59.495033,32.203543 c 0,-1.555783 1.176843,-2.818447 2.626881,-2.818447 1.450038,0 2.62688,1.262664 2.62688,2.818447 0,1.555783 -1.176842,2.818448 -2.62688,2.818448 -1.450038,0 -2.626881,-1.262665 -2.626881,-2.818448 z"
       copytype="single_stretched"
       prop_scale="-0.689144"
       scale_y_rel="false"
       spacing="0"
       normal_offset="0"
       tang_offset="0"
       prop_units="false"
       vertical_pattern="false"
       hide_knot="false"
       fuse_tolerance="0" />
    <inkscape:path-effect
       effect="spiro"
       id="path-effect849"
       is_visible="true"
       lpeversion="1" />
    <inkscape:path-effect
       effect="powerstroke"
       id="path-effect845"
       is_visible="true"
       lpeversion="1"
       offset_points="0,0.1322915"
       sort_points="true"
       interpolator_type="CubicBezierJohan"
       interpolator_beta="0.2"
       start_linecap_type="zerowidth"
       linejoin_type="extrp_arc"
       miter_limit="4"
       scale_width="1"
       end_linecap_type="zerowidth"
       not_jump="false" />
    <inkscape:path-effect
       effect="spiro"
       id="path-effect843"
       is_visible="true"
       lpeversion="1" />
    <inkscape:path-effect
       effect="skeletal"
       id="path-effect839"
       is_visible="true"
       lpeversion="1"
       pattern="m 21.96854,14.762416 c 0,-2.416444 1.961171,-4.377615 4.377615,-4.377615 2.416443,0 4.377614,1.961171 4.377614,4.377615 0,2.416443 -1.961171,4.377614 -4.377614,4.377614 -2.416444,0 -4.377615,-1.961171 -4.377615,-4.377614 z"
       copytype="single_stretched"
       prop_scale="-0.689144"
       scale_y_rel="false"
       spacing="0"
       normal_offset="0"
       tang_offset="0"
       prop_units="false"
       vertical_pattern="false"
       hide_knot="false"
       fuse_tolerance="0" />
    <inkscape:path-effect
       effect="bspline"
       id="path-effect837"
       is_visible="true"
       lpeversion="1"
       weight="33.333333"
       steps="2"
       helper_size="0"
       apply_no_weight="true"
       apply_with_weight="true"
       only_selected="false" />
  </defs>
  <sodipodi:namedview
     id="base"
     pagecolor="#ffffff"
     bordercolor="#666666"
     borderopacity="1.0"
     inkscape:pageopacity="0.0"
     inkscape:pageshadow="2"
     inkscape:zoom="0.57150897"
     inkscape:cx="144.35469"
     inkscape:cy="221.34386"
     inkscape:document-units="mm"
     inkscape:current-layer="layer1"
     inkscape:document-rotation="0"
     showgrid="false"
     showguides="true"
     inkscape:guide-bbox="true"
     inkscape:object-nodes="false"
     inkscape:window-width="1366"
     inkscape:window-height="741"
     inkscape:window-x="0"
     inkscape:window-y="27"
     inkscape:window-maximized="1"
     inkscape:showpageshadow="2"
     inkscape:pagecheckerboard="0"
     inkscape:deskcolor="#d1d1d1" />
  <metadata
     id="metadata5">
    <rdf:RDF>
      <cc:Work
         rdf:about="">
        <dc:format>image/svg+xml</dc:format>
        <dc:type
           rdf:resource="http://purl.org/dc/dcmitype/StillImage" />
        <dc:title />
      </cc:Work>
    </rdf:RDF>
  </metadata>
  <g
     inkscape:label="Layer 1"
     inkscape:groupmode="layer"
     id="layer1"
     transform="translate(-61.587508,-25.362401)">
    <path
       id="path459"
       style="fill:#000000;fill-opacity:1;stroke:none;stroke-width:0.264583px;stroke-linecap:butt;stroke-linejoin:miter;stroke-opacity:1"
       class="UnoptimicedTransforms"
       d="m 68.61602,73.280923 v 1.139465 c 2.852778,-0.03857 6.354001,-0.02461 11.859741,0.613916 6.341198,0.760488 12.713347,0.584555 21.722709,6.04666 4.5803,2.451645 8.18394,6.648251 10.95643,11.924853 2.53914,4.825034 4.06206,10.177543 5.7242,16.189713 1.34884,4.93678 2.77079,10.46159 4.41989,15.73599 1.11197,3.67997 2.42657,7.82995 4.95112,11.64218 1.4071,2.34858 3.97698,4.46052 7.54475,5.00125 3.56779,-0.54073 6.13766,-2.65267 7.54476,-5.00125 2.52455,-3.81223 3.83915,-7.96221 4.95112,-11.64218 1.6491,-5.2744 3.07105,-10.79921 4.41989,-15.73599 1.66214,-6.01217 3.18506,-11.364679 5.7242,-16.189713 2.77249,-5.276602 6.37613,-9.473208 10.95643,-11.924853 9.00936,-5.462105 15.38151,-5.286172 21.72271,-6.04666 5.50573,-0.638524 9.00696,-0.652484 11.85974,-0.613916 v -1.139465 c -2.63531,0.121027 -6.93522,0.121559 -12.56461,0.515214 -8.57575,1.071157 -13.98956,1.514139 -22.06997,5.475118 -5.62716,2.841125 -10.42608,7.407208 -13.75678,13.492717 l -3.19671,7.323588 -3.83387,10.09602 -3.87315,10.02316 c -1.84446,4.14874 -2.44008,5.88355 -4.60489,8.11785 -0.76686,0.79151 -1.76061,1.42849 -2.82308,1.72134 -0.14928,0.0412 0,0 -0.45583,0.0557 -0.45574,-0.0557 -0.30646,-0.0145 -0.45574,-0.0557 -1.06247,-0.29285 -2.05622,-0.92983 -2.82308,-1.72134 -2.16481,-2.2343 -2.76043,-3.96911 -4.60489,-8.11785 l -3.87315,-10.02316 -3.83387,-10.09602 -3.19671,-7.323588 C 113.67668,86.678433 108.87776,82.11238 103.2506,79.271255 95.170185,75.310276 89.75638,74.867294 81.180627,73.796137 75.551241,73.402482 71.251327,73.40195 68.61602,73.280923 Z"
       sodipodi:nodetypes="cccccccccccccccccccccccsccccccccccc" />
    <path
       style="fill:#000000;fill-opacity:1;stroke:none;stroke-width:0.264583px;stroke-linecap:butt;stroke-linejoin:miter;stroke-opacity:1"
       d="m 125.87765,32.217613 c 0.17718,-0.323227 -5.23911,-5.502667 -15.9011,-3.555373 -2.5337,0.467798 -5.30782,1.487128 -7.86565,3.311663 -2.212001,1.578685 -4.249974,3.774838 -5.652069,6.557879 -1.24751,2.480584 -1.956149,5.420225 -1.786563,8.501644 0.158279,2.841093 1.085425,5.769901 2.865599,8.307355 1.765789,2.49696 4.300153,4.524229 7.271693,5.759345 2.81274,1.16777 5.94908,1.644266 9.10384,1.38709 5.92386,-0.510665 11.58112,-3.418049 16.05034,-7.796993 3.62887,-3.54478 6.33234,-7.627865 9.14018,-11.773338 2.76849,-3.977073 5.69859,-8.128903 9.44908,-10.702951 0.69901,-0.479746 1.42506,-0.90432 2.18337,-1.265244 3.52461,-1.760595 7.68908,-2.148558 11.41565,-1.257743 3.883,0.921153 7.36873,3.239524 9.78017,6.23762 2.7585,3.45833 4.16701,7.915005 3.63796,11.960142 -0.26656,2.133354 -1.02266,4.173652 -2.17985,5.867514 -1.20461,1.766176 -2.84461,3.187789 -4.67191,4.064784 -2.96158,1.465132 -6.5277,1.467986 -9.60889,0.696215 -3.42097,-0.861499 -6.50568,-2.776457 -9.0726,-4.80797 0,0 0,-4e-6 0,-4e-6 -4.16412,-3.302558 -8.56127,-8.543124 -11.24409,-11.45498 -7.01995,-7.669579 -12.73773,-10.360338 -12.91516,-10.036656 -0.17743,0.323682 4.86536,3.435129 11.39287,11.359192 2.51986,3.079573 6.60346,8.442123 11.02207,12.241377 1e-5,0 1e-5,4e-6 1e-5,4e-6 2.67255,2.302155 6.03089,4.508114 10.00869,5.66372 3.61676,1.054277 7.90365,1.116133 11.82986,-0.64234 2.39658,-1.099884 4.52829,-2.862459 6.10836,-5.103211 1.51387,-2.149531 2.514,-4.689866 2.88403,-7.378552 0.68039,-5.116344 -0.89875,-10.540371 -4.2541,-14.766234 -2.88937,-3.664247 -7.04377,-6.46593 -11.81285,-7.638556 -4.59156,-1.122152 -9.63662,-0.660775 -14.04682,1.517198 -0.92254,0.47339 -1.79967,1.004082 -2.63633,1.583443 -4.49955,3.115814 -7.74461,7.590925 -10.4568,11.703972 -2.83729,4.187305 -5.33466,8.078698 -8.57376,11.254096 -3.96321,3.87202 -8.80251,6.518823 -13.73639,6.95464 -2.6218,0.246378 -5.22668,-0.08872 -7.52049,-1.000558 -2.41535,-0.958665 -4.51584,-2.544127 -5.95038,-4.494419 -1.462627,-1.968809 -2.283072,-4.337586 -2.481238,-6.644451 -0.217385,-2.507068 0.295797,-4.988817 1.266847,-7.107325 1.089891,-2.382928 2.773341,-4.348458 4.634891,-5.808001 2.1544,-1.690051 4.5829,-2.725161 6.84069,-3.279638 9.48736,-2.35173 15.30366,1.90887 15.48084,1.585644 z"
       id="path847"
       sodipodi:nodetypes="ssssssssss"
       class="UnoptimicedTransforms" />
  </g>
</svg>
