<?xml version="1.0" encoding="UTF-8" standalone="no"?>
<svg
   xmlns:dc="http://purl.org/dc/elements/1.1/"
   xmlns:cc="http://creativecommons.org/ns#"
   xmlns:rdf="http://www.w3.org/1999/02/22-rdf-syntax-ns#"
   xmlns:svg="http://www.w3.org/2000/svg"
   xmlns="http://www.w3.org/2000/svg"
   xmlns:sodipodi="http://sodipodi.sourceforge.net/DTD/sodipodi-0.dtd"
   xmlns:inkscape="http://www.inkscape.org/namespaces/inkscape"
   width="284.85992mm"
   height="132.64076mm"
   viewBox="0 0 284.85992 132.64076"
   version="1.1"
   id="svg8"
   inkscape:version="1.0.2 (e86c870879, 2021-01-15)"
   sodipodi:docname="logo.svg">
  <defs
     id="defs2">
    <inkscape:path-effect
       effect="skeletal"
       id="path-effect851"
       is_visible="true"
       lpeversion="1"
       pattern="m 42.861805,24.920812 c 0,-1.776976 1.34416,-3.219159 3.000357,-3.219159 1.656197,0 3.000356,1.442183 3.000356,3.219159 0,1.776976 -1.344159,3.219159 -3.000356,3.219159 -1.656197,0 -3.000357,-1.442183 -3.000357,-3.219159 z"
       copytype="single_stretched"
       prop_scale="-0.689144"
       scale_y_rel="false"
       spacing="0"
       normal_offset="0"
       tang_offset="0"
       prop_units="false"
       vertical_pattern="false"
       hide_knot="false"
       fuse_tolerance="0" />
    <inkscape:path-effect
       effect="spiro"
       id="path-effect849"
       is_visible="true"
       lpeversion="1" />
    <inkscape:path-effect
       effect="powerstroke"
       id="path-effect845"
       is_visible="true"
       lpeversion="1"
       offset_points="0,0.1322915"
       sort_points="true"
       interpolator_type="CubicBezierJohan"
       interpolator_beta="0.2"
       start_linecap_type="zerowidth"
       linejoin_type="extrp_arc"
       miter_limit="4"
       scale_width="1"
       end_linecap_type="zerowidth" />
    <inkscape:path-effect
       effect="spiro"
       id="path-effect843"
       is_visible="true"
       lpeversion="1" />
    <inkscape:path-effect
       effect="skeletal"
       id="path-effect839"
       is_visible="true"
       lpeversion="1"
       pattern="M 0,5 C 0,2.24 2.24,0 5,0 7.76,0 10,2.24 10,5 10,7.76 7.76,10 5,10 2.24,10 0,7.76 0,5 Z"
       copytype="single_stretched"
       prop_scale="-0.689144"
       scale_y_rel="false"
       spacing="0"
       normal_offset="0"
       tang_offset="0"
       prop_units="false"
       vertical_pattern="false"
       hide_knot="false"
       fuse_tolerance="0" />
    <inkscape:path-effect
       effect="bspline"
       id="path-effect837"
       is_visible="true"
       lpeversion="1"
       weight="33.333333"
       steps="2"
       helper_size="0"
       apply_no_weight="true"
       apply_with_weight="true"
       only_selected="false" />
  </defs>
  <sodipodi:namedview
     id="base"
     pagecolor="#ffffff"
     bordercolor="#666666"
     borderopacity="1.0"
     inkscape:pageopacity="0.0"
     inkscape:pageshadow="2"
     inkscape:zoom="0.54868361"
     inkscape:cx="504.16051"
     inkscape:cy="350.00294"
     inkscape:document-units="mm"
     inkscape:current-layer="layer1"
     inkscape:document-rotation="0"
     showgrid="false"
     showguides="true"
     inkscape:guide-bbox="true"
     inkscape:object-nodes="false"
     inkscape:window-width="1366"
     inkscape:window-height="768"
     inkscape:window-x="0"
     inkscape:window-y="0"
     inkscape:window-maximized="0" />
  <metadata
     id="metadata5">
    <rdf:RDF>
      <cc:Work
         rdf:about="">
        <dc:format>image/svg+xml</dc:format>
        <dc:type
           rdf:resource="http://purl.org/dc/dcmitype/StillImage" />
        <dc:title></dc:title>
      </cc:Work>
    </rdf:RDF>
  </metadata>
  <g
     inkscape:label="Layer 1"
     inkscape:groupmode="layer"
     id="layer1"
     transform="translate(-34.056664,-17.107037)">
    <g
       id="g855"
       transform="matrix(0.87552292,0,0,0.87552292,21.96854,10.384801)"
       style="stroke-width:1.14217">
      <path
         style="fill:#000000;stroke:none;stroke-width:0.3022px;stroke-linecap:butt;stroke-linejoin:miter;stroke-opacity:1"
         d="m 34.056664,71.306131 c 0,0.723039 12.232716,0.508546 32.50905,2.810669 7.18949,0.841558 17.025048,2.082311 24.830353,6.380356 5.26521,2.820035 9.795363,7.645691 12.989363,13.744751 2.90234,5.534137 4.63506,11.643123 6.52807,18.553653 1.51582,5.59509 3.1371,11.95918 4.99954,17.98063 1.25327,4.18696 2.73287,8.92935 5.59272,13.27615 1.58764,2.65782 4.47949,5.06656 8.51292,5.68373 3.30631,0.14656 6.21055,-1.09334 8.2391,-3.01642 5.4219,-5.14888 7.21994,-12.04893 8.67977,-18.01856 1.90109,-6.78987 3.60111,-14.07452 5.8283,-20.6308 0.78414,-2.30832 1.6397,-4.55274 2.60767,-6.72612 3.26436,-7.342237 7.81109,-13.891365 13.57375,-18.764578 2.31856,-1.961861 4.81655,-3.588612 7.46228,-4.675932 3.14367,-1.327832 6.66127,-2.023189 10.22404,-2.512802 14.25151,-1.913832 30.91411,-1.318262 43.75419,-1.473336 53.11905,-0.607458 88.52881,-1.693814 88.52881,-2.932042 0,-1.238228 -35.40976,-2.324584 -88.52881,-2.932042 -12.73128,-0.155785 -29.41369,-1.035702 -44.58646,0.789709 -3.88081,0.456525 -7.96012,1.257789 -11.93795,2.849215 -3.40545,1.393214 -6.51986,3.361346 -9.29546,5.701607 -6.68697,5.64074 -11.89235,12.994186 -15.49145,21.164007 -1.05497,2.398644 -1.98233,4.833004 -2.82257,7.294764 -2.39658,7.02157 -4.10815,14.38789 -5.91492,21.02629 -1.87942,6.12408 -2.90714,11.89785 -6.55407,14.80843 -1.13845,0.89177 -2.34555,1.60158 -3.20193,1.39497 -1.07862,0.18281 -2.3772,-1.23667 -3.62103,-2.74165 -2.24532,-3.15845 -3.52562,-7.34302 -4.92283,-11.50855 -1.87488,-5.75685 -3.60084,-12.08668 -5.23778,-17.69386 -2.00244,-6.92968 -4.06332,-13.442689 -7.42793,-19.575783 C 105.56817,84.63135 100.06328,79.222368 93.71677,76.021494 84.532256,71.511906 74.255039,70.639486 66.898858,70.233761 46.079299,69.010076 34.056664,70.583092 34.056664,71.306131 Z"
         id="path835"
         inkscape:original-d="m 34.056664,71.306131 c 22.545113,2.64e-4 45.08996,2.64e-4 67.634546,0 4.27517,13.906336 8.54991,27.811851 12.82446,41.717379 2.9584,11.79233 5.91641,23.58393 8.87421,35.37549 4.64597,-0.61307 9.29149,-1.22638 13.93684,-1.83997 2.03494,-5.32413 4.06955,-10.64831 6.10392,-15.97286 2.45024,-10.91658 4.90011,-21.83298 7.34977,-32.749872 5.33942,-6.687042 10.67836,-13.374081 16.01714,-20.06152 5.25929,-2.262881 10.5181,-4.525933 15.77675,-6.789298 12.5451,2.64e-4 25.08943,2.65e-4 37.63375,0 32.90377,2.65e-4 65.80596,2.65e-4 98.70854,0"
         inkscape:path-effect="#path-effect837;#path-effect839" />
      <path
         style="fill:#000000;stroke:none;stroke-width:0.3022px;stroke-linecap:butt;stroke-linejoin:miter;stroke-opacity:1"
         d="m 118.68234,24.936882 c 0.10119,-0.184591 -1.24623,-1.306621 -4.25085,-2.543341 -2.82688,-1.16356 -7.91762,-2.612137 -13.91098,-1.517515 -2.893934,0.534307 -6.06246,1.69856 -8.98395,3.782497 -2.526487,1.803134 -4.854208,4.311524 -6.455645,7.490243 -1.424874,2.833259 -2.234264,6.190843 -2.040566,9.710361 0.180781,3.245023 1.239744,6.590233 3.273013,9.488449 2.016839,2.851965 4.91152,5.167461 8.305545,6.578179 3.212633,1.333797 6.794883,1.878039 10.398173,1.5843 6.76608,-0.583269 13.22766,-3.904009 18.33229,-8.90553 4.1448,-4.048758 7.23264,-8.712353 10.43968,-13.447207 3.16209,-4.542509 6.50878,-9.284622 10.7925,-12.224635 0.79839,-0.547955 1.62767,-1.032893 2.49379,-1.445132 4.02572,-2.010905 8.78227,-2.454026 13.03866,-1.43656 4.43506,1.052118 8.41638,3.700101 11.17066,7.124449 3.15069,3.950016 4.75945,9.040317 4.15519,13.660569 -0.30446,2.436663 -1.16806,4.76704 -2.48977,6.701726 -1.37588,2.017281 -3.24905,3.641011 -5.33614,4.642693 -3.38265,1.673437 -7.45577,1.676697 -10.97503,0.7952 -3.90734,-0.983983 -7.43063,-3.171199 -10.36249,-5.491542 0,0 -1e-5,-5e-6 -1e-5,-5e-6 -4.75615,-3.772098 -9.77845,-9.757739 -12.84271,-13.083587 -8.018,-8.759999 -14.54871,-11.833315 -14.75136,-11.463613 -0.10133,0.184851 1.33501,1.102234 3.70572,3.125913 2.71586,2.318315 5.2765,4.955536 9.30692,9.848267 2.87812,3.51741 7.5423,9.642378 12.58914,13.98179 0,0 0,5e-6 0,5e-6 3.05253,2.629462 6.88834,5.149052 11.43167,6.468957 4.13097,1.204168 9.02735,1.274819 13.51177,-0.733665 2.73731,-1.256259 5.1721,-3.269428 6.97681,-5.828758 1.72911,-2.45514 2.87143,-5.356645 3.29407,-8.427595 0.77712,-5.843757 -1.02653,-12.038943 -4.85892,-16.865617 -3.30018,-4.185207 -8.04522,-7.385218 -13.49235,-8.724561 -5.24435,-1.281693 -11.00669,-0.754721 -16.04391,1.732902 -1.0537,0.540696 -2.05554,1.14684 -3.01115,1.808572 -5.13928,3.558803 -8.8457,8.670159 -11.9435,13.367977 -3.24067,4.782632 -6.0931,9.227281 -9.79272,12.85414 -4.52668,4.422525 -10.05401,7.445637 -15.68936,7.943416 -2.99455,0.281406 -5.969778,-0.101331 -8.589712,-1.142813 -2.758752,-1.094963 -5.157868,-2.905838 -6.796367,-5.133412 -1.670577,-2.248724 -2.607668,-4.954281 -2.834008,-7.589123 -0.248292,-2.86351 0.337852,-5.698099 1.44696,-8.117806 1.244849,-2.721719 3.167638,-4.966698 5.293854,-6.63375 2.460703,-1.930334 5.234478,-3.11261 7.813253,-3.74592 10.83623,-2.686086 17.47946,2.180263 17.68183,1.811082 z"
         id="path847"
         inkscape:path-effect="#path-effect849;#path-effect851"
         inkscape:original-d="m 118.68234,24.936882 c -8.86614,-8.584035 -21.463297,5.260331 -32.195181,7.890236 -10.731884,2.62991 0.87332,11.635417 1.309746,17.452868 0.436425,5.817451 22.703975,-0.803244 34.055725,-1.205118 11.35174,-0.401879 6.74429,-8.766947 10.1162,-13.150675 3.3719,-4.383728 9.41381,-9.615267 14.12047,-14.423158 4.70667,-4.807891 17.91535,4.226685 26.87278,6.339767 8.95743,2.113088 -3.0274,18.709158 -4.54133,28.063486 -1.51394,9.354321 -15.42682,-3.477039 -23.14048,-5.215817 -7.71365,-1.73877 -17.7318,-17.167554 -26.59793,-25.751589 z" />
    </g>
  </g>
</svg>
